<?xml version="1.0" encoding="UTF-8"?>
<svg id="Layer_1" data-name="Layer 1" xmlns="http://www.w3.org/2000/svg" xmlns:xlink="http://www.w3.org/1999/xlink" viewBox="0 0 1364 768">
  <defs>
    <style>
      .cls-1 {
        fill: none;
      }

      .cls-2 {
        clip-path: url(#clippath);
      }

      .cls-3 {
        fill: #253d6f;
      }

      .cls-4 {
        fill: #243e6d;
      }
    </style>
    <clipPath id="clippath">
      <rect class="cls-1" x="-.5" y="-.5" width="1364.5" height="768.5"/>
    </clipPath>
  </defs>
  <g class="cls-2">
    <g>
      <path class="cls-3" d="m855.48,661.2c18.94-14.59,38.78-29.61,62.23-34.31,14.21-2.85,28.93-1.69,43.24.58,3.05.48,6.23,1.08,8.64,3.01,2.4,1.93,3.67,4.9,4.84,7.74,4.34,10.48,8.67,20.96,13.01,31.45,1.08,2.61,2.3,5.39,4.71,6.85,2.52,1.53,5.7,1.23,8.63.88,23.62-2.8,47.23-5.6,70.85-8.4,20.45-2.42,41.03-4.88,60.69-10.97,21.43-6.63,41.31-17.44,62.19-25.62,26.76-10.48,55-16.59,83.1-22.66,32.1-6.93,64.2-13.87,96.3-20.8,4.18-.9,8.56-1.81,12.7-.72,8.99,2.35,13.05,12.58,15.55,21.54,12.18,43.59,18.82,88.72,19.71,133.97.22,11.2.03,22.74-4.25,33.1-5.89,14.25-19.01,24.56-33.31,30.35-14.3,5.79-29.84,7.62-45.19,9.15-129.95,12.95-261.63,8.42-390.42-13.19-18.79-3.15-38.5-7.13-52.84-19.66-10.28-8.97-16.75-21.5-21.83-34.17-11.52-28.74-17.06-59.87-16.16-90.82"/>
      <path class="cls-3" d="m856.24,662.5c17.14-13.21,35.03-26.99,56.24-32.82,11.75-3.23,23.98-3.48,36.05-2.32,5.63.54,12.14.76,17.46,2.82,5.74,2.22,7.39,9.4,9.51,14.53,2.31,5.58,4.62,11.16,6.92,16.74,1.86,4.49,3.31,9.92,6.28,13.84s7.49,4.13,12.08,3.61c6.38-.72,12.75-1.51,19.12-2.27,24.37-2.89,48.82-5.42,73.12-8.83,11.97-1.68,23.91-3.8,35.55-7.09,11.13-3.15,21.86-7.49,32.44-12.12,10.97-4.8,21.79-9.93,32.93-14.34s22.64-8.09,34.22-11.29c23.37-6.45,47.2-11.19,70.89-16.3,24.72-5.34,49.44-10.69,74.16-16.02,5.78-1.25,12.03-2.64,17.25,1,3.63,2.53,5.93,6.62,7.61,10.62,4.24,10.13,6.37,21.45,8.82,32.11,5.48,23.87,9.33,48.1,11.5,72.5,1.06,11.9,1.72,23.84,1.98,35.78.25,11.61.28,23.8-4.53,34.61-8.71,19.56-29.6,29.5-49.46,33.75-11.86,2.53-23.99,3.56-36.05,4.69-12.3,1.15-24.62,2.14-36.95,2.98-24.48,1.66-48.99,2.71-73.52,3.15-49.43.88-98.9-.73-148.17-4.8-24.63-2.04-49.22-4.69-73.72-7.96-12.3-1.64-24.58-3.44-36.83-5.4-11.03-1.76-22.15-3.4-32.98-6.21-9.91-2.57-19.66-6.27-27.95-12.39s-14.92-15.42-19.72-24.98c-10.46-20.81-16.63-44.31-19.48-67.35-1.4-11.36-1.92-22.8-1.61-34.24.05-1.93-2.95-1.93-3,0-.64,24.06,2.46,48.2,9.29,71.29,5.98,20.23,14.16,42.98,31.26,56.53,16.79,13.31,39.08,16.31,59.58,19.63,24.9,4.03,49.9,7.43,74.96,10.2,50.42,5.56,101.13,8.53,151.85,8.88,50.91.35,101.84-1.92,152.51-6.86,22.02-2.14,45.42-4.52,64-17.69,7.73-5.48,14.43-12.64,18.42-21.31,4.66-10.11,5.3-21.39,5.19-32.36-.25-24.67-2.41-49.37-6.13-73.76-1.88-12.35-4.19-24.63-6.93-36.82-2.5-11.15-4.81-22.79-8.91-33.49-2.92-7.63-7.94-15.33-16.74-16.37-5.76-.68-11.72,1.25-17.3,2.45-6.46,1.39-12.91,2.79-19.37,4.18-25.19,5.44-50.39,10.87-75.58,16.33-24.21,5.24-48.48,10.7-71.8,19.17s-43.8,20.06-66.74,27.45c-24.13,7.78-49.62,10.04-74.67,13.01-12.93,1.53-25.87,3.07-38.8,4.6-6.37.76-12.74,1.52-19.12,2.27-2.7.32-5.97.89-8.43-.61-2.68-1.64-3.73-5.25-4.86-7.98-2.38-5.75-4.76-11.5-7.13-17.25-2.15-5.19-4.03-10.61-6.56-15.63-2.27-4.52-5.79-6.93-10.71-7.94-5.67-1.16-11.53-1.79-17.29-2.27-11.94-.98-24.04-.45-35.6,2.88-10.48,3.02-20.3,7.99-29.5,13.78s-17.9,12.44-26.53,19.08c-1.51,1.16-.02,3.77,1.51,2.59h0Z"/>
    </g>
    <g>
      <path class="cls-4" d="m25.81,587.17c.5.23.99.45,1.49.68,2.75.07,4.38,2.15,6.37,3.57.99,1.58.42,2.32-1.31,2.3-.99,0-1.9-.64-2.91-.52-1.69.21-2.52,1.44-3.2,2.81-.28.57-.52,1.28.08,1.69,1.29.9,2.29-.29,3.42-.63,2.49-.73,3.95-2.89,6.05-4.18,2.11.26,3.79,1.14,4.75,3.13-.27,2.59-.75,5.1,2.13,6.9,1.49.93,1.51,2.86.72,4.44-1.37,2.75-3.1,5.19-6.53,5.52-3.23.31-6.48.11-9.72.15-5.2.06-5.47.3-5.5,5.52-.02,5.36.01,10.73-.01,16.09-.01,2.75.16,5.45.9,8.14.97,3.55.81,7.15-.07,10.73-1.44,5.86-.71,6.68,5.42,6.87,3.99.13,7.98-.04,11.96,0,4.62.05,5.7,1.13,5.75,5.83.05,3.86.2,7.72-.28,11.58-.42,3.39-1.96,5.21-5.6,4.98-3.01-.19-5.92.61-8.75.95-.36.61-.08,1.03.22,1.03,7.11-.03,12.05,6.77,19.55,5.97,3.05-.32,3.91,1.88,2.81,5.12-10.71-4.46-22.04-6.93-33.07-10.39.17-1.41.7-2.68,1.77-3.62,4.54-3.98,4.35-8.13-.45-11.51-1.78-1.25-5.02-.81-5.37-3.51-.46-3.56-.55-7.37.7-10.73,2.07-5.58,2.24-10.89-.1-16.36-.85-1.98-.46-4.2-.57-6.31-.09-1.71-.41-3.3-2.46-3.67-1.91-.34-3.52.12-4.25,2.12-.63,1.75-1.7,2.99-3.46,3.68-2.1.82-2.36,2.77-2.54,4.65-.29,2.99-.45,6.04-.06,8.98.87,6.66-2.07,12.73-2.62,19.15-.13,1.51-.94,2.94-3.01,2.11v-59.99c3.76,1.08,8.07,1.06,9.69,5.91.93,2.81,3.65,2.07,5.82,1.99,2.21-.08,2.92-1.6,2.95-3.57.05-3.74.3-7.49-.08-11.2-.39-3.82-2.45-6.71-6.03-8.39-1.14-.53-2.26-.71-2.79.72-1.67,4.51-5.89,4.54-9.56,5.55v-31.49c5.54,1.76,10.25,5.05,15,8.25-1.25,1.89-2.17,3.71.78,4.98.43.19.66.72.93,1.14q3.55,5.28,9.64,3.27c.47-.15.93-.34,1.42-.45Z"/>
      <path class="cls-3" d="m-1.95,670.45c1.77-.13,2-1.3,2.29-2.81,1.78-9.14,2.67-18.31,2.35-27.65-.08-2.36-.08-5.77,4.17-5.7,1.58.03,1.57-1.58,1.73-2.86.32-2.58,2.14-3,4.36-3,2.01,0,4.61.32,4.34,2.42-.83,6.53,3.23,12.24,2.56,18.67-.2,1.88-.28,3.69-1.26,5.37-2.14,3.66-.3,7.89-1.59,11.7-.23.68.66,1.55,1.4,1.45,3.44-.46,4.81,2.65,7.15,4.04,1.15.69,1.29,9.96.58,9.79-3.35-.79-3.8,2.43-5.66,3.61-5.48-1.01-10.95-2.02-16.43-3.03-2.19.24-4.22-.11-6-1.5v-10.5Z"/>
      <path class="cls-3" d="m-1.95,601.47c2.4-.95,4.18-3.19,7.08-3.13,1.14.02,1.06-1.14,1.19-2,.45-2.92,1.51-3.78,4.54-2.15,4.8,2.59,6.89,6.32,6.71,11.63-.11,3.24-.05,6.49-.02,9.74.02,2.63-1.21,3.81-3.86,3.93-5.61.25-5.62.32-7.43-4.65-.23-.64-.46-1.3-1.14-1.27-2.9.13-4.69-2.16-7.08-3.11v-9Z"/>
      <path class="cls-3" d="m53.54,695.87c-.15-3.82-1.28-4.87-4.98-4.34-3.05.44-5.71.43-7.85-2.5-1.11-1.52-3.1-2.28-5.33-2.15-2.93.18-5.52-.87-8.18-3.37,4.61-1.25,8.68-1.94,12.86-1.79,2.23.08,3.49-.17,3.97-2.98.85-4.99.28-9.94.44-14.91.07-2.29-1.69-2.4-3.42-2.39-5.2.02-10.39.02-15.59,0-4.18-.02-5.95-1.6-4.78-5.4,1.73-5.61,1.01-10.84.08-16.47-.95-5.71-.23-11.69-.23-17.56q0-10.06,10.03-10.06c1.87,0,3.75.05,5.62-.01,3-.11,6.32-2.98,6.8-5.88.19-1.15.07-2.56-1.17-2.88-4.38-1.12-3.28-3.75-2.02-6.52.15-.33.16-.73.24-1.09,3.54-.05,5.95,2.07,8.26,4.36,6,3.29,12.28,5.94,18.73,8.22.26-.2.51-.19.73.06,3.31,1.82,6.84,2.99,10.54,3.71,1.24-.45,2.46-.25,3.65.15,15.33,5.15,31.22,8.19,46.78,12.46,2.01.55,4.14.91,5.75,2.44,9.26,3.01,18.53,6.02,27.79,9.03,1.52-.21,2.82.12,3.74,1.45,2.92,1.92,6.36,2.52,9.54,3.78,7.57,3,15.16,5.94,22.74,8.91,1.11-.76,2.16-.23,3.2.18,20.48,7.89,41.17,15.25,61.22,24.21,13.44,6.01,26.46,12.86,39.52,19.66,14.5,7.55,29.08,14.96,43.77,22.14,14.8,7.24,29.46,14.76,44.58,21.33,1.27.55,2.52,1.16,2.93,2.67-1.91,3.12-7.02,4.81-10.75,3.18-2.22-.97-4.4-1.52-6.78-1.76-2.3-.24-4.85-.4-5.32-3.6-.17-1.17-1.24-1.03-2.11-.92-1.48.19-3,.11-4.45.46-2.79.68-5.11.16-7.06-2.1-1.68-1.94-3.31-2.33-4.27.69-.52,1.62-1.82,2.26-3.3,2.71-1.29.4-2.22,1.17-2.18,2.66.04,1.61.97,2.47,2.47,2.84,4.64,1.13,5.5,6.06,8.64,8.72.68.58.45,1.89-.39,2.7-4.92-.59-9.87-.99-14.76-1.8-13.45-2.22-26.86-4.66-40.38-6.52-8.45-1.17-16.77-3.25-25.21-4.49-12.75-1.87-25.22-5.22-38.03-6.79-6-.74-11.88-2.46-17.84-3.57-16.22-3-32.32-6.61-48.54-9.53-13.35-2.4-26.42-5.78-39.58-8.88-8.08-1.91-16.32-3.14-24.45-4.87-17.6-3.74-35.41-6.64-52.42-12.79-1.04-.38-2.16-.54-3.25-.81Z"/>
      <path class="cls-3" d="m402.98,740.93c.46.66,1,.71,1.44.04.78-1.21,1.78-1.98,3.48-1.97.17,1.56-.99,2.4-1.9,2.88-2.83,1.49-1.73,4.73-3.24,6.79-.42.58.53,1.41,1.17,1.64,3.75,1.33,1.53,3.13.06,4.08-2.89,1.88-3.77,4.32-3.28,7.52-8.57.07-16.97-.82-25.41-2.63-5.73-1.23-11.52-2.38-17.33-3.37.16-2.03-.27-3.77-2.47-4.44-1.28-.39-1.7-1.41-1.96-2.5-.59-2.41-2.06-3.62-4.53-3.54-2.79.09-2.68-2.15-2.96-3.86-.3-1.84.67-3.33,2.52-3.51,2.2-.21,3.32-.81,3.53-3.28.19-2.2,3.48-3.21,4.42-1.36,3.08,6.02,7.99,2.85,12.15,2.7,2.3-.09,4.2-1.05,2.98,2.53-.22.65.13,1.36.85,1.39,5.35.2,10.19,3.33,15.59,2.84,1.87-.17,3.97-.7,5.14-2.62,3.31-.76,6.49.41,9.74.67Z"/>
      <path class="cls-3" d="m484,686.29c1.99-.29,3.97-.59,5.96-.88,1.1-1.03,2.28-1.62,3.76-.76,5.83-.95,9.8,3.21,14.52,5.3,3.32,1.47,6.33,3.75,10.19,3.72.66,1.31,1.8-.08,2.81.5-.94,2.97-2.6,5.52-4.42,7.91-1.6,2.1-.98,2.83,1.25,3.44.7.19,3.05-.77,1.89,1.7-1.98.44-4.82-.11-5.68,1.73-1.09,2.34,1.82,3.35,3.16,4.86,3.07,3.47,3.03,3.5-1.47,6.23-.61.37-1.43.49-1.67,1.43.64,1.25,1.91,1.29,3.1,1.54,1.49.31,2.4,1.4,2.73,2.78.42,1.76-1.4,2.1-2.29,2.42-2.75,1-5.55,2.01-8.34,2.81-4,1.13-4.95-2.88-6.66-5.24-.67-.92-.63-2.35-.91-3.55-1.41-1.65-1.61-3.32-.84-5.47,1.35-3.75-.83-6.81-4.8-7.23-1.52-.16-2.84-.79-4.11-1.58-5.02-1.37-8.6-4.34-10.66-9.19-.87-2.04-.49-3.48,1.14-4.91,3.59-3.14,3.53-3.78-.24-6.85.35-.61.89-.82,1.56-.72Z"/>
      <path class="cls-3" d="m25.81,587.17c-3.44,3.98-8.98,3.55-10.98-.83-.5-1.1-.95-2.22-2.05-3.01-3.92-2.81-3.89-2.85.27-5.11.25-.02.5-.04.76-.07.82-.31,1.2.14,1.44.83,3.11,3.26,7.56,4.79,10.57,8.18Z"/>
      <path class="cls-3" d="m33.31,591.79c1.1-.09,1.79.48,2.24,1.41-1.16,3.96-5.11,4.23-7.97,5.91-.76.45-1.98.24-2.73-.62-.74-.85-.08-1.62.25-2.39,1.52-3.6,3.13-4.37,6.75-3.23,1.01.32,2.14.85,1.46-1.08Z"/>
      <path class="cls-3" d="m465.76,711.71c-4.34-.01-5.4-1.68-3.54-4.82.65-1.09.64-1.81-.41-2.49-.94-.61-1.9-1.18-2.83-1.79-.95-.62-1.99-1.32-1.84-2.59.17-1.44,1.62-.71,2.38-1.14,3.76-2.13,8.18-2.84,11.7-5.51.68-.51,1.7-1.52,2.62-.6.87.87-.1,1.86-.46,2.73-1.06,2.55-2.88,4.62-4.46,6.84-.63.88-2.18,1.44-1.79,2.61.44,1.34,2.18.69,3.25,1.23.66.33,1.77-.93,2.19.45.3.99-.5,1.62-1.12,2.2-1.76,1.66-3.82,2.74-5.68,2.88Z"/>
      <path class="cls-3" d="m492.19,707.95c2.31.26,4.63.45,6.93.79,2.05.3,2.75,1.69,2.87,3.67.2,3.28-1.08,6.54-.05,9.81-.88-.43-1.73-.94-2.64-1.26-1.47-.53-2.8-.3-3.25,1.42-.47,1.83-1.53,3.34-2.38,4.96-.6,1.14-1.3,2.5-2.67,2.17-2.14-.51-3.52-2.33-4.52-4.15-.63-1.14-.61-2.69.3-3.9.7-.92,1.72-.72,2.74-.6,3.54.41,7,.5,8.68-3.57.29-.7.67-.84,1.38-.86,1.85-.05,1.61-.98.85-2.18-.59-.94-1.07-1.95-1.49-2.98-.3-.71-.83-1.13-1.39-.69-3.68,2.88-4.06-.8-5.37-2.64Z"/>
      <path class="cls-3" d="m494.34,714.72c-.37,1.22-.98,2.43-2.15,3.23-1.14.77-1.85-.27-2.59-.81-2.06-1.49-4.45-2.77-4.8-5.69-.06-.49.27-1.14.8-1.05,2.79.43,5.6.83,7.92,2.69.51.41.92.81.82,1.63Z"/>
    </g>
  </g>
  <path class="cls-3" d="m390.15,739.43c6.16,1.21,13.32,2.17,18.03-1.98,2.69-2.38,3.93-5.95,5.5-9.18,5.81-11.95,16.93-20.27,27.65-28.12,10.88-7.97,22.5-16.23,35.93-17.44,16.25-1.47,31.32,7.58,46.95,12.27,5.49,1.65,11.26,2.83,16.08,5.93,6.29,4.04,10.17,10.81,14.74,16.72,5.32,6.88,11.83,12.83,19.16,17.52,8.89,5.69,18.86,9.45,28.82,12.95,20.39,7.16,41.1,13.38,62.06,18.63-4.2,7.01-12.2,10.88-20.13,12.88-9.33,2.36-19.04,2.67-28.66,2.74-40.08.28-80.06-3.46-119.97-7.1-14.1-1.29-28.29-2.57-42.38-1.26-16.91,1.57-34.46,6.77-50.43.99-3.14-1.14-6.28-2.82-8-5.67-3.39-5.6-.01-12.71,3.33-18.34"/>
</svg>