<?xml version="1.0" encoding="UTF-8"?>
<svg id="Layer_1" data-name="Layer 1" xmlns="http://www.w3.org/2000/svg" xmlns:xlink="http://www.w3.org/1999/xlink" viewBox="0 0 1364 768">
  <defs>
    <style>
      .cls-1 {
        fill: none;
      }

      .cls-2 {
        clip-path: url(#clippath);
      }

      .cls-3 {
        fill: #91b3d6;
      }

      .cls-4 {
        fill: #80afcb;
      }

      .cls-5 {
        fill: #7ca5c4;
      }

      .cls-6 {
        fill: #86b5d8;
      }

      .cls-7 {
        fill: #93afd0;
      }

      .cls-8 {
        fill: #95b8d6;
      }

      .cls-9 {
        fill: #899dbd;
      }

      .cls-10 {
        fill: #89aece;
      }

      .cls-11 {
        fill: #89accb;
      }

      .cls-12 {
        fill: #89b6d4;
      }

      .cls-13 {
        fill: #76accf;
      }

      .cls-14 {
        fill: #76abd0;
      }

      .cls-15 {
        fill: #79aaca;
      }

      .cls-16 {
        fill: #778db7;
      }
    </style>
    <clipPath id="clippath">
      <rect class="cls-1" x="-.5" y="-.5" width="1364.5" height="768.5"/>
    </clipPath>
  </defs>
  <g class="cls-2">
    <g>
      <path class="cls-13" d="m765.24,462.99c-9.54,11.68-13.91,26.75-16.21,41.66-6.17,39.97,2.87,84.65,33.12,111.49,21.92,19.45,52.11,27.2,81.39,28.34s58.43-3.64,87.63-6.11c57.29-4.85,115.07-.8,172.32-6.05,46.54-4.27,92.42-14.66,139.05-17.71,20.84-1.37,41.87-1.27,62.42-5.05,20.55-3.77,41.02-11.84,55.4-27,26.61-28.05,25.88-71.53,23.07-110.1-1.2-16.47-3.46-34.88-16.37-45.17-10.12-8.06-24.05-8.79-36.98-9.17-35.21-1.04-73.97-.89-100.79,21.94-9.19,7.82-16.31,17.87-25.68,25.48-26.36,21.4-64.04,19.33-97.84,16.17,5.49-.34,10.98-.68,16.47-1.02-49,9.25-100.25,6.32-147.87-8.47-9.37-2.91-18.62-6.28-27.33-10.79-7.24-3.75-14.22-8.33-22.17-10.12-24.88-5.59-50.13,17.55-74.61,10.4"/>
      <path class="cls-13" d="m764.18,461.93c-12.04,15.04-16.35,34.63-17.93,53.45-1.51,17.95,0,36.33,5.17,53.63,4.97,16.59,13.47,32.22,25.77,44.52,13.45,13.44,30.87,22.16,49.12,27.05,43.15,11.56,87.76,1.98,131.34-1.22,47.67-3.5,95.53-1.32,143.23-3.91,47.12-2.56,93.27-12.41,140.1-17.45,23.31-2.51,46.8-2.33,70.09-4.92,19.81-2.2,39.86-7.01,56.69-18.11,14.97-9.87,25.57-24.37,31.43-41.24,6-17.26,7.28-35.89,7.05-54.03-.12-9.25-.65-18.49-1.34-27.71-.64-8.65-1.51-17.42-4.09-25.74-2.4-7.73-6.42-15.03-12.84-20.13-7.17-5.7-16.22-7.86-25.16-8.78-9.65-.99-19.48-.99-29.18-1.04-9.5-.04-19.01.22-28.47,1.21-17.8,1.86-35.75,6.36-50.65,16.66-8.15,5.63-14.64,12.96-21.37,20.14-6.99,7.46-14.52,13.98-23.75,18.49-17.17,8.39-36.88,9.79-55.69,9.29-9.33-.25-18.64-1.02-27.93-1.88v3c5.49-.34,10.98-.68,16.47-1.02-.13-.98-.27-1.96-.4-2.95-38.81,7.25-78.94,6.96-117.63-.92-19.2-3.91-38.93-9.14-56.41-18.18-7.59-3.93-14.95-8.8-23.47-10.46-7.21-1.41-14.57-.57-21.65,1.17-16.87,4.13-34.22,14.35-52.01,9.43-1.86-.52-2.66,2.38-.8,2.89,15.42,4.26,30.56-2.34,45.06-6.97,7.53-2.41,15.35-4.53,23.32-4.22,9.66.38,17.77,5.28,26.06,9.72,16.87,9.04,35.73,14.41,54.34,18.51,19.13,4.21,38.67,6.61,58.25,7.15,22.03.61,44.08-1.18,65.74-5.22,1.65-.31,1.29-3.05-.4-2.95-5.49.34-10.98.68-16.47,1.02-1.95.12-1.91,2.82,0,3,34.37,3.2,74.38,5.7,101.9-19.19,7.42-6.71,13.55-14.7,20.98-21.41,6.9-6.23,14.98-11.06,23.61-14.5,16.96-6.75,35.48-8.47,53.59-8.77,9.13-.15,18.27.04,27.4.38,9.74.36,20.09,1.11,28.77,5.98,16.39,9.21,18.69,29.88,19.93,46.76,2.5,34.09,4.33,73.69-17.2,102.6-26.2,35.19-74.32,35.52-113.88,37.56-45.29,2.33-89.7,11.79-134.68,16.89-45.54,5.16-91.36,3.94-137.09,4.99-22.82.52-45.52,1.95-68.21,4.36-22.53,2.39-45.16,5.05-67.86,4.1-37.45-1.57-75.84-14.73-96.63-47.82-18.96-30.17-22.11-70.22-13-104.21,2.6-9.69,6.61-19.01,12.92-26.88,1.19-1.49-.91-3.63-2.12-2.12h0Z"/>
    </g>
    <g>
      <path class="cls-13" d="m680.49,498c1.95.93,1.41,3.04,2.1,4.57.92,2.03,1.61,4.17,2.31,6.3.46,1.4,1.21,2.27,2.73,1.63,1.33-.56,2.75-.98,2.09-3.2-.97-3.29-1.83-6.71-.31-10.19,1.26.26,1.65,1.37,1.39,1.92-1.15,2.44.91,4.32.9,6.53,0,1.21.18,2.4,1.8,2.14,1.38-.23,2.71-.7,2.69-2.52-.02-1.87-.05-3.74,0-5.61.03-.91-.41-1.98.74-2.78,1.25,1.44,1.46,3.08,1.51,4.8.06,2.03.97,2.7,2.9,1.72,8.5-4.31,17.58-7.56,25.25-13.4,4.05-3.08,6.15-7.71,8.75-11.9,4.79-7.7,10.73-13.61,20.38-14.61,3.43-.36,6.78-1.4,10.17-2.14v55.49c-.86,1.25-2.14,2.5,0,3.75v3c-.65,1.18-.81,2.59-1.89,3.57-1.4,1.27-2.55,2.32.26,3.69,2.34,1.15,1.04,3.25,0,4.79-1.05,1.58-2.78,2.48-4.24,3.63-2.34,1.85-2.59,3.43.24,5.14,3,1.82,3.07,3.15.26,5.26-2.68,2.01-4.82,4.27-5.54,7.55.42.65.91.46,1.39.37,1.26-.25,2.77-1.52,3.68.13.8,1.45-.14,2.89-1.22,4.01-1.04,1.07-2.24,1.98-3.39,2.94-.82.68-1.4,1.43-.7,2.56,2.24,3.57.22,4.9-2.97,5.61-2.84-1.3-5.67-.83-7.63,1.42-.99,1.14-1.87,2.35-3.36,2.83-1.27.41-2.72.59-2.83-1.22-.18-2.68-2-2.35-3.72-2.38-1.86-1.1-3.37-2.41-3.01-4.88-.18-.27-.36-.53-.54-.8-1.1-2-2.45-3.68-.44-6.3.64-.83-1.49-3.81-2.75-5.97-1.62,1.36-2.22,3.17-3.32,4.58-.16.21-.41.41-.37.58q.85,4.13-1.04,7.23c-.39.64-.49,1.42-.97,2.01-.79.54-2.36.07-2.51,1.17-.56,4.28-3.72,4.04-6.74,4.17-3.59-1.51-3.95-2.07-2.08-4.91,1.15-1.75.01-2.75-.55-4.06-.81-1.89-2.28-3.86-.77-5.86.41-.55,1.95-.24.61-1.48-.85-.79-1.03-2.71-2.54-2.25-1.16.35-1.9,1.89-1.83,3.06.17,2.73-2.74,5.53.32,8.26.72.65.33,2.16-.71,2.98-1.91,1.27-4,2.12-6.3,2.02-2.82-.12-2.92,1.69-2.9,3.67.02,1.46,1.58,3.4-.81,4.15-2.54.79-1.98-1.92-2.85-3.03-.24-.3-.48-.56-.84-.71-1.03-.57-.66-1.74-1.08-2.57-1-2-1.99-4-2.99-6-1.9-1.33-3.19-2.75-.48-4.53,1.61-1.05.72-2.15.12-3.2-.93-1.62-2.13-3.12-2.39-5.03-.23-1.67.13-2.84,2.35-1.84-.35-2.54-2.26-4.34-2.7-6.76-1.19,2.49-2.1,4.99-2.73,7.66-.58,2.45-1.64,5.1-5.04,5.08-1.5-.62-3-.96-4.69-.9-3.92.14-5.63-2.24-4.03-5.77,3.71-8.19-.41-10.57-8.39-10.29-4.09.14-7.82.69-10.88-2.96-1.57-1.87-4.78-1.4-6.48-3.46-1.05-2.26-.64-4.65-.55-7,.03-.84.12-1.9,1.14-2.14,1.04-.24,1.46.71,1.91,1.46.8,1.33.2,3.68,2.1,4.06,1.72.35,3.27-1.06,4.78-1.88,5.81-3.15,11.99-5.61,17.46-9.39,1.47-.87,2.9-1.8,4.34-2.71,3.68-1.73,4.94-4.57,4.99-8.66.05-4.12.39-8.39,2.43-12.21Z"/>
      <path class="cls-14" d="m642.28,536.23c3.09,1.58,6.72,1.79,9.15,5.1,1.42,1.92,4.74,1.28,7.08.51,3.74-1.22,6.73,1.02,9.98,1.84,1.83.46,2.15,6.05.73,8.56-.85,1.51-2.2,2.91-.85,4.72,1.27,1.7,2.83,1.31,4.63.7,1.82-.61,2.83.98,3.84,2.22-.1.89-.81,1.79.05,2.66.57,1.48,2.56,2.4,1.81,4.42-.16.72-.5,1.3-1.24,1.56-1.55,1.48-3.09,2.95-4.64,4.43-3.76.59-4.92-.45-5.39-4.88-.44-4.12-1.03-4.65-5.04-4.55-3.75.09-4.91,1.06-4.84,4.99.12,6.79.74,13.58-.29,20.35-.47,2.18-2.29,3.62-1.97,6.51.32,2.97-3.51,4.76-5.65,7.06.42.18.65.37.83.33,1.38-.3,3.02-1.82,4.06-.65,1.21,1.36-.7,2.63-1.39,3.84-.86,1.51-1.92,2.91-2.89,4.36-.38.57-2.01.65-.75,1.85.7.66,1.58.94,2.29.1.63-.74,1.15-1.5,1.97-.36.66.91.03,1.62-.6,2.28-2.03,2.15-4.59,3.81-5.77,6.76-.62,1.54-1.05,2.68,1.18,2.72,2.24.03,1.71,1.16,1.07,2.39-1.26,2.42-3.72,3.61-5.64,5.33-.61.55-1.86.5-2.47-.14-2.63-2.77-7.18-5.14-6.92-8.81.27-3.82-1.21-6.02-2.89-8.73-.59-.95-.36-2.4-.5-3.65,1.29.28,2.21,1.7,3.8,1.13-2.73-5.47-5.44-10.91-8.15-16.36-1.67,5.92-2.64,11.58-5.41,16.86.61.03.87.12,1.05.04,1.13-.46,2.4-2.58,3.35-.95,1.03,1.77.02,4.29-1.8,5.15-2.88,1.36-3.54,3.94-4.69,6.35-.74,1.55-.43,2.68,1.29,3.19,3.21.96,1.93,2.55.46,3.91-2.61,2.41-4.2,5.44-5.89,8.93,2-.38,3.27-2.41,5.57-1.44-.5,3-3.46,3.46-5.28,5.01-.89.76-2.75.82-2.51,2.37.23,1.49,1.8,1.4,3.03,1.47.73.04,1.66-.09,1.38,1.09-.45,1.93-1.61,4.19-3.47,3.8-3.25-.68-5.84.41-8.59,1.51-2.21.88-3.03-.6-3.46-2.24-.65-2.46,1.44-1.79,2.57-1.87,1.91-.13,3.65-.51,5.46-1.99-2.63-1.46-5.48-1.9-7.28-4.75-2.57-4.08.89-4.95,3.13-6.87-4.78-1.27-5.61-5.46-7.93-8.44.96-.7,1.65-.08,2.35-.03,2.76.23,3.27-.83,2.09-3.21-2.26-4.56-5.75-8.42-7.64-13.19,1.36-.84,2.53.62,3.94-.14.28-1.79-1.22-2.68-2.21-3.83-1.29-1.49-3.41-3.01-2.64-4.99.61-1.59,3.13-.41,4.78-.98-2.64-6.18-6.17-11.9-8.13-18.31-.75-1.94.39-3.63.73-5.42.23-1.21,1.01-1.99,2.34-2.01,1.25-.02,2.11.61,2.7,1.68.68,1.24.42,3.02,1.96,3.72.53-.19.88-.55.81-.86-.88-4.15.8-7.14,3.53-10.22,1.52-1.71,2.48-3.47,4.98-3.86,2.72-.43,3.2-2.68,2.93-4.86-.48-3.93,1.48-6.63,3.99-9.18.75-.76,1.54-1.32,2.63-.83.97.45,1.05,1.35.85,2.24-.29,1.27-.31,2.28,1.41,2.24,1.33-.03,2.53-.32,2.85-1.85.26-1.24-.47-1.9-1.59-2.08-2.88-.45-3.46-2.06-2.38-4.54.49-1.12.31-2.18-.15-3.25.23-1.55,1.04-2.46,2.69-2.44,1.52.54,2.54,1.59,2.86,3.17.47,2.39,1.97,2.92,4.13,2.54,4.45-.8,8.9-.7,13.36-.03,1.42.21,3.37.75,3.94-1,.62-1.9-1.52-1.86-2.64-2.38-1.82-.84-2.72-2.09-2.33-4.14.36-1.1,1.07-1.73,2.27-1.7Z"/>
      <path class="cls-14" d="m540.23,631.43c-2.7-3.11-3.6-7.16-5.29-10.89-3.2,4.03-3.96,9.48-8.89,11.82-1.38-1.71.59-3.1.48-4.84-.25-3.94-2.13-6.99-4.03-10.14-.02-.36.04-.71.17-1.05,1.4-1.87,3.43-2.9,5.47-3.79,13.83-6.05,24.12-16.06,32.42-28.45,2.12-3.16,3.81-6.71,6.88-9.18,2.11.04,2.51-1.25,2.33-2.99.47-1.32,1.25-2.24,2.79-2.22,1.42.49,2.93,1.11,3.81,2.23,2.34,2.96,5.04,3.35,8.57,2.47,3.27-.82,5.46,3.22,4.11,7.18-1.71,4.84-1.51,10.35-5.09,14.54-.3.35-.67,1.11-.53,1.27,2.54,2.89.2,4.97-1.13,7.21-1.69-2.34-3.95-1.56-5.23-.12-2.97,3.34-6.91,3.3-10.71,3.95-1.14,4.39-2.3,8.77-6.28,11.8.21.17.42.34.64.51.6-.39,1.2-.78,1.9-1.23.97,5.41-.13,10.1-3.78,14.11-3.92-3.24-8.82-2.25-13.29-3.18-2.03-.42-3.47,1.1-5.31,1.01Z"/>
      <path class="cls-13" d="m589.04,581.58c.44-1.48-.15-2.91-.67-4.14-.71-1.68-1.73-3.18-4.25-2.09-2.97,1.28-5.78,1.23-7.62-2.24-.81-1.52-3.25-1.32-4.04-3.11-.75-.82-.43-1.7.1-2.38,3.31-4.18,3.99-9.3,5.21-14.24.22-.91.08-2.26,1.4-2.32,1.4-.07,1.69,1.27,2.04,2.31,1.54,4.5,1.5,4.46,6.05,2.59,4.14-1.71,8.06-3.93,12.3-5.41,2.98-1.04,4.38-2.89,4.19-6.15-.16-2.59-.32-5.24.49-7.79.37-1.18.78-2.64,2.27-2.61,1.53.03,1.73,1.56,2.05,2.73.29,1.08.5,2.18.68,3.28.6.71-.87,2.77,1.52,2.28-.19-2.23-.47-4.43-.24-6.65.11-1.09.14-2.48,1.51-2.64,1.54-.18,1.95,1.22,2.36,2.4.2.58.33,1.21.31,1.82-.07,2.56,1.29,4.09,3.51,5.02,2.14-.14,2.21.74,1.43,2.46-1.53,3.41-1.47,3.54,2.17,4.28,1.56.32,1.67,1.25,1.63,2.43-.06,1.53-.23,3.11-2.09,3.5-.96.2-1.99.11-2.99.08-2.02-.06-3.98-.18-1.56-2.78.63-.68,1.01-1.62-.04-2.2-.8-.45-1.23.33-1.76.9-2.63,2.79-4.23,5.79-3.62,9.88.45,2.97-1.25,4.69-4.38,4.71-.25,0-.5.01-.75.02-.79.03-1.95.38-1.83.96.83,4.22-6.25,4.21-4.6,8.81.33.91.33,1.95.38,2.94.06,1.29-.05,2.67-1.68,2.87-1.61.2-2.01-1.23-2.48-2.35-.24-.55-.28-1.21-.32-1.82-.08-1.27-.56-2.19-1.93-2.33-1.6-.17-1.64.96-1.88,2.14-.32,1.57-.97,3.07-1.48,4.6-.46.09-.91.19-1.37.28Z"/>
      <path class="cls-15" d="m753.89,579.65c-1.73.77-3.47,1.55-5.2,2.32-.33.44-.84.36-1.3.44.12.21.33.06.48.09,1.8.29,3.07,1.52,4.46,2.51.58,1.03,2.36-.11,2.64,1.46-2.65,2.66-3.41,7.05-8.78,8.18,2.93,1.32,4.8-.71,6.73.35-.94,2.58-2.53,5.07-2.01,8.04.04.24.02.71.01.72-3.03.19-3.77,4.86-7.62,3.72-3.27-.97-4.92-3.19-5.86-6.17-.38-1.2.34-1.46,1.43-1.4,1.59.09,3.19.02,5.72.02-2.76-1.93-5.05-3.01-6.89-4.72-2.17-2.01-3.47-3.82.52-5.61-1.66-1.86-4.54-2.21-5.02-5.18,4.17-.07,4.09-1.73,1.57-4.41-1.09-1.16-1.79-2.68-2.67-4.04-.96-2.3,1.55-1.96,2.27-2.98,3.93-1.28,4.39-.93,4.62,3.59,1.35.11,2.77-.45,3.23-1.44,1.32-2.82,3.74-3.3,6.31-4.26,2.17-.81,2.48.26,3.25,1.43-.68.24-1.34.51-2.03.7-1.1.31-2.89.2-2.8,1.6.11,1.65,1.83,2.17,3.36,2.09,1.94-.1,3.86-.45,5.79-.69.5,1.98-.47,3.07-2.24,3.67Z"/>
      <path class="cls-14" d="m566.34,608.42c.49-.34.97-.96,1.46-.97,5.56-.06,9.01-4.51,13.81-6.53.6,1.16-.38,2.66.67,3.68-.4,1.16-1.67,1.87-1.7,3.26.15.12.3.31.49.39,1.62.68,4.04-1.85,4.63-.02.8,2.46.11,5.4-1.58,7.74-.29.4-.67.74-1.06,1.05-1.48,1.17-3.06,2.64-2.56,4.52.5,1.89,2.52,2.52,4.89,2.58-2.42,2.28-3.29,5.48-6.55,6.62-.75.26-.98,1.77.5,2.22,1.1.34,2.14.73,2.71,1.87-1.09,1.55-3.9,2.21-3.44,4.46.48,2.34,3.36.64,4.93,2-1.2,3.53-4.41,4.25-7.45,5.14-.72.21-1.52-.02-1.85-.87-.29-.74.06-1.08.78-1.32,2.07-.7,1.21-1.65.2-2.65-.89-.87-1.79-1.74-2.55-2.72-.93-1.19-1.28-2.68.12-3.62,2.69-1.8,1.17-3.08-.26-4.55-1.04-1.07-2.16-2.12-2.93-3.38-.7-1.15-1.93-2.73.84-3.26,2.26-.44,1.22-2.06.79-3.2-1.57-4.17-3.25-8.29-4.9-12.43Z"/>
      <path class="cls-14" d="m674.48,575.12c1.56.52,2.87,1.07,1.13,2.93-.84.9-1.6,1.93-2.18,3.01-.69,1.28-3.14,2-1.52,4.08,1.69,2.17,3.52,1.54,5.99-.82-1.9,4.85-5.43,6.81-8.14,9.42,1.04,1.94,4.25.86,4.44,2.7.18,1.69-2,2.96-3.13,4.43-.87,1.12-1.55,2.24-.24,3.61,1.27,1.33.39,2.28-.86,2.9-4.35,2.15-4.38,2.48-.28,5.52-1.41,1.37-3.14,2.47-3.8,4.44-.33.98-.74,1.88-2.09,1.52-1.01-.27-1.87-.82-2.37-1.7-.73-1.27.53-1.82,1.21-2.31,2.65-1.93,2.51-3.41-.07-5.46-1.48-1.18-4.93-3.26-.01-4.98,1.37-.48.14-1.51-.18-2.12-1.22-2.28-2.47-4.52-2.97-7.21,1.64.12,2.1,1.98,3.88,1.88-.78-1.85-2.73-2.49-3.17-4.22-1.14-4.21-.16-8.41.07-12.6.07-1.26.62-2.8,1.92-2.94,4.17-.46,8.01-2.9,12.38-2.06Z"/>
      <path class="cls-13" d="m674.48,575.12c-3.84.56-7.3,2.72-11.35,2.55-2.04-.08-2.05,1.82-2.17,3.29-.32,3.92-.58,7.84-.86,11.76-1.79-.65-.27-3.75-2.83-3.84-.71-1.22-1.11-2.59-.8-3.94,1.28-5.67-.28-11.31-.06-16.97.09-2.2.05-4.59,2.61-5.15,2.86-.63,5.98-1.14,8.66.6,1.44.93.76,2.78.71,4.2-.11,3.18.85,5.3,4.43,5.35-.15,1.25,1.25,1.32,1.65,2.15Z"/>
      <path class="cls-4" d="m704.46,570.78c-.74,1.12-1.4,2.3-2.24,3.33-1.24,1.53-2.88,2.81-.38,4.75,1.14.88.13,2-.46,2.92-4.6,4.15-8.33,3.48-11.9-2.13-.46-1.83,1.41-1.86,2.13-2.77,1.63-.28,1.79.84,1.95,2.01.1.77-.13,1.99,1.34,1.4,1.15-.46.96-1.22.31-2.04-.22-.28-.36-.65-.44-1-.34-1.4.43-2.64.62-3.97.36-2.57,2.13-.69,3.18-1.03,1.92-.63,3.93-.99,5.9-1.46Z"/>
      <path class="cls-5" d="m712.7,580.46c.07-.87-.31-1.64.8-2.44,2-1.46,1.32-2.8-.84-3.54.84-.23,1.84-.87,2.48-.61,2.47.99,2.49-.66,2.8-2.23.46-2.3,1.63-3.23,3.85-1.75,0,0,0,0,0,0-.07,1.79,0,3.58.5,5.32.21,1.42.83,2.68,1.59,3.88-.98.92-2.05,1.75-2.91,2.77-3.02,3.57-4.03,3.61-7.18.1-.41-.45-.72-.98-1.08-1.48Z"/>
      <path class="cls-14" d="m647.42,634.83c-.26,1.83-2.19,2.79-3.75,3.9-2.28,1.62-3.97-.24-5.53-1.52-1.59-1.3-3.24-2.73-2.88-5.18.2-1.36,1.19-1.58,2.2-1.21,2.73,1.02,5.4,2.15,8.43,1.92.92-.07,1.67.49,1.53,2.08Z"/>
      <path class="cls-10" d="m698.86,591.64c-1.08,1.68-1.36,3.78-2.84,5.25-.59-.17-1.2-.3-1.78-.51-2.12-.77-2.73-1.88-.49-3.23,2.41-1.45,2.38-2.49-.17-3.77-.84-.42-2.24-1.18-1.84-2.46.49-1.57,2.06-.56,2.85-.42,2.38.43,4.57.06,6.79-.66-.02.39-.03.77-.05,1.16-.15,1.91-.89,3.5-2.47,4.65Z"/>
      <path class="cls-14" d="m616.33,658.59c-2.98,2.1-5.76,1.51-8.41,1.4-2.06-.08-2.34-1.82-2.54-3.47-.24-1.97,1.39-1.37,2.35-1.9,4.73-2.62,5.56,2.33,8.61,3.96Z"/>
      <path class="cls-3" d="m739.11,612.73c4.35.26,6.94-4.97,11.82-3.74-4.76,7.86-6.5,8.46-11.82,3.74Z"/>
      <path class="cls-14" d="m635.75,640.38c3.44,1.27,6.36,1.75,9.39,1.75-.13.52-.11.85-.26.95-1.32.97-4.22.2-4.12,2.27.11,2.33,3.47,1.64,5.02,3.48-2.88,1.01-5.21,1.51-6.63-2.04-.8-2.01-2.02-3.84-3.4-6.4Z"/>
      <path class="cls-8" d="m739.06,619.98c3.95-.99,7.25,1.42,11.18,1.76-4.58,4.23-7.22,3.75-11.18-1.76Z"/>
      <path class="cls-11" d="m714.93,590.97c-.51-.46-1.02-.93-1.53-1.39-.65-1.36-1.23-2.54,1.26-2.48,2.26.05,4.53-.27,6.75-.43-1.68,4.96-2.84,5.75-6.48,4.3Z"/>
      <path class="cls-6" d="m745.03,628.71c1.22.91,3.7-.03,3.78,2.17.05,1.36-1.39,3.2-2.87,2.73-1.72-.54-4.21-1.42-4.3-3.54-.08-1.74,2.35-.35,3.39-1.36Z"/>
      <path class="cls-14" d="m615.08,677.63c-3.72.79-7.13,1.73-9.58-2.61,3.43.35,7.08-1.98,9.58,2.61Z"/>
      <path class="cls-14" d="m615.66,667.84c-2.33,1.94-6.42,1.45-8.11-.82-.49-.66-.37-1.12.17-1.57,1-.84,2.06-1.52,3.34-.55,1.45,1.09,2.78,2.35,4.61,2.94Z"/>
      <path class="cls-14" d="m718.49,594.21c.71,1.87-.44,2.89-.92,4.12-.39.99-.89,2.12.24,3.01.49.38,2.3-.14,1.05,1.34-.69.81-1.53.04-2.19-.59-3.74-3.56-3.21-5.94,1.82-7.88Z"/>
      <path class="cls-13" d="m723.11,574.44c-.46.26-.92.52-1.39.79-.78-1.79-2.52-3.59.05-5.35,1.45.04,2.9.08,4.35.12.59,2.57-1.77,3.12-3.02,4.44Z"/>
      <path class="cls-12" d="m576,649.65c1.76,1.32,4.91.25,5.45,2.81.24,1.13-1.66,2.45-2.96,2.28-2.83-.37-1.71-3.24-2.49-5.08Z"/>
      <path class="cls-7" d="m744.85,644.32c-3.15-4.99-3.05-5.36,1.72-6.61-.94,2.11-1.95,4.01-1.72,6.61Z"/>
      <path class="cls-12" d="m612.38,686.65c-2.49.98-3.75-.25-4.7-2.44,2.49-.8,3.9.14,4.7,2.44Z"/>
      <path class="cls-14" d="m666.34,622.63c-.09,2.66-1.5,3.89-2.11,5.93-2.16-3.26-.31-4.29,2.11-5.93Z"/>
      <path class="cls-12" d="m608.27,697.54c-.54-1.74-3.1-4.27,1.5-4.47-.16,1.72-1.69,2.82-1.5,4.47Z"/>
      <path class="cls-16" d="m701.25,600.04c-1.32,2.04-2.88,2.57-4.82.77,1.61-.22,3.11-1.15,4.82-.77Z"/>
      <path class="cls-9" d="m593.88,596.6c-2.75-1.3-2.87-2.79-2.49-5.28.89,1.89,1.49,3.16,2.49,5.28Z"/>
      <path class="cls-13" d="m620.38,539.88c.15-3.13-.15-6.33,1.34-9.55,1.29.64,1.58,1.78,1.85,2.93.9,1.58,1.68,3.19,1.58,5.77,1.45-1.62.89-3.35,1.95-4.31.29-1.99.57-3.97.86-5.95.49-.26.99-.53,1.48-.79,2.06,2.19,2.12,5.18,3.22,8.34.15-3.15-1.32-5.85.43-8.34.59-.66,1.19-1.32,1.82-2.01,1.2,3,2.36,5.9,3.51,8.8-.02,1.55-.22,3.24,2.23,2.86-.25,2.46.83,3.79,3.34,3.83,1.85.03,2.73.89,2.69,2.76-.05,1.98-1.23,2.68-2.95,2.47-6.04-.74-12.06-1.11-18.11-.01-1.48.27-3.05-.37-2.82-2.1.32-2.33-1.53-3.2-2.43-4.71Z"/>
      <path class="cls-13" d="m639.39,565.55c-2.62-.38-6.15-.9-9.69-1.41-2.3-.33-2.55-1.9-2.53-3.82.02-1.93.62-3.12,2.76-3.11,1.95.01,2.56-1.16,2.52-2.92-.06-2.92,1.59-3.95,4.28-3.82.62.03,1.25-.06,1.86.02,2.53.33,6.26-1.35,7.35.94,1.57,3.3,2.2,7.41,1.24,11.21-.92,3.65-4.22,2.69-7.79,2.91Z"/>
      <path class="cls-13" d="m676.68,562.46c.89-.77,2.17-1.42,2.79-.26.95,1.76.3,3.55-1.21,4.92-1.34-.01,1.4-3.18-2.01-2.29-1.55.41.6-1.45.43-2.37Z"/>
      <path class="cls-13" d="m567.95,575.22c.72-1.01.86-2.48,2.28-2.93,1.07,2.41.86,3.81-2.28,2.93Z"/>
    </g>
    <path class="cls-13" d="m766.4,464.12c22.22-5.04,45-10.16,67.92-7.8,21.3,2.19,42.28,11.52,63.92,6.9,18.77-4.01,36.72-17.51,56.27-8.98,8.27,3.61,15.33,9.42,23.35,13.48,8.8,4.46,18.12,5.25,27.79,6.14,5.62.52,11.08,1.42,16.45,3.19,4.93,1.62,9.7,3.68,14.58,5.44,10.1,3.64,20.63,5.1,31.34,5.01,22.03-.19,43.63-5.71,65.67-5.97,21.35-.25,43.02,2.59,64.03-2.51,8.87-2.16,17.54-5.71,24.83-11.28,7.65-5.85,12.75-13.9,18.69-21.32,6.44-8.04,14.23-13.79,23.86-17.5,9.75-3.76,20.16-5.93,30.43-7.72,22.27-3.88,45.08-4.71,67.58-2.54,5.67.55,11.31,1.3,16.93,2.23,1.89.31,2.7-2.58.8-2.89-22.02-3.63-44.44-4.47-66.65-2.31-10.96,1.06-21.85,2.81-32.58,5.28-9.23,2.12-18.52,4.78-26.79,9.51-8.35,4.77-14.26,11.81-19.96,19.39-6.15,8.19-12.52,15.48-21.72,20.32-18.81,9.89-40.83,9.25-61.45,8.64-11.48-.34-22.91-.49-34.36.63-11.15,1.1-22.21,2.94-33.35,4.08s-22.46,1.62-33.5-.37-20-6.87-30.23-9.81-21.31-2.1-31.73-4.73c-9.18-2.32-16.76-8.08-24.75-12.87-7.44-4.46-15.38-7.76-24.21-7.44-9.59.35-18.6,4.13-27.47,7.44-10.1,3.77-19.99,6.29-30.87,5.63s-22.34-3.74-33.42-5.94c-22-4.37-43.61-2.34-65.43,2.13-5.61,1.15-11.19,2.41-16.77,3.67-1.88.43-1.09,3.32.8,2.89h0Z"/>
    <path class="cls-13" d="m1005.46,476.27c1.74-.17,3.42.11,5.13.4,1.81.31,3.61.65,5.41,1.01,3.6.73,7.18,1.56,10.73,2.49,1.87.49,2.67-2.4.8-2.89-3.69-.97-7.41-1.83-11.15-2.58-1.8-.36-3.61-.69-5.42-1s-3.65-.62-5.51-.44-1.92,3.19,0,3h0Z"/>
    <path class="cls-13" d="m771.36,464.36c23.39-.88,46.79-1.04,70.2-1.03,6.64,0,13.28.02,19.92.03,1.66,0,2.07-2.55.4-2.95-21.41-5.05-43.73-7.26-65.63-4.38-6.17.81-12.27,2.01-18.28,3.64-1.59.43-1.33,3.05.4,2.95,9.21-.56,18.43-1.12,27.67-1,4.52.06,9.04.32,13.57.31s9.05-.33,13.57-.61c5.17-.32,10.35-.56,15.52-.19v-3c-16.95-.3-33.89-.61-50.84-.91v3c1.48-.03,2.95-.06,4.43-.1,1.93-.04,1.93-3.04,0-3-1.48.03-2.95.06-4.43.1-1.93.04-1.93,2.97,0,3,16.95.3,33.89.61,50.84.91,1.95.03,1.91-2.86,0-3-9.14-.65-18.24.63-27.36.78-4.52.08-9.03-.17-13.55-.27s-9.14-.03-13.71.14c-5.24.19-10.47.51-15.7.83l.4,2.95c20.91-5.68,42.96-5.95,64.31-2.75,6.05.91,12.05,2.09,18,3.49l.4-2.95c-23.4-.06-46.81-.11-70.21.4-6.64.15-13.27.34-19.91.59-1.92.07-1.93,3.07,0,3h0Z"/>
    <path class="cls-13" d="m877.1,466.69c1.98-3.66,3.95-7.33,5.93-10.99l-2.74-1.16c-1.03,4.41-1.39,8.96-1.02,13.48.07.81.64,1.5,1.5,1.5.76,0,1.57-.69,1.5-1.5-.34-4.26-.05-8.52.92-12.68.37-1.6-1.91-2.71-2.74-1.16-1.98,3.66-3.95,7.33-5.93,10.99-.92,1.7,1.67,3.22,2.59,1.51h0Z"/>
    <path class="cls-13" d="m909.59,459.05c.9-4.94.97-9.92.23-14.88-.12-.8-1.13-1.24-1.85-1.05-.86.24-1.16,1.04-1.05,1.85.61,4.34,1.22,8.69,1.83,13.03.11.8,1.14,1.24,1.85,1.05.86-.24,1.16-1.04,1.05-1.85-.61-4.34-1.22-8.69-1.83-13.03l-2.89.8c.65,4.39.57,8.92-.23,13.28-.14.8.22,1.62,1.05,1.85.73.2,1.7-.25,1.85-1.05h0Z"/>
    <path class="cls-13" d="m896.06,462.97c.47-4.27,1.38-8.48,2.64-12.58l-2.95-.4c-.09,2.66-.26,5.33-.27,8,0,2.01.62,4.36,2.82,4.94,1.87.49,2.67-2.4.8-2.89-.13-.03-.18-.08-.11,0-.2-.23.05.15-.13-.14-.01-.02-.2-.4-.11-.19-.08-.2-.13-.41-.17-.62-.12-.56-.08-1.42-.05-2.18.08-2.3.16-4.61.24-6.91.06-1.73-2.46-1.98-2.95-.4-1.34,4.37-2.24,8.84-2.75,13.38-.09.81.75,1.5,1.5,1.5.89,0,1.41-.69,1.5-1.5h0Z"/>
    <path class="cls-13" d="m796.3,457.01c2.04-2.77,3.87-5.7,5.45-8.76l-1.37-.58c-.92,3.02-1.84,6.03-2.77,9.05-.28.93,1.16,1.32,1.45.4.92-3.02,1.84-6.03,2.77-9.05.25-.8-.98-1.34-1.37-.58-1.58,3.06-3.41,5.99-5.45,8.76-.24.33-.05.84.27,1.03.38.22.79.06,1.03-.27h0Z"/>
    <path class="cls-13" d="m810.24,454.95c.58-.76.82-1.73,1.11-2.63.31-.96.62-1.93.93-2.89h-1.45c.17,1.12.05,2.2-.15,3.3s-.21,2.26.65,3.06c.3.27.77.3,1.06,0,.28-.28.3-.79,0-1.06-.24-.22-.33-.5-.34-.81-.02-.49.11-.97.2-1.45.2-1.15.2-2.28.02-3.43-.05-.32-.42-.55-.72-.55-.34,0-.62.24-.72.55-.3.93-.6,1.85-.9,2.78-.26.82-.47,1.69-1,2.38-.25.32-.05.84.27,1.03.39.23.78.05,1.03-.27h0Z"/>
    <path class="cls-13" d="m784.44,459.09c1.02-3.31,1.96-6.63,2.85-9.97l-1.45-.4c-.22.9.06,1.77.55,2.54.23.36.51.69.74,1.05.25.39.37.77.51,1.22.24.82.68,1.47,1.21,2.12.46.56.98,1.11,1.21,1.81.29.92,1.74.52,1.45-.4-.23-.73-.65-1.33-1.13-1.91-.43-.53-.93-1.04-1.18-1.68-.16-.38-.22-.8-.38-1.18-.17-.41-.4-.77-.66-1.13-.41-.57-1.05-1.28-.87-2.04.23-.94-1.2-1.33-1.45-.4-.88,3.34-1.83,6.67-2.85,9.97-.28.92,1.16,1.32,1.45.4h0Z"/>
    <path class="cls-13" d="m798.01,453.58c-.44.66-.83,1.34-1.18,2.05-.09.18-.13.38-.08.58.05.17.18.36.34.45.17.09.38.14.58.08.18-.06.36-.17.45-.34.35-.71.74-1.39,1.18-2.05.1-.16.12-.4.08-.58s-.18-.36-.34-.45c-.38-.2-.79-.08-1.03.27h0Z"/>
    <path class="cls-13" d="m784.72,458.09c.17.19.38.3.62.38.28.09.72-.05.85-.34.78-1.82,1.38-3.69,1.78-5.63.14-.67-.5-1.12-1.1-.85-.83.38-.8,1.5-.89,2.27s-.22,1.55-.62,2.23c-.49.84.78,1.57,1.3.76.18-.28.37-.53.6-.77.11-.12.23-.24.36-.35.06-.05.11-.1.17-.14.19-.15.08-.03,0-.04l-.38-.1-.02-.04c-.07-.14-.09-.17-.06-.08,0,0,0,.07,0,.12-.02.15-.06.28-.11.43l1.25-.33s.02.02-.02-.05c.03.05.03.04,0-.05.02.1,0-.13,0-.13,0-.21.02-.34.05-.52.07-.49.12-.98-.04-1.46-.11-.32-.38-.55-.72-.55s-.59.24-.72.55c-.2.47-.64.89-1.11,1.07l.95.72c0-.23.01-.43.11-.64h-1.3c.63,1.11,1.42,2.14,2.33,3.04.69.69,1.69-.34,1.06-1.06.01.01.06.06.05.08l-1.18.15c-.17-.17.08-.43.26-.4.29.04.1.35.26.13.28-.37.6-.72.69-1.19h-1.45l.02.06v-.4l-.02.06.19-.33.05-.04.38-.1h-.07c.13.03.25.07.38.1.04.03.07.07.09.11-.02-.06-.04-.12-.06-.18-.02-.08-.05-.22-.06-.27-.03-.23-.03-.46-.03-.68,0-.49,0-.97-.07-1.45s-.29-1.04-.67-1.4c-.58-.55-1.29-.22-1.64.37-1.13,1.87-1.17,4.25-.28,6.22.17.37.7.46,1.03.27.38-.22.44-.66.27-1.03-.35-.78-.47-1.64-.41-2.49.03-.42.12-.84.25-1.24.06-.17.12-.34.2-.5.04-.1.09-.19.14-.28.03-.06.07-.12.1-.18.11-.15.06-.13-.14.05h-.4c-.19-.04-.1-.07-.02.1,0,.02.06.18.08.24.04.18.06.33.06.54.02.49-.02.98.03,1.47.06.55.17,1.28.69,1.6.67.41,1.61-.22,1.35-1.01-.1-.32-.38-.55-.72-.55-.31,0-.66.23-.72.55-.04.19-.15.32-.28.47-.2.25-.38.5-.47.82-.16.59.05,1.22.6,1.52s1.26.14,1.61-.38.26-1.19-.17-1.62c-.35-.35-.92-.26-1.18.15-.35.57-.24,1.25.19,1.74l1.06-1.06c-.83-.82-1.52-1.73-2.1-2.74-.26-.46-1.04-.51-1.3,0-.22.44-.34.9-.32,1.4.02.44.47.91.95.72,1.02-.4,1.73-1.12,2.16-2.12h-1.45c.13.39,0,.86-.05,1.32-.06.58.07,1.1.45,1.56s1.08.15,1.25-.33c.16-.43.23-.94.09-1.39-.17-.56-.71-.96-1.3-.81-.46.12-.87.53-1.19.86-.34.35-.64.74-.91,1.15l1.3.76c.4-.69.61-1.45.73-2.24.06-.39.1-.79.15-1.19.02-.16.03-.3.06-.44,0-.02.02-.16.02-.1l.04-.07c-.13.11-.14.14-.03.07l-1.1-.85c-.37,1.8-.91,3.58-1.63,5.27l.85-.34c.12.1.13.1.04,0-.27-.3-.78-.28-1.06,0-.3.3-.27.76,0,1.06h0Z"/>
    <path class="cls-13" d="m881.86,455.58c.26-1.52.58-3.02.98-4.5l-1.47-.2c-.23,4.9.31,9.81,1.58,14.55.25.93,1.7.54,1.45-.4-1.24-4.62-1.75-9.38-1.53-14.15.04-.85-1.25-1.01-1.47-.2-.4,1.48-.73,2.99-.98,4.5-.16.94,1.29,1.35,1.45.4h0Z"/>
    <path class="cls-13" d="m896.93,449.76c.2,2.37.4,4.74.52,7.12.06,1.17.1,2.35.13,3.52.03.99.12,1.96.65,2.82s1.8.07,1.3-.76-.44-1.84-.46-2.78c-.03-1.1-.08-2.21-.14-3.31-.13-2.21-.31-4.41-.49-6.61-.08-.96-1.58-.96-1.5,0h0Z"/>
    <path class="cls-13" d="m907.31,445.02c-.91,5.83-1.59,11.7-2,17.59-.07.96,1.43.96,1.5,0,.41-5.76,1.06-11.49,1.95-17.19.15-.94-1.3-1.35-1.45-.4h0Z"/>
    <path class="cls-13" d="m816.68,454.49l.94-4.61c.31-1.5.76-3.06.71-4.6-.03-.8-1.33-1.07-1.47-.2-.27,1.65-.22,3.31-.09,4.97.06.81.14,1.63.19,2.45s.04,1.59.21,2.37c.21.94,1.66.54,1.45-.4-.16-.7-.12-1.44-.17-2.15-.05-.76-.12-1.51-.18-2.26-.12-1.52-.21-3.06.04-4.57l-1.47-.2c.05,1.47-.4,2.95-.69,4.38l-.9,4.42c-.19.94,1.25,1.35,1.45.4h0Z"/>
    <path class="cls-13" d="m1144.31,485.18c1.49-5.81,2.68-11.69,3.58-17.63l-1.47-.2c-.51,4.62-.8,9.26-.89,13.9-.02.97,1.48.97,1.5,0,.09-4.65.38-9.28.89-13.9.09-.83-1.35-1.04-1.47-.2-.9,5.93-2.1,11.81-3.58,17.63-.24.94,1.21,1.33,1.45.4h0Z"/>
    <path class="cls-13" d="m1152.99,484.64c1.85-5.24,3.02-10.7,3.51-16.24.07-.84-1.3-1.02-1.47-.2-.56,2.59-.72,5.24-.76,7.89-.04,2.44-.27,5.1.69,7.4.37.88,1.82.49,1.45-.4-.91-2.18-.67-4.7-.63-7.01.04-2.51.18-5.02.71-7.49l-1.47-.2c-.48,5.41-1.65,10.72-3.46,15.84-.32.91,1.13,1.3,1.45.4h0Z"/>
    <path class="cls-13" d="m1136.67,482.19c1.49-4.68,2.8-9.42,3.92-14.21.22-.94-1.2-1.34-1.45-.4-.66,2.54-1.14,5.12-1.46,7.73-.16,1.27-.27,2.54-.34,3.82-.06,1.05-.11,2.15.71,2.94.7.67,1.76-.39,1.06-1.06-.61-.59-.26-2.08-.21-2.83.08-1.14.2-2.28.35-3.41.31-2.29.76-4.55,1.34-6.79l-1.45-.4c-1.12,4.79-2.43,9.52-3.92,14.21-.29.92,1.15,1.32,1.45.4h0Z"/>
    <path class="cls-13" d="m1131.32,481.47l-.06-.1.1.38c-.04-.29.16-.68.25-.96.11-.37.22-.74.34-1.11.21-.69.41-1.37.61-2.06.39-1.36.92-2.79.73-4.23-.13-.95-1.39-.97-1.5,0-.16,1.46-.36,2.92-.47,4.38s.18,2.91.49,4.34c.21.94,1.65.54,1.45-.4-.3-1.36-.54-2.69-.43-4.1.12-1.41.3-2.82.45-4.22h-1.5c.2,1.48-.43,2.99-.84,4.38-.22.74-.44,1.48-.66,2.22-.21.68-.67,1.55-.26,2.23.49.83,1.79.08,1.3-.76h0Z"/>
    <path class="cls-13" d="m1127.27,481.27h-.08c.18.07.35.14.53.22l-.05-.07.19.33c.02.08.03.04.04-.13.02-.11.05-.21.07-.32.04-.16.07-.32.11-.48.09-.37.18-.75.28-1.12.19-.72.39-1.43.57-2.15.38-1.47.68-2.96.76-4.48.04-.84-1.29-1.03-1.47-.2-.59,2.7-.61,5.47-.06,8.18.19.94,1.64.55,1.45-.4-.5-2.43-.48-4.95.06-7.38l-1.47-.2c-.09,1.74-.53,3.44-.98,5.12-.23.85-.46,1.7-.65,2.56-.17.74-.46,2,.71,2.03.97.02.97-1.48,0-1.5h0Z"/>
    <path class="cls-13" d="m1114.49,482.58c-2.76.16-5.5.46-8.23.89l.4,1.45c2.49-.53,5-.86,7.54-.97,2.3-.1,4.64.18,6.91-.33s4.46-.94,6.79-1.2c2.51-.28,5.01-.54,7.52-.75,4.85-.4,9.73-.57,14.58-.21s9.45,1.43,14.22.71l-.4-1.45c-6.18,1.41-12.5-.15-18.74.19l.2,1.47c2.56-.69,5.18-1.39,7.84-.93l.2-1.47c-13.21,1.34-26.5-.07-39.73.81-.83.05-1.04,1.22-.2,1.47,2.19.65,4.43,1,6.72,1.05l-.38-1.4c-.44.24-.78.29-1.26.24l.38,1.4c.99-.49,2-.79,3.1-.91.95-.1.96-1.6,0-1.5-1.37.14-2.62.5-3.86,1.11-.73.36-.3,1.34.38,1.4.75.07,1.36-.09,2.02-.45s.35-1.38-.38-1.4c-2.16-.04-4.25-.37-6.32-.99l-.2,1.47c13.23-.88,26.52.53,39.73-.81.77-.08,1.1-1.32.2-1.47-2.96-.51-5.79.16-8.64.93-.8.22-.66,1.52.2,1.47,6.39-.35,12.81,1.2,19.14-.24.96-.22.53-1.59-.4-1.45-4.84.73-9.72-.5-14.55-.81s-9.9-.09-14.83.34c-4.55.4-9.09.8-13.53,1.87-2.42.58-4.99.22-7.46.37s-4.83.48-7.21.98c-.96.2-.54,1.59.4,1.45,2.6-.41,5.2-.68,7.83-.83.96-.05.97-1.56,0-1.5h0Z"/>
    <path class="cls-13" d="m1316.63,422.45c3.2-8.45,5.2-17.28,5.98-26.28.07-.83-1.33-1.03-1.47-.2-1.24,7.2-1.47,14.52-.65,21.78.11.95,1.61.96,1.5,0-.8-7.12-.62-14.32.59-21.38l-1.47-.2c-.77,8.86-2.78,17.56-5.93,25.88-.34.9,1.11,1.29,1.45.4h0Z"/>
    <path class="cls-13" d="m1329.19,420.11c4.3-8.02,8.65-16.22,10.18-25.29l-1.47-.2c-.3,7.88-.3,15.76.01,23.63.04.96,1.54.97,1.5,0-.31-7.88-.31-15.76-.01-23.63.03-.83-1.33-1.04-1.47-.2-1.51,8.95-5.78,17.02-10.02,24.93-.46.85.84,1.61,1.3.76h0Z"/>
    <path class="cls-13" d="m1344.8,418.9c1.76-4.52,3.72-8.95,5.89-13.29l-1.4-.38c-.31,4.85.13,9.72,1.3,14.43.23.94,1.68.54,1.45-.4-1.13-4.59-1.55-9.31-1.24-14.03.05-.73-1.07-1.04-1.4-.38-2.22,4.45-4.24,9.01-6.04,13.65-.35.9,1.1,1.29,1.45.4h0Z"/>
    <path class="cls-13" d="m1302.25,421.87c1.01-1.44,1.29-3.36,1.74-5.02.51-1.89,1.02-3.78,1.53-5.67h-1.45c1.21,3.97,1.11,8.73,4.47,11.7.72.64,1.79-.42,1.06-1.06-3.11-2.75-2.96-7.35-4.08-11.04-.21-.7-1.25-.73-1.45,0-.49,1.82-.98,3.64-1.47,5.46-.24.88-.47,1.76-.71,2.64-.22.8-.46,1.55-.94,2.23-.56.79.74,1.54,1.3.76h0Z"/>
    <path class="cls-13" d="m1318.46,413.05l-.07,3.64h1.5c-.01-.34,0-.67,0-1.01,0-.18.02-.36.04-.54,0-.08.02-.15.03-.23.01-.09.01-.1,0-.03,0-.04.01-.08.02-.12.1-.68.26-1.35.48-2,.12-.37-.14-.84-.52-.92-.41-.09-.79.13-.92.52-.46,1.39-.68,2.87-.63,4.33.01.39.34.77.75.75s.74-.33.75-.75l.07-3.64c0-.39-.35-.77-.75-.75s-.74.33-.75.75h0Z"/>
    <path class="cls-13" d="m1333.65,416.32c1.54-4.42,3.27-8.78,5.18-13.06l-1.37-.58c-.54,1.47-.72,3.02-.54,4.58l1.47-.2c-.3-1.77-.39-3.55-.3-5.34.03-.71-1.1-1.07-1.4-.38-.93,2.2-.99,4.67-1.17,7.02-.2,2.61-.32,5.22-.37,7.84-.02.84,1.26,1.02,1.47.2.54-2.08.96-4.18,1.26-6.31l-1.47-.2c-.06,1.95-.11,3.9-.17,5.84-.02.85,1.26,1.01,1.47.2.49-1.84.79-3.74.87-5.65.06-1.5-.11-3.03-1.17-4.17-.37-.39-1.15-.23-1.25.33-.49,2.68-.73,5.39-.67,8.11.02.82,1.29,1.05,1.47.2.27-1.25.34-2.51.18-3.78-.11-.88-.34-1.81-1.2-2.24-.33-.17-.85-.12-1.03.27-1.01,2.22-2.03,4.43-3.04,6.65l1.4.38c.12-1.73.26-3.49,1.09-5.04l-1.37-.58c-.59,1.46-1.17,2.93-1.76,4.39-.32.8.96,1.3,1.37.58.37-.66.75-1.32,1.14-1.97.19-.33.39-.65.58-.98.14-.23.53-.66.56-.92-.06-.4-.09-.45-.1-.14-.02.19-.05.37-.07.56-.05.37-.09.75-.14,1.12-.09.75-.19,1.5-.28,2.25h1.5c.15-1.28.37-2.56.65-3.82.21-.94-1.16-1.33-1.45-.4-.4,1.3-.8,2.6-1.19,3.9-.29.93,1.12,1.29,1.45.4s.54-1.75.69-2.66-1.3-1.35-1.45-.4-.37,1.79-.69,2.66l1.45.4c.4-1.3.8-2.6,1.19-3.9l-1.45-.4c-.31,1.39-.54,2.8-.7,4.22-.11.96,1.38.94,1.5,0,.15-1.22.31-2.43.45-3.65.1-.85-.11-1.72-1.12-1.81s-1.52.85-1.96,1.58c-.64,1.05-1.26,2.12-1.87,3.19l1.37.58c.59-1.46,1.17-2.93,1.76-4.39.32-.79-.97-1.32-1.37-.58-.96,1.8-1.16,3.8-1.3,5.8-.05.72,1.09,1.05,1.4.38,1.01-2.22,2.03-4.43,3.04-6.65l-1.03.27c.53.26.51,1.27.53,1.77.05.86-.03,1.71-.21,2.56l1.47.2c-.05-2.59.15-5.17.62-7.71l-1.25.33c.9.95.78,2.44.71,3.65-.1,1.6-.37,3.17-.79,4.71l1.47.2c.06-1.95.11-3.9.17-5.84.02-.82-1.35-1.05-1.47-.2-.3,2.13-.73,4.23-1.26,6.31l1.47.2c.05-2.43.16-4.85.33-7.27.16-2.22.12-4.75,1.01-6.83l-1.4-.38c-.09,1.93.03,3.84.36,5.74.14.82,1.57.64,1.47-.2-.17-1.44-.01-2.82.48-4.18.29-.79-1.02-1.36-1.37-.58-1.97,4.39-3.75,8.87-5.33,13.41-.32.91,1.13,1.31,1.45.4h0Z"/>
    <path class="cls-13" d="m1318.99,413.86c-.31,1.1-.3,2.29.05,3.37.09.29.32.5.62.54s.59-.1.75-.36c.48-.81.74-1.75.72-2.69,0-.39-.34-.77-.75-.75s-.76.33-.75.75c0,.19,0,.38-.02.57-.01.17.03-.15,0,0,0,.05-.02.1-.03.15-.02.09-.04.18-.06.28s-.05.18-.08.27c-.02.05-.03.1-.05.15,0,.02-.07.16-.02.05s-.01.03-.02.05c-.02.05-.04.09-.07.14-.05.09-.1.18-.15.27l1.37.18c-.08-.24-.14-.48-.18-.73v-.05c-.02-.08-.02-.07,0,.04-.02-.05-.01-.11-.02-.16-.01-.13-.02-.25-.02-.38,0-.12,0-.23,0-.35s.04-.24.03-.35c-.02.11-.02.12,0,.04,0-.03,0-.05.01-.08.01-.06.02-.12.04-.19.03-.12.06-.25.09-.37.11-.38-.13-.83-.52-.92s-.81.12-.92.52h0Z"/>
    <path class="cls-13" d="m1303.4,418.56c.56-1.15,1.11-2.3,1.66-3.45l-1.37-.18c.06.21.12.42.17.63.02.11.04.21.06.32,0,.05.02.11.03.16.02.12-.02-.18,0,.03.05.43.06.86.03,1.3-.02.31.25.65.55.72.32.07.67-.05.85-.34.52-.9.78-1.95.71-2.99-.03-.39-.33-.77-.75-.75s-.74.33-.75.75c-.03.92.08,1.84.3,2.73.1.38.54.65.92.52s.63-.51.52-.92c-.05-.2-.1-.4-.13-.61-.02-.1-.03-.19-.05-.29-.02-.15,0,.06,0-.03,0-.05-.01-.11-.02-.16-.04-.41-.06-.83-.04-1.24h-1.5c.02.22.02.43,0,.65,0,.06-.01.12-.02.18-.01.15.02-.09,0,0-.02.11-.04.21-.06.32-.05.21-.12.42-.19.62-.05.13.04-.07,0,.01-.02.04-.04.09-.06.13-.05.11-.11.21-.17.31l1.4.38c.06-.95-.06-1.92-.35-2.83-.09-.29-.32-.5-.62-.54-.27-.04-.62.09-.75.36-.55,1.15-1.1,2.3-1.66,3.45-.17.35-.11.83.27,1.03.34.18.84.11,1.03-.27h0Z"/>
    <path class="cls-13" d="m1349.28,417.24c0-.4-.21-.7-.56-.87-.14-.07-.3-.1-.45-.11-.1,0-.19.01-.28.03-.14.03-.16.03-.08.02l.33.19c.06.23.08.26.07.09,0-.1,0-.21,0-.31,0-.16,0-.31.02-.47.02-.36.04-.73.07-1.09.06-.71.17-1.42.3-2.12.18-.95-1.11-1.31-1.45-.4-.41,1.1-.9,2.16-1.46,3.19l1.37.58c.67-1.8,1.3-3.61,1.87-5.44l-1.47-.2c-.07,1.13-.13,2.26-.2,3.39-.02.37.3.7.65.74.39.05.68-.18.82-.54.59-1.51,1.03-3.07,1.32-4.67l-1.47-.2c.04,1.84-.17,3.66-.63,5.44l1.47.2c0-1.32.07-2.65.2-3.96h-1.5c0,2.03.13,4.06.38,6.07.04.37.25.69.65.74.35.04.74-.17.82-.54.56-2.44.83-4.95.77-7.45-.01-.61-.62-.88-1.13-.65s-.77.74-.84,1.28c-.05.4.38.75.75.75.44,0,.7-.35.75-.75-.01.1-.04.07.09.01l-1.13-.65c.06,2.38-.18,4.74-.71,7.05l1.47.2c-.24-2.02-.37-4.04-.38-6.07,0-.98-1.41-.94-1.5,0-.13,1.32-.2,2.64-.2,3.96,0,.84,1.26,1.03,1.47.2.5-1.9.73-3.87.69-5.84-.02-.81-1.31-1.06-1.47-.2-.29,1.6-.73,3.16-1.32,4.67l1.47.2c.07-1.13.13-2.26.2-3.39.05-.87-1.23-.98-1.47-.2-.57,1.83-1.19,3.64-1.87,5.44-.3.8.97,1.32,1.37.58.62-1.14,1.16-2.33,1.61-3.54l-1.45-.4c-.22,1.17-.36,2.35-.42,3.53-.02.5-.12,1.12.14,1.57.14.25.38.42.65.48.15.04.37.04.52,0,.2-.05.06.02-.02-.04l-.27-.27.04.06-.1-.38v.07c.02.96,1.52.97,1.5,0h0Z"/>
    <path class="cls-13" d="m835.04,479.05c-7.12-.87-14.29-1.22-21.46-1.07-1.93.04-1.93,2.94,0,3,8.77.28,17.52-1.35,26.28-.52v-3c-10.79-.38-21.58-.76-32.37-1.15v3c12.58-1.63,25.27-1.38,37.92-1.12,1.42.03,2.13-2.14.76-2.8-2.72-1.29-5.78-1.31-8.73-1.47-3.19-.17-6.39-.24-9.59-.25-6.48-.02-12.96.21-19.44.45v3c13.68-.67,27.35-1.35,41.03-2.02,1.92-.09,1.94-2.98,0-3l-21.98-.27c-7.33-.09-14.66-.16-21.96-.86v3c12.41-1.28,24.9-1.65,37.36-1.09v-3c-13,.32-26.01-.27-38.93-1.76l.4,2.95c2.73-.91,5.65-1,8.5-1.23,3.02-.24,6.05-.44,9.08-.61,5.98-.34,11.96-.54,17.94-.62v-3c-13.13.44-26.27.27-39.38-.52v3c13.56-.85,27.15-.91,40.72-.2v-3c-11.12-.06-22.22-.58-33.3-1.57l.4,2.95c2.27-.61,4.6-.54,6.93-.53,2.45,0,4.9.01,7.35.02,4.9.01,9.8.02,14.7.04v-3c-12.35,1.23-24.77,1.5-37.16.79l.4,2.95c3.22-1.35,6.87-1.29,10.3-1.5,3.78-.22,7.56-.38,11.34-.48s7.56-.13,11.35-.1c1.81.01,3.62.04,5.43.09,1.37.03,3.57-.27,4.72.66l.66-2.51c-6.73,1.52-13.6,2.02-20.47,2.5l.4,2.95c6.56-.98,13.17-1.55,19.8-1.73l-.4-2.95c-6.54,1.42-13.17,2.36-19.85,2.82v3c7.6-.85,15.4-1.72,22.92.17l-.36-2.74c-1.95,1.26-4.23,1.49-6.5,1.68-2.76.23-5.52.42-8.29.57s-5.37.26-8.06.33c-1.3.03-2.61.06-3.91.08-.87.01-2.77.38-3.45-.35l-.66,2.51c8.66-1.78,17.53-2.18,26.32-1.23l-.4-2.95c-7.84,1.49-15.84,1.72-23.8,1.69l.4,2.95c6.54-1.33,13.29-1.57,19.9-.65v-2.89c-3.55,1.32-7.1,2.63-10.64,3.95-1.79.67-1.02,3.57.8,2.89,3.55-1.32,7.1-2.63,10.64-3.95,1.21-.45,1.62-2.67,0-2.89-7.18-1-14.39-.8-21.49.65-1.68.34-1.26,2.94.4,2.95,8.24.03,16.49-.26,24.6-1.8,1.79-.34,1.15-2.78-.4-2.95-9.06-.97-18.2-.5-27.12,1.34-1.16.24-1.38,1.73-.66,2.51,1.77,1.91,5.21,1.24,7.52,1.19,3.18-.06,6.35-.18,9.52-.35s6.15-.37,9.22-.63c2.64-.23,5.29-.58,7.56-2.05,1.04-.68.94-2.41-.36-2.74-7.8-1.96-15.82-1.16-23.71-.28-1.88.21-1.96,3.13,0,3,6.94-.47,13.84-1.45,20.65-2.92,1.65-.36,1.29-2.99-.4-2.95-6.9.19-13.77.82-20.6,1.84-1.66.25-1.28,3.06.4,2.95,7.13-.5,14.28-1.03,21.26-2.61,1.03-.23,1.53-1.8.66-2.51-1.33-1.09-2.81-1.39-4.5-1.48-1.93-.09-3.87-.1-5.8-.13-4.11-.06-8.22-.04-12.33.05s-8.22.26-12.32.5c-3.67.22-7.65.16-11.1,1.6-1.51.63-1.39,2.84.4,2.95,12.39.7,24.81.44,37.16-.79,1.88-.19,1.97-3,0-3-5.06-.01-10.13-.03-15.19-.04-2.45,0-4.9-.01-7.35-.02s-4.86,0-7.23.64c-1.72.46-1.22,2.8.4,2.95,11.07.99,22.18,1.51,33.3,1.57,1.94,0,1.92-2.9,0-3-13.57-.71-27.16-.65-40.72.2-1.93.12-1.93,2.88,0,3,13.11.79,26.25.96,39.38.52,1.92-.06,1.94-3.03,0-3-6.15.08-12.29.29-18.43.65-3.03.17-6.05.38-9.08.62s-5.98.36-8.8,1.3c-1.68.56-1.25,2.76.4,2.95,12.92,1.49,25.93,2.08,38.93,1.76,1.94-.05,1.93-2.91,0-3-12.46-.56-24.95-.19-37.36,1.09-1.92.2-1.94,2.81,0,3,7.3.7,14.63.77,21.96.86l21.98.27v-3c-13.68.67-27.35,1.35-41.03,2.02-1.92.09-1.94,3.07,0,3,6.15-.22,12.3-.45,18.45-.45,3.03,0,6.07.05,9.1.18,2.77.12,6.12-.09,8.69,1.13l.76-2.8c-12.65-.27-25.34-.51-37.92,1.12-1.86.24-1.99,2.93,0,3,10.79.38,21.58.76,32.37,1.15,1.96.07,1.89-2.82,0-3-8.77-.83-17.51.8-26.28.52v3c7.17-.16,14.34.2,21.46,1.07,1.91.23,1.9-2.77,0-3h0Z"/>
    <path class="cls-13" d="m933.98,456.11h-1.85c.13.98.27,1.97.4,2.95,2.37-.91,4.8-1.54,7.32-1.89,1.73-.24,1.21-2.88-.4-2.95-4.39-.17-8.61,1.69-13,1.21l.76,2.8c2.61-1.73,5.54-2.8,8.66-3.06l-.4-2.95c-3.28,1.23-6.67,1.89-10.17,1.93l.4,2.95c4.17-1.24,8.45-1.89,12.8-1.91l-.4-2.95c-4.45,1.07-8.97,1.65-13.54,1.76l.76,2.8c2.39-1.1,4.95-1.76,7.53-2.23,1.27-.23,2.54-.41,3.82-.57.64-.08,1.27-.15,1.91-.22.28-.03.56-.07.85-.09.59-.04.4.11.2-.23l.9-2.2c-2.32.81-4.7,1.27-7.16,1.33l.4,2.95c3.37-.86,6.79-1.14,10.26-.88l-.4-2.95c-1.68.51-3.33.67-5.08.52l.4,2.95c3.07-.59,6.17-.96,9.3-1.11v-3c-2.32.15-4.65.3-6.97.45l.76,2.8c.93-.44,1.89-.7,2.91-.86,1.25-.2,1.48-2.21.36-2.74-.81-.38-1.35-.36-2.17-.01-.75.32-.9,1.41-.54,2.05.44.77,1.31.86,2.05.54h-.86c.12-.9.24-1.82.36-2.73-1.28.2-2.46.61-3.62,1.16-1.34.63-.69,2.89.76,2.8,2.32-.15,4.65-.3,6.97-.45,1.91-.12,1.94-3.09,0-3-3.39.16-6.76.57-10.09,1.21-1.76.34-1.18,2.81.4,2.95,1.99.17,3.97-.05,5.88-.63,1.67-.5,1.27-2.82-.4-2.95-3.72-.28-7.45.07-11.06.99-1.63.41-1.31,2.99.4,2.95,2.72-.07,5.39-.54,7.95-1.44.9-.31,1.42-1.32.9-2.2-.81-1.37-2.24-1.32-3.64-1.17-1.69.19-3.38.39-5.06.65-3.36.52-6.62,1.36-9.72,2.78-1.38.63-.66,2.83.76,2.8,4.83-.11,9.64-.74,14.34-1.87,1.65-.4,1.29-2.96-.4-2.95-4.61.03-9.18.71-13.6,2.02-1.6.48-1.33,2.97.4,2.95,3.75-.05,7.45-.72,10.97-2.04,1.46-.55,1.42-3.09-.4-2.95-3.65.3-7.12,1.44-10.17,3.47-1.31.87-.71,2.64.76,2.8,4.4.48,8.61-1.38,13-1.21l-.4-2.95c-2.51.34-4.95.97-7.32,1.89-1.5.58-1.4,2.95.4,2.95h1.85c1.93,0,1.93-3,0-3h0Z"/>
    <g>
      <path class="cls-13" d="m1278.5,425.61c10.53-3.18,21.5-4.58,32.41-5.94,16.53-2.06,33.33-4.08,49.76-1.32,2.22.37,4.45.84,6.55,1.67-2.71,2.29-5.42,4.57-8.13,6.86-2.08,1.75-4.17,3.52-6.57,4.8-2.93,1.56-6.21,2.35-9.47,2.98-7.63,1.47-15.39,2.17-23.14,2.69-8.08.54-16.23.88-24.25-.24-2.86-.4-5.83-1.05-8.03-2.92-2.52-2.14-3.58-5.48-4.5-8.66"/>
      <path class="cls-13" d="m1278.9,427.06c11.05-3.31,22.53-4.71,33.94-6.13,11.55-1.43,23.19-2.76,34.85-2.35,6.32.22,13.17.61,19.13,2.88l-.66-2.51c-2.46,2.08-4.93,4.16-7.39,6.24-2.22,1.87-4.42,3.81-7,5.19s-5.7,2.15-8.67,2.74-6.09,1.07-9.16,1.45c-6.26.77-12.58,1.24-18.88,1.56s-12.71.4-19-.47c-2.79-.39-5.86-.97-7.92-3.05s-2.8-4.85-3.56-7.48c-.54-1.85-3.44-1.06-2.89.8.74,2.55,1.56,5.18,3.13,7.36,1.63,2.26,3.92,3.68,6.57,4.47,2.92.87,6.08,1.13,9.11,1.35,3.39.25,6.79.28,10.19.19,6.79-.17,13.61-.67,20.36-1.4,3.43-.37,6.86-.82,10.26-1.41,3.16-.55,6.36-1.15,9.36-2.33,3.32-1.31,6.08-3.36,8.79-5.64,2.95-2.47,5.88-4.96,8.82-7.45.94-.8.29-2.14-.66-2.51-5.32-2.03-11.39-2.51-17.03-2.85-5.96-.36-11.95-.23-17.9.17-11.68.78-23.4,2.29-34.97,4.06-6.61,1.01-13.19,2.3-19.6,4.22-1.84.55-1.06,3.45.8,2.89h0Z"/>
    </g>
  </g>
  <path class="cls-13" d="m723.26,562.19l-.02.07.15-.36c-.04.09-.09.17-.14.24l.23-.3c-.44.56-.97,1.08-1.53,1.52l.3-.23c-.65.49-1.44.84-2.18,1.16l.36-.15c-.15.06-.3.11-.45.15-.76.18-1.29,1.1-1.05,1.85.26.8,1.03,1.24,1.85,1.05.58-.14,1.12-.44,1.65-.7.45-.22.9-.44,1.31-.74.45-.34.88-.7,1.27-1.11.15-.16.31-.33.45-.49.31-.35.53-.69.69-1.14.26-.74-.29-1.67-1.05-1.85-.84-.19-1.57.25-1.85,1.05h0Z"/>
  <path class="cls-13" d="m726.74,545.17c-24.15-5.64-49.48-5.79-73.71-.5-6.84,1.5-13.58,3.44-20.17,5.79-1.81.64-1.03,3.54.8,2.89,22.99-8.21,47.7-11.18,71.99-8.71,6.83.7,13.61,1.85,20.3,3.41,1.88.44,2.68-2.45.8-2.89h0Z"/>
  <path class="cls-13" d="m701.49,540.45c-34.68-.08-68.02,13.19-98.81,29.16-17.36,9-34.65,19.29-46.81,34.6s-18.34,36.7-11.13,54.87c3.38,8.5,9.34,15.68,15.23,22.68,10.81,12.86,22.19,26.08,37.48,33.05,9.56,4.36,20.13,6.01,30.59,6.94,35.96,3.21,72.62-1.58,106.55-13.92,5.97-2.17,11.91-4.6,17.06-8.32,6.05-4.36,10.74-10.31,16-15.59,6.51-6.53,14.02-12.18,19.32-19.73,5.87-8.36,8.61-18.46,11.25-28.33,3.07-11.49,6.16-23.1,6.65-34.99.49-11.89-1.84-24.25-8.75-33.93-11.42-16.01-32.3-21.46-51.36-26.26-17.19-4.32-34.48-9.04-52.2-9.42s-36.25,4.06-49.37,15.97"/>
</svg>