<?xml version="1.0" encoding="UTF-8"?>
<svg id="Layer_1" data-name="Layer 1" xmlns="http://www.w3.org/2000/svg" xmlns:xlink="http://www.w3.org/1999/xlink" viewBox="0 0 1364 768">
  <defs>
    <style>
      .cls-1 {
        fill: none;
      }

      .cls-2 {
        clip-path: url(#clippath);
      }

      .cls-3 {
        fill: #081b31;
      }
    </style>
    <clipPath id="clippath">
      <rect class="cls-1" x="-.5" y="-.5" width="1364.5" height="768.5"/>
    </clipPath>
  </defs>
  <g class="cls-2">
    <g>
      <path class="cls-3" d="m765.92,575.22c0,63.24-.02,126.47.07,189.71,0,2.57-.5,3.07-3.07,3.07-121.98-.08-243.96-.07-365.94-.07-1.94-2.03-4.34-2.84-7.11-2.68-3.56.21-6.71-1.04-10.07-2.14-6.23-2.04-12.88-2.7-19.36-3.9-1.42-.26-2.14,1.09-2.93,2.04-1.29,1.56-2.97,2.75-4.89,1.83-5.03-2.39-10.31-1.41-15.5-1.54-3.63-.1-7.1-.33-10.63-1.63-4.26-1.57-8.92-.48-13.39-.64-3.72-.13-7.46.48-8.95-4.61-.59-2.01-3.31-2.75-5.24-.58-1.52,1.71-3.28,2.16-5.39,1.7-4.84-1.06-9.69.92-14.55-.14-3.53-.77-6.3-1.58-6.18-6.33.08-3.2-3.29-4.43-5.95-5.46-2.43-.95-3.14.95-4,2.74-1.1,2.31-3.3,3.01-5.67,2.88-7.04-.39-14.26,1.41-21.08-1.75-1.05-.49-2.22-.13-3.27.34-5.16,2.32-10.35,2.28-15.02-.85-6.31-4.23-13.2-2.94-19.96-2.62-3.13.15-6.2.63-9.26-.42-.83-.29-1.71-.31-2.6-.21-21.05,2.35-42.17.51-63.25,1.03-3.12.08-5.67-.93-6.53-4.38-.25-1.02-.82-2.15-2.01-1.72-4.72,1.69-9.42.02-14.13.12-2.48.05-3.75,1.38-5.52,2.99-4.04,3.69-6.56,9.37-12.86,10.41-1.76.29-3.43.84-5.08-.01-2.43-1.25-5.01-1.48-7.66-1.35-8.79.45-17.43-.21-25.86-3.06-2.44-.82-4.46-1.71-4.72-4.56-.27-2.88-.04-5.59,3.09-6.94,2-.86,2.83-1.76.38-3.13-3.43-1.92-2.83-5.26-2.85-8.33-.02-2.72-.74-4.58-3.93-4.73-4.24-.2-5.14.46-5.16,4.72-.02,3.13-.21,6.19-1.09,9.25-.81,2.8-.72,5.58,1.31,8.15,1.94,2.46,1.41,5.48.93,8.31-.3,1.75-1.41,1.9-2.64.69-.73-.71-1.14-1.64-1.5-2.58-1.22-3.2-3.4-4.5-6.77-3.51-.8.15-1.58.13-2.31-.24-1.18-1.14-.41-2.56-.5-3.84-.24-3.16-1.73-4.03-4.9-2.76-1.02,4.13-.28,8.31-.5,12.46-.1,1.82.23,3.69-.66,5.42-1.11,1.07-1.75.03-1.77-.7-.11-3.04-2.17-5.15-3.31-7.7-1.97-4.43-2-9.17-1.37-13.89.83-6.18.89-6.19-4.57-9.16-.9-.49-1.66-1.06-2.17-1.95v-3c2.88-3.92,2.88-9.29,0-13.5v-20.25c1.93-1.81,4.23-3.07,6.5-4.39,5.44.21,10.65,1.68,15.9,2.9,11.43,2.81,22.7,6.18,33.79,10.15,24.96,8.34,50.84,12.69,76.55,17.79,9.92,1.97,19.55,5.16,29.51,7.02,14.47,2.7,28.89,5.68,43.35,8.45,6.85,1.32,13.74,2.54,20.55,4.08,11.07,2.51,22.41,3.59,33.47,6.12,10.96,2.5,22.11,3.85,33.14,5.9,22.33,4.15,44.81,7.35,67.24,10.93,10.6,1.35,20.92,4.35,31.59,5.36,3.6.34,7.22.02,10.8.53,3.92,2.46,8.29,2.29,12.64,2.09,19.03-.88,38.08-.76,57.13-.71,2.34,0,3.95-.56,5.15-2.76,1.97-3.61,5.15-5.02,9.36-4.85,3.87.16,7.84.56,12.05-.56-1.26-2.05-2.7-1.42-3.95-1.4-1.26.02-2.6.15-3.22-1.27-.64-1.46-.12-2.83,1.12-3.62,2.55-1.62,4.5-4.51,8.14-3.95,1.5.23,1.93-.87,2.15-2.03.44-2.32,2.02-3.07,4.14-3.66,3.79-1.06,7.79-2.06,8.57-7.02.23-1.44,1.61-2.2,3.02-2.5,3.83-.81,4.97-3.6,4.8-6.96-.14-2.71.26-4.89,2.59-6.54.96-.68,1.43-1.78,1-2.99-.43-1.22-1.53-1.08-2.53-1.06-2.1.05-3.3-.89-3.42-3.05-.08-.75-.15-1.53-1.05-1.77-4.37-1.19-2.87-3.41-1.33-6.06,1.1-1.88,4.46-3.7,1.09-6.44-.71-1.35-1.38-2.89-.64-4.26,1.09-2.02,2.6-3.47-.49-5.43-1.47-.93.11-2.79,1.5-3.86,3.29-2.52,3.26-2.56.53-5.41-.81-2.01.11-3.38,1.7-4.45,1.87-1.27,3.52-2.79,5.21-4.58-1.74.63-3.64,1.5-4.63-.54-1.06-2.18-.19-4.32,1.67-5.64,1.98-1.4,2.9-2.32.66-4.43-1.81-1.71-.86-3.65.75-5.22,2.11-2.05,4.6-3.77,5.94-6.56-1.49-1-3.73.79-4.41-1.42-.54-1.76.91-3,1.83-4.3,1.01-1.44,1.98-2.89,2.45-4.82-1.34-.58-3.36,1.94-4.22-.74,3.05-2.99,4.96-6.76,7.13-10.35.43-.71.74-1.72,1.78-1.71,1.19.01,1.7,1.01,1.98,1.95.93,3.24,2.99,6.01,3.84,9.28-.12,1.7-1.86.74-2.57,1.5.61,1.57,1.62,2.85,2.46,4.22,1.23,2,2.89,3.83.12,6.12-1.38,1.14-.29,2.65,1.01,3.31,2.01,1.03,2.54,2.46,2.13,4.59-.41,2.12.75,3.85,1.81,5.55.6.95,1.3,1.83,1.93,2.76.82,1.21,2.08,2.44,1.17,4.03-.86,1.5-2.51.51-4.05.84.8,2.74,2.82,3.83,5.24,3.52,2.35-.3,3.71-2.38,4.87-4.31.4-.66-.39-.96-.94-1.3-3.34-2.06-3.42-3.87-.24-6.31,1.08-.83,2.31-1.47,3.08-2.67,1.03-1.59,2.09-2.98.43-4.99-1.69-2.04.21-3.75,1.28-5.31,1.13-1.64,1.65-2.75-.35-4.31-2.26-1.76-.7-3.81.37-5.64,1.84-2.81,3.76-5.63,3.45-9.2-.09-1.1,1.36-2.99-1.29-3.2-.38-.03-.42-1-.11-1.32,3.12-3.17,3.47-7.75,5.83-11.31,1.2.17,1.62,1.11,1.87,2.09.75,2.93,2.2,5.57,3.36,8.33.92,2.19,1.87,4.36-.36,6.54-1.41,1.37.04,2.54.95,3.48,2.17,2.25,4.2,4.34,1.69,7.72-.98,1.33.38,2.56,1.31,3.56,1.41,1.53,2.55,3.1.87,5.63,2.75-.63,4.65-1.3,5.98-3.19-4.3-2.02-4.34-2.04-2.37-6.08.45-.91.63-1.58-.2-2.3-2.38-2.04-1.51-3.59.74-4.97.75-.46,1.27-1.19,1.84-1.86.91-1.08,1.37-2-.2-3.03-2.83-1.85-2.31-4.1-.44-6.33,1.61-1.92,3.35-3.74,3.62-6.41.1-1,.29-1.92-1.15-2.3-4.51-1.19-4.5-1.24-2.01-5.01,1.26-1.77,2.1-3.63,1.33-5.87-.16-.47-.22-1.02.05-1.44,3.12-4.72,3.12-10.61,5.8-15.5.49-.32,1.02-.36,1.57-.16,3.37,5.41,5.58,11.39,8.44,17.05.74,1.47.03,2.47-1.49,2.71-3.06.5-2.29,1.89-.9,3.48.33.38.69.72,1.02,1.1,2.65,3.06,2.49,3.93-1.1,5.69,1.92,3.36,4.19,6.5,5.98,9.92,2.08,3.98,1.9,4.53-2.17,6.56,1,2.18,2.34,4.06,4.4,5.38,1.48.95,1.59,1.99.45,3.38-2.51,3.07-1.85,5.7,1.78,7.47,1.27.62,3.4.59,3.15,2.56-.24,1.91-2.29,1.98-3.81,2.46-.94.3-2.82-.17-2.46,1.41.38,1.65,2.07.93,3.17.49,2-.8,3.97-1.43,6.17-1.13,1.19.16,2.32-.25,2.67-1.54.33-1.21-.89-1.28-1.57-1.73-2.34-1.56-2.21-3.14.05-4.62,1.56-1.02,3.34-1.7,4.89-3.42-1.4-.37-2.98,1.27-3.75-.16-.71-1.33.38-2.61.95-3.83.48-1.02,1.1-1.98,1.92-2.76,2.11-2.01,3.82-3.75.74-6.63-1.64-1.53.44-6.43,3.32-8.77,1.27-1.03,2.69-1.85,2.76-3.8-1.07-1.36-3.07,1.34-3.79-.69-.47-1.34.58-2.62,1.06-3.89,1.24-3.29,1.78-6.75,2.48-10.17.24-1.17.06-2.81,1.69-2.95,1.48-.13,1.96,1.36,2.52,2.44,2.1,3.97,3.95,8.07,6.12,12.01,1.59,2.88.43,3.59-2.4,2.98-.2,1.44.4,2.54,1.24,3.42,1.69,1.75,2.36,3.54,1.67,6.07-.53,1.95,3.76,7.39,6.24,8.35,2.76,1.07,3.95-1.47,5.66-2.72.69-.5,1.39-1.43.47-2.22-3.35-2.85-.85-5.1.72-7.38.98-1.42,2.46-2.44,3.53-3.89-4.09-.86-4.39-1.7-2.02-4.92,1.16-1.57,2.56-3.03,3.02-5.03-1.15-.94-3.11.69-3.66-1.1-.49-1.61,1.23-2.27,2.12-3.23,1.65-1.77,3.02-3.57,2.85-6.24-.13-2.04,1.24-3.44,2.75-4.63,2.66-.23,2.39,2.34,3.46,3.62.48.89,1.07,1.68,1.78,2.4,2.05,2.1.81,2.78-1.37,3,.45,1.49,1.2,2.79,1.88,4.13.39.78,1.03,1.92.39,2.45-3.08,2.57-.76,4.16.84,5.99,1.67,1.91,1.08,3.64-.59,5.25-.52.5-1.16,1.18-.26,1.83.6.43,1.29,0,1.59-.54.99-1.78,4.08-2.93,1.37-5.83-1.42-1.52-.35-3.09,1.49-3.74,1.71-.61,2.39-1.46,1.8-3.36-.59-1.91.76-3.31,1.89-4.64,1.2-1.41,1.54-2.51-.57-3.42-2.76-1.2-2-2.68-.14-4.09,1.69-1.28,3.28-2.66,4.6-4.42-1.99.33-3.72-.29-4.63-2.01-.84-1.58.65-2.71,1.37-3.99.93-1.64,3.72-2.73,1.75-5.33-.86-.73-1.64-1.49-1.53-2.75.96-2.36,2.33-4.28,5.08-4.7,1.66.93,1.39,2.44,1.15,3.92-.3,1.83.12,3.41,1.66,4.76,1.64-3.56,1.96-8.1,6.92-8.98,2.28,1.32,2.55,3.78,3.39,5.93,1,1.96-1.09,3.75-.3,5.7,3.24,3.5,6.77,5.33,11.24,2.03q2.89,1.39.21,4.45c-2.47,1.79-5.3,1.59-9.05,1.03,2.77,2.32,4.36,4.08,1.98,6.9-1.05,1.24.69,1.69,1.74,1.96,1.12.05,2.19-.47,3.32-.22,2.61.57,3.31,2.28,1.92,4.74-1.52.55-3.14.72-4.66,1.21-1.51,1.5.32,2.04.91,2.78.72.88,1.78.7,2.71.09.98-.64,1.43-1.69,2.04-2.63,1.98-3.09,4.66-4.68,8.85-3.8-2.79-1.28-2.62-2.79-.79-4.29,1.34-1.1,2.56-2.37,4.14-3.17,2.16.02,4.17-.24,5.19-2.85-2.21.31-4.61-.7-6.13,1.78-2.46,1.59-3.55-1.27-3.28-1.94,1.02-2.45.13-5.41,2.1-7.53q4.97,3.27,9.89-.99c.28-.24.53-.53.8-.78,1.1-1.17,2.77-.72,4.27-1.51-1.27-1.43-3.31-1.04-4.52-2.21-.17-2.13,2.35-2.89,2.48-4.87.9-2.43,2.39-3.76,5.13-2.76.49.3.83.71.93,1.29-.01.12.02.3-.05.35-3.5,3.01-1.05,5.04,1.17,7.11.93,1.17,1.64,2.54,2.71,3.56,2.5,2.39.03,4.54.07,6.73.03,1.68,4.65,2.47,1.64,5.74-.9.97.4,2.03,1.21,2.78,1.37,1.28,3.07,2.11,4.6,3.18.62.44,1.25,1,1.13,1.8-.12.87-1.01.93-1.7,1.2-1.14.44-3.17-.61-3.28,1.46-.08,1.53,1.12,2.74,2.47,3.5,1.47.84,3,1.1,4.55,0,3.05-2.15,3.34-2.66,4.84-9.44-.61-.72-1.38-.24-2.08-.26-.77-.02-1.57-.06-1.93-.84-.46-1,.22-1.69.97-2.16,2.64-1.66,4.09-4.28,5.61-6.85.18-1.21.12-2.59,1.9-2.7,1.45-.1,2.71.25,3.71,1.37.5.56-.07,2.18,1.73,1.5,1.48-.56,1.86-1.49,1.8-2.86-.11-2.26.13-4.49.5-6.71.27-1.64.8-2.73,2.68-1.57Z"/>
      <path class="cls-3" d="m-1.95,722.94c.57.24,1.13.5,1.71.71,7.22,2.61,7.27,2.93,6,10.44-.82,4.8-1.22,10.44,1.72,13.96,2.39,2.87,1.76,6,3.39,8.61.54-.15.95.1,1.35.42,3.86,2.96,5.05,2.98,8.83.14,4.49-3.37,4.51-6.56.05-10.2-.68-.56-1.43-1.04-1.39-2.07,4-2.16,5.41-1.81,7.5,1.78.91,1.57.88,3.63,2.48,4.97,1.22-4.91.86-5.94-1.78-10.06-1.4-2.18-1.2-5.15-.36-7.26,1.47-3.69,1.29-7.34,1.19-11.04-.08-3,.8-4.53,4.03-4.17,1.23.14,2.5,0,3.74.03,2.26.04,3.47,1.2,3.52,3.47.04,1.5.07,3,0,4.5-.13,2.81.03,5.32,3.72,5.69,1.15.11,1.55,1.16,1.48,2.27-.07,1.15-.75,1.69-1.84,2.02-4.14,1.26-4.49,1.93-4.11,6.32.27,3.12,2.51,3.17,4.81,3.51,1.82.27,3.62.83,5.34,1.47,7.14,2.67,14.56,1.05,21.84,1.45,1.88.1,3.66.04,5.28,1.35,1.65,1.34,3.49,1.08,5.21-.1.82-.56,1.56-1.3,2.66-1.2,2.48.23,2.73-1.5,3.91-3.2,2.24-3.21,5.23-6.38,8.46-8.47,2.18-1.41,6.07-.72,9.14.01,2.5.59,4.85.57,7.28-.51,2.73-1.2,3.87-.62,3.99,2.2.13,3.06,1.95,3.8,4.39,3.92,2.12.11,4.25.03,6.37.03,15.86,0,31.73-.02,47.59.01,3.37,0,6.72.01,9.96-1.13.57-.2,1.37-.52,1.8-.29,5.92,3.2,12.04.37,18.02.45,5.31.08,9.87,1.25,14.32,3.91,4.14,2.47,8.5,2.35,12.73.02,1.81-1,3.58-1.17,5.24.06,1.73,1.28,3.61,1.5,5.66,1.48,4.75-.06,9.49.01,14.24-.03,2.87-.03,5.26-.66,4.64-4.43-.19-1.16.59-1.4,1.58-1.56,2.89-.48,9.16,2.64,10.57,5.29.39.73.53,1.47.02,2.1-2.02,2.49.05,3.6,1.75,4.02,2.82.69,5.62,1.67,8.74.95,3.14-.73,6.43-.71,9.62.12,1.65.43,3,.34,3.55-1.59.61-2.16,2.37-2.28,3.89-1.64,1.67.7,4.55.84,4.13,3.5-.5,3.2,1.58,2.92,3.31,2.96,4.62.12,9.24.06,13.86.03,1.89-.01,3.69-.03,5.29,1.31,1.2,1.01,2.77.97,4.29.96,4.12-.04,8.24,0,12.37-.02,2.48,0,4.91-.17,7.11,1.54,1.72,1.34,3.47.6,4.37-1.2,1.4-2.82,2.84-3.07,6.14-2.42,4.72.92,9.32,3.3,14.39,2.38.65-.12,1.57.17,2.08.61,3.77,3.22,8.27,2.93,12.77,2.87,2.53-.03,4.74.6,4.99,3.73H2.17q-4.12,0-4.12-4.12c0-1.12,0-2.25,0-3.37,3.62-1.04,4.38-3.59,4.18-7.06-.29-5.16.07-10.35.01-15.52.35-3.62-.09-6.83-4.19-8.16,0-2.25,0-4.5,0-6.75Z"/>
      <path class="cls-3" d="m751.8,572.29c1.26-.03,1.94-1.04,2.79-1.72,1.05-.85,1.45-1.95-.14-2.55-3.67-1.37-1.08-2.57.05-3.75,1.89-1.96,4.97-2.98,5.15-6.34-1.05-.75-1.71.17-2.46.38-1.13.33-2.41,1.46-3.33.42-.61-.7.09-2.08.52-3.1,1.25-2.93,3.02-5.33,5.9-6.94,2.15-1.21,2.86-2.63-.39-3.48-1.7-.45-2.65-1.58-2.98-3.4-.37-2.1,1.28-2.38,2.42-3.24,1.39-1.04,2.81-2.09,4-3.34,2.53-2.64,2.29-3.47-1.29-4.22-1.81-.38-1.72-1.18-.83-2.25,1.5-1.81,3.13-3.53,4.7-5.28v51.74c-.65.13-1.64-.32-1.73.8-.22,2.56-.47,5.12-.48,7.68,0,3.02-1.4,4.27-4.26,3.76-1.46-.26-.32-1.08-.53-1.58-.71-1.71-2.33-1.88-3.73-1.59-1.53.32.99,1.52-.21,2.18-1.03.02-2.09.1-2.73-.97.75-3.27-2.84-2.05-3.74-3.61.9-2.23,3.18-1.85,4.87-2.58.7-.11,1.45-.03,2.11-.34.7-.33,2.06.24,2.07-.91.01-1.37-1.33-.98-2.23-1.08-1.72.08-3.39.72-5.12.53-1.95-.21-3.96-.92-3.8-3.16.15-2.17,2.18-2.28,3.98-2.07.48.06.94.25,1.41,0Z"/>
      <path class="cls-3" d="m-1.95,706.44c2.04.29,2.98,1.52,2.99,3.53.01,2.21-.09,4.43.03,6.64.13,2.24-1.06,3.09-3.03,3.33v-13.5Z"/>
      <path class="cls-3" d="m-1.95,680.95c2.14-.07,4.13.48,6,1.5-1.33,2.32-3.64,3.08-6,3.74v-5.25Z"/>
      <path class="cls-3" d="m765.92,520.48c-.95-.08-1.68,1.01-3.04.39,1.04-1.41.6-3.69,3.04-4.14v3.75Z"/>
      <path class="cls-3" d="m519.97,707.22c-.01,1.83-.03,3.95,2.69,3,1.71-.6,2.96-.67,3.71,1.03.78,1.75.56,3.84-1.09,4.7-2.74,1.42-3.15,2.97-2.52,5.97.81,3.82-1.85,6.94-5.76,7.76-1.36.29-2.46.82-2.76,2.14-.28,1.2,1.43,3.02-.38,3.63-2.87.96-4.73,3.99-7.91,3.94-2.81-.04-4.15.73-4.09,3.8.03,1.69-.45,3.83-3.14,1.89-1.14-.82-2.4-.36-3.38.64-.26.27-.59.49-.79.79-1.19,1.79-5.18,1.5-4.34,4.39.93,3.19,3.58-.14,5.49.49,1.3.44,2.43.67,2.45,2.25.03,1.81-1.14,2.32-2.72,2.32-4.12,0-8.27.28-12.37-.08-4.32-.38-6.53,2.62-7.31,5.5-.73,2.67-2.05,2.04-3.4,2.05-11.87.06-23.76-.32-35.61.14-9.9.39-19.83.02-29.7.78-2.84.22-4.17-1.76-6.31-2.4-1.73-2.87-.96-5.21,1.54-7.15,1.67-1.29,2.59-2.39.64-4.48-1.73-1.86-.26-6.2,2.64-9.2.43-.26-.01-.27-.04-.24-.84,1.02-1.75,1.99-2.88.28-.25-2.04,1.37-3.4,1.9-5.16.49-1.64,1.29-3.18,1.84-4.84-.81-.1-1.42.64-2.2.34-.34-.18-.78-.46-.73-.77.78-5.18,2.43-9.93,6.87-13.22,2.16,2.89,3.25,6.45,5.66,9.19-2.5,1.79-2.55,3.58-.42,5.89,1.56,1.7,1.33,3.91-.64,5.22-2,1.32-2.02,2.31-.56,4.08,2.12,2.55,4.61,5.07,3.15,8.99-.35.94.64,1.08,1.43,1.19,2.63.35,4.1-1.17,5.47-3.11,1.53-2.17-.73-2.45-1.55-3.41-1.31-1.51-.71-2.82.42-3.95,2.06-2.06,2.1-3.76-.49-5.41-1.5-.96-3.01-2.17-1.58-4.23,1.32-1.89,2.72-3.67,5.51-2.16,1.12.61,2.37,1.34,3.99.73-2.27-1.34-5.19-.47-6.9-2.68-.05-.58.2-1.04.55-1.46.93-.97,2.11-1.64,3.15-2.47,3.23-2.59,3.24-2.72-.15-5.07-.71-.81-1.66-1.52-1.09-2.82,2.03-1.22,4.51-1.43,6.41-2.97,1.53-1.24,2.43-2.32.06-3.56-.78-.41-1.45-.98-1.97-1.7-1.69-2.34-1.17-3.84,1.62-4.49,1.92-.45,3.95-.66,5.22-3.06-3.31.22-5.36-1.15-6-4.26-.4-1.96-.17-3.73,1.74-4.91,1.61-.98,2.98-2.25,4.19-3.71.76-.92.74-1.52-.25-2.46-3.28-3.13-3.2-4.82.39-7.77,2.46-2.02,4.71-4.07,5.09-7.31-.14-.44-.32-.59-.6-.61-1.39-.08-3.15,1.19-4.05-.64-.77-1.56.46-2.86,1.44-3.98,2-2.29,3.05-5.1,4.66-7.49-.63-.76-1.06-.34-1.48-.19-.7.25-1.47.7-2.05-.03-.58-.72.01-1.41.43-2,.73-1.02,1.67-1.85,2.52-2.77,1.55-1.49,2.34-3.41,2.98-5.41.35-.93.76-1.82,1.4-2.59.87-1.05,1.81-.94,2.33.19,1.48,3.25,3.36,6.3,4.77,9.58.25.59.05,1.21-.46,1.66-1.06.53-2.05-.6-3.18-.12-.42,1.49.88,2.31,1.41,3.41.59.98,1.21,1.94,1.84,2.9.72,1.1,1.41,2.21,2.26,3.23.68,1.09,2.27,1.82,1.44,3.52-2.09,1.06-4.11.61-6.34-.29,1.95,3.89,4.8,6.96,7.23,10.32,1.37,1.89,2.56,3.91.17,5.9-1.02.85-.34,1.53.03,2.28,3.39,6.81,6.98,7.47,12.56,2.24,2.09-1.95,4.51-3.84,1.79-7.17-.81-.99-.1-2.42.45-3.56.87-1.81,1.56-3.68,2.09-5.61.09-.36.2-.71.33-1.05.48-.96.42-2.58,1.76-2.58,1.63,0,1.87,1.74,2.52,2.9,1.47,2.86,2.67,5.81,3.22,8.99.2,1.16.79,2.43-.56,3.35-.59.13-1.08-.05-1.46-.51-.39-.38-.57-1.56-1.13-1.08-1.05.89-.45,1.99.35,2.88.5.45,1.08.79,1.67,1.12,3.84,3.08,4.05,4.43.74,7.62-1.89,1.83-1.75,3.54-.68,5.66,2,3.95,5.8,5.62,9.31,7.67.92.68,1.47,1.68,2.22,2.51.39.42.51,1.48,1.58.54,1.92-1.68,3.15-.57,3.97,1.32.79,1.81,2.49,3.34-.01,5.52-3.1,2.7-6.06,5.15-10.49,4.58-1.07-.14-2.09.09-2.28,1.36-.3,2.03,1.05,3.22,2.46,4.29.97.73,1.9.44,2.6-.49.83-1.09,1.49-2.29,2.09-3.53,2.16-4.41,3.54-4.71,7.67-1.67.74,1.03.89,2.33,1.5,3.41,2.98,5.28,4.82,5.86,8.8,3.49.53-.31,1.18-.4,1.77-.58,1.62-.5,4.02-.34,4.33-2.3.32-2.03-2.18-1.94-3.48-2.72-1.99-1.18-2.09-2.65-.12-3.63,4.04-2.01,2.71-4.08.41-6.36-1.35-1.34-3.05-2.97-1.76-4.81,1.44-2.04,3.86-2.44,6.27-1.25Z"/>
      <path class="cls-3" d="m704.46,570.78c1.92-2.7.59-3.73-2.6-3.91,3.36-3.7,1.16-9.38,5.88-12.3,1.68,2.38,3.43,4.85,5.28,7.47-1.81.84-2.4-.72-3.59-1.18-.09,2.63,1.07,4.68,2.43,6.7.63.93,1.81,2.16-.08,3.02-.9.41-2.23.44-1.8,1.8.36,1.12,1.06,2.33,2.68,2.1,3.62,1.1,3.63,2.06.05,5.99-1.04,2.05,1.5,5.06-1.75,6.52.79.89.6,2.7,2.45,2.6,1.29-.39,1.66.22,1.53,1.39-.73.83-1.52,1.62-2.18,2.5-.88,1.16-6.3,2.25-.11,3.68.79.18.53.96.26,1.55-.31.65-.72.91-1.47.61-4.52-1.82-6.8.72-8.61,4.36-.79,1.59-2.32,3-4.02,2.62-2.01-.45-3.06-2.63-4.21-4.24-.47-.65,1.11-.93,1.85-1.23,1.76.7,3.3.04,4.82-.77,1.09-.69,1.15-1.62.28-2.42-.88-.8-1.99-1.75-3.24-1.09-.8.42-1.39.89-2.26.36-.16-2.31,1.19-3.95,2.49-5.61,1.28-1.06,2.73-2.02,2.3-4.06.02-.53.2-1,.57-1.38.4-1.35,2.51-2.71,0-4.06-2.55-4.67-1.37-8.29,3.08-11Z"/>
      <path class="cls-3" d="m676.68,562.46c-.61-.06-1.21-.11-1.82-.17.19-1.2,1.38-1.55,1.99-2.4,2.44-2.13,4.19-4.35,4.13-8.04-.03-2.26,2.39-4.24,2.77-7.25,1.72,4.06,4.12,7.35,4.76,11.83-1.25-.99-2.19-1.74-3.33-2.65-.1,2.94,1.46,4.84,2.75,6.91.97,1.55,2.58,3.2-1.08,4.2-2.69.74.39,2.31.38,3.57-3.62,1.58-5.25,4.45-5.38,8.29-.02.71.28,1.6-.65,1.88-.77.23-1.51-.27-1.9-.87-1.19-1.83-2.69-3.65-1.55-6.06.55-1.16.28-2.15-.29-3.15.27-.47.53-.95.8-1.42.3-1.83,1.77-4.06-1.58-4.66Z"/>
      <path class="cls-3" d="m721.79,569.89c-.7-1.47-.21-2.5,1.02-3.51,1.58-1.31,2.28-3.12,2.28-5.17-1.59-.34-1.67,1.82-3.54,1.61,1.94-3.21,3.76-6.23,5.65-9.36,2.82,2.77,2.7,6.93,5.67,9.48-1.58.54-1.71-1.23-2.8-1.08-.61,2.08.76,3.89.62,5.86-2.47-1.13-3.47.67-4.56,2.28-1.24,1-2.56,1.03-3.95.34-.13-.15-.26-.3-.39-.46Z"/>
      <path class="cls-3" d="m17.55,744.7c.46,2.97.82,5.99,4.96,7.08-2.38,1.39-4.24,2.47-6.6,3.85,0-3.83-.27-7.05.07-10.2.39-3.6-.59-6.28-3.76-8.09,3.66-1.6,6-.26,6.08,3.46.03,1.36-.04,2.69-.75,3.9Z"/>
      <path class="cls-3" d="m739.11,612.73c4.35.26,6.94-4.97,11.82-3.74-4.76,7.86-6.5,8.46-11.82,3.74Z"/>
      <path class="cls-3" d="m739.06,619.98c3.95-.99,7.25,1.42,11.18,1.76-4.58,4.23-7.22,3.75-11.18-1.76Z"/>
      <path class="cls-3" d="m723.87,579.07c-2.2-.46-2.51-1.96-2.14-3.85.23-.67.63-1.05,1.39-.79.37.02.75-.01,1.11.06,1.97.4,5.1.58,5.12,2.39.02,2.32-3.06.8-4.63,1.49-.32.14-.56.45-.84.69Z"/>
      <path class="cls-3" d="m745.03,628.71c1.22.91,3.7-.03,3.78,2.17.05,1.36-1.39,3.2-2.87,2.73-1.72-.54-4.21-1.42-4.3-3.54-.08-1.74,2.35-.35,3.39-1.36Z"/>
      <path class="cls-3" d="m734.38,572.98c.01.55.96,1.56-.52,1.42-1.3-.12-1.76.37-1.75,1.56q-4.22-3.47-.88-7.45c.76,1.69,1.83,3.17,3.15,4.47Z"/>
      <path class="cls-3" d="m744.85,644.32c-3.15-4.99-3.05-5.36,1.72-6.61-.94,2.11-1.95,4.01-1.72,6.61Z"/>
      <path class="cls-3" d="m691.6,576.88c.39,1.77-2.05,1.37-2.13,2.77-2.24.48-.97-1.21-.66-1.4,1.55-.94,1-2.53,1.42-3.8.46.81.92,1.62,1.38,2.43Z"/>
      <path class="cls-3" d="m314.16,752.01c-1.37,1.15-2.55,1.22-3.66.47-.41-.27-.19-.93.26-1.25,1.3-.95,2.28-.29,3.41.78Z"/>
      <path class="cls-3" d="m593.88,596.6c-2.75-1.3-2.87-2.79-2.49-5.28.89,1.89,1.49,3.16,2.49,5.28Z"/>
      <path class="cls-3" d="m753.89,579.65c.75-1.22,1.49-2.44,2.24-3.67,1.42-.01,2.99.06,2.88,1.94-.08,1.41-.82,2.46-2.69,1.6-.61-.28-1.48,1.58-2.42.13Z"/>
      <path class="cls-3" d="m752.34,585.01c-2.29.15-3.61-1.69-6.08-2.71,1.27-.17,1.85-.25,2.43-.33.62.02,1.24-.01,1.85.06,1.88.21,2.88.98,1.79,2.99Z"/>
      <path class="cls-3" d="m698.86,591.64c.82-1.55,1.65-3.1,2.47-4.65,1.53,2.8-.53,3.69-2.47,4.65Z"/>
      <path class="cls-3" d="m56.33,711.64c-.32.17-.67.34-.95.52-3.47,2.2-3.89,2.21-13.72,1.59-6.29-.4-13.67-.69-18.31.14-3.78.67-7.87.38-11.3.82.19.17-.14.3-.55.41-3.9,1.13-3.93,1.51-.24,2.78,4.39,1.52,8.56,1.61,13.36.31.73-.2,1.37-.42,2.72-.38,2.81,1.33,2.33,1.76-2.39,2.32-2.06.24-4.76.17-6.52.64,6.43.53,7.77.44,13.2-.27,2.87-.38,6.76-.23,9.51.1,4.82.57,9.61.62,14.45.69,3.93.06,5.94.38,5.44,1.39-.19.39-.03.79-.07,1.18-.07.71-1.59,1.06-4.57,1.01-1.96-.03-3.93-.06-5.89-.13-3.69-.12-6.98-.15-7.49,1.01-.16.36-1.53.46-2.98.4-1.51-.06-2.21-.29-2.64-.64-1.62-1.34-2.49-1.47-8.25-1.48-4.09,0-4.17.7-4.64,1.42-.37.57-1.11,1.12-1.97,1.64-3.55,2.18-1.48,4.57-2.05,6.85-.15.59-.08,1.16-1.81,1.63-1.76.48-1.44,1.07.09,1.65.73.27,1.7.53,1.56.88-.31.77,1.95.9,4.17,1.33,4.2.8,8.33,1.83,11.04,2.92,1.83.73.9,1.94-.08,2.89-.8.77-.78,1.52.61,2.31,1.56.9.78,1.24-2.91,1.2-4.02-.05-4.99.51-5.17,1.27-.16.67-.07,1.34-.08,2.01-.11,5.01-.2,10.02-.35,15.02-.03,1.07-.06,2.12,1.41,3.18.26.19.67.45.37.57-4.24,1.78-.57,3.79-.72,5.68-.14,1.67-1.7,3.08-5.22,4.41-3.26,1.24-3.14,2.62-.12,4.02,1.3.6,1.51,1.16-.11,1.65-1.69.51-1.99,1.1-1.97,1.74.05,1.5-.08,3-.06,4.5.01.91.82,1.68,5.77,1.59,1.52-.03,1.83.23,2.04.54.6.93-3.52,2.81-7,3.18-.96.1-1.93.13-2.75-.05-3.25-.71-4.72-.09-5.27.44-.92.87-2.23,1.73-1.3,2.73.93,1.01.89,2.05-.23,3.03-.58.51-.47.94,2.06,1.16,2.83.26,2.97.81,2.12,1.27-.93.51-1.13,1.41-4.62,1.2-4.19-.25-3.83.41-3.9.96-.19,1.45-.15,2.92-.14,4.38,0,.6.02,1.17-1.76,1.63-1.33.35-1.3.85-1.29,1.33.02,1.3-.05,2.6-.07,3.9,0,.78.19,1.55-2.07,2.2-1.76.5-.81,1.08,1.54,1.41,3.68.52,4,.98,3.13,2.01-1.24,1.46-4.39,2.85-3.21,4.47.15.21-.24.49-.81.64-4.25,1.1-3.89,2.53-3.85,3.95.02.8-.82,1.48-4.92,1.47.91-41.54,1.83-83.09,2.74-124.63q.03-1.3,5.43-1.18c1.47.03,2.95.06,4.42.1,1.34,1.17,4.67,1.48,9.22,1.52,6.77.06,13.56.32,20.33.45,4.74.21,8.95.17,10.72-1.09,2.95.06,5.89.13,8.84.19Z"/>
      <path class="cls-3" d="m1437,686.12c-1.78-1.81-3.89-3.07-5.97-4.39-5,.21-9.79,1.68-14.62,2.9-10.51,2.81-20.87,6.18-31.07,10.15-22.94,8.34-46.74,12.69-70.37,17.79-9.12,1.97-17.97,5.16-27.13,7.02-13.3,2.7-26.56,5.68-39.85,8.45-6.3,1.32-12.63,2.54-18.89,4.08-10.18,2.51-20.6,3.59-30.77,6.12-10.07,2.5-20.33,3.85-30.47,5.9-20.53,4.15-41.2,7.35-61.81,10.93-9.75,1.35-19.23,4.35-29.04,5.36-3.31.34-6.64.02-9.92.53-3.6,2.46-7.62,2.29-11.62,2.09-17.5-.88-35.01-.76-52.52-.71-2.15,0-3.63-.56-4.73-2.76-1.81-3.61-4.74-5.02-8.6-4.85-3.56.16-7.21.56-11.08-.56,1.16-2.05,2.48-1.42,3.63-1.4,1.16.02,2.39.15,2.96-1.27.59-1.46.11-2.83-1.03-3.62-2.34-1.62-4.14-4.51-7.48-3.95-1.38.23-1.77-.87-1.98-2.03-.41-2.32-1.86-3.07-3.81-3.66-3.49-1.06-7.16-2.06-7.88-7.02-.21-1.44-1.48-2.2-2.78-2.5-3.52-.81-4.57-3.6-4.41-6.96.13-2.71-.24-4.89-2.38-6.54-.88-.68-1.31-1.78-.92-2.99.4-1.22,1.41-1.08,2.32-1.06,1.93.05,3.04-.89,3.14-3.05.07-.75.14-1.53.96-1.77,4.02-1.19,2.63-3.41,1.22-6.06-1.01-1.88-4.1-3.7-1-6.44.66-1.35,1.27-2.89.59-4.26-1-2.02-2.39-3.47.45-5.43,1.35-.93-.1-2.79-1.38-3.86-3.02-2.52-3-2.56-.49-5.41.74-2.01-.1-3.38-1.56-4.45-1.72-1.27-3.24-2.79-4.79-4.58,1.6.63,3.34,1.5,4.25-.54.97-2.18.17-4.32-1.54-5.64-1.82-1.4-2.67-2.32-.61-4.43,1.67-1.71.79-3.65-.69-5.22-1.94-2.05-4.23-3.77-5.46-6.56,1.37-1,3.43.79,4.05-1.42.5-1.76-.84-3-1.68-4.3-.93-1.44-1.82-2.89-2.25-4.82,1.23-.58,3.09,1.94,3.88-.74-2.81-2.99-4.56-6.76-6.56-10.35-.4-.71-.68-1.72-1.63-1.71-1.09.01-1.57,1.01-1.82,1.95-.86,3.24-2.75,6.01-3.53,9.28.11,1.7,1.71.74,2.37,1.5-.56,1.57-1.48,2.85-2.26,4.22-1.13,2-2.66,3.83-.11,6.12,1.27,1.14.27,2.65-.93,3.31-1.85,1.03-2.34,2.46-1.96,4.59.38,2.12-.68,3.85-1.67,5.55-.55.95-1.2,1.83-1.77,2.76-.75,1.21-1.91,2.44-1.07,4.03.79,1.5,2.31.51,3.73.84-.73,2.74-2.59,3.83-4.82,3.52-2.16-.3-3.41-2.38-4.48-4.31-.37-.66.36-.96.86-1.3,3.07-2.06,3.14-3.87.22-6.31-1-.83-2.12-1.47-2.83-2.67-.95-1.59-1.92-2.98-.4-4.99,1.55-2.04-.2-3.75-1.18-5.31-1.03-1.64-1.52-2.75.32-4.31,2.08-1.76.65-3.81-.34-5.64-1.69-2.81-3.45-5.63-3.18-9.2.09-1.1-1.25-2.99,1.18-3.2.35-.03.39-1,.1-1.32-2.87-3.17-3.19-7.75-5.36-11.31-1.11.17-1.49,1.11-1.72,2.09-.69,2.93-2.02,5.57-3.09,8.33-.85,2.19-1.72,4.36.33,6.54,1.3,1.37-.04,2.54-.87,3.48-1.99,2.25-3.86,4.34-1.55,7.72.9,1.33-.35,2.56-1.2,3.56-1.3,1.53-2.34,3.1-.8,5.63-2.52-.63-4.27-1.3-5.5-3.19,3.96-2.02,3.99-2.04,2.18-6.08-.41-.91-.58-1.58.19-2.3,2.19-2.04,1.38-3.59-.68-4.97-.69-.46-1.17-1.19-1.69-1.86-.83-1.08-1.26-2,.18-3.03,2.6-1.85,2.12-4.1.4-6.33-1.48-1.92-3.08-3.74-3.33-6.41-.09-1-.27-1.92,1.06-2.3,4.15-1.19,4.13-1.24,1.85-5.01-1.16-1.77-1.93-3.63-1.22-5.87.15-.47.2-1.02-.05-1.44-2.87-4.72-2.87-10.61-5.33-15.5-.45-.32-.94-.36-1.44-.16-3.09,5.41-5.13,11.39-7.76,17.05-.68,1.47-.03,2.47,1.37,2.71,2.81.5,2.1,1.89.82,3.48-.3.38-.64.72-.94,1.1-2.43,3.06-2.29,3.93,1.01,5.69-1.77,3.36-3.85,6.5-5.5,9.92-1.91,3.98-1.75,4.53,2,6.56-.92,2.18-2.15,4.06-4.04,5.38-1.36.95-1.46,1.99-.41,3.38,2.31,3.07,1.7,5.7-1.63,7.47-1.17.62-3.12.59-2.9,2.56.22,1.91,2.11,1.98,3.5,2.46.86.3,2.6-.17,2.26,1.41-.35,1.65-1.9.93-2.92.49-1.84-.8-3.65-1.43-5.67-1.13-1.09.16-2.13-.25-2.45-1.54-.3-1.21.82-1.28,1.44-1.73,2.15-1.56,2.03-3.14-.05-4.62-1.43-1.02-3.07-1.7-4.5-3.42,1.29-.37,2.74,1.27,3.44-.16.65-1.33-.35-2.61-.88-3.83-.44-1.02-1.01-1.98-1.76-2.76-1.94-2.01-3.51-3.75-.68-6.63,1.51-1.53-.4-6.43-3.05-8.77-1.17-1.03-2.48-1.85-2.54-3.8.99-1.36,2.82,1.34,3.48-.69.44-1.34-.53-2.62-.97-3.89-1.14-3.29-1.64-6.75-2.28-10.17-.22-1.17-.05-2.81-1.56-2.95-1.36-.13-1.8,1.36-2.32,2.44-1.93,3.97-3.63,8.07-5.63,12.01-1.46,2.88-.39,3.59,2.21,2.98.18,1.44-.37,2.54-1.14,3.42-1.55,1.75-2.17,3.54-1.54,6.07.49,1.95-3.46,7.39-5.74,8.35-2.54,1.07-3.63-1.47-5.2-2.72-.63-.5-1.28-1.43-.43-2.22,3.08-2.85.79-5.1-.66-7.38-.9-1.42-2.27-2.44-3.25-3.89,3.76-.86,4.04-1.7,1.86-4.92-1.07-1.57-2.36-3.03-2.77-5.03,1.06-.94,2.86.69,3.37-1.1.45-1.61-1.13-2.27-1.95-3.23-1.52-1.77-2.78-3.57-2.62-6.24.12-2.04-1.14-3.44-2.53-4.63-2.45-.23-2.2,2.34-3.18,3.62-.44.89-.98,1.68-1.63,2.4-1.89,2.1-.75,2.78,1.26,3-.41,1.49-1.11,2.79-1.73,4.13-.36.78-.95,1.92-.36,2.45,2.84,2.57.7,4.16-.77,5.99-1.54,1.91-1,3.64.54,5.25.48.5,1.07,1.18.24,1.83-.55.43-1.19,0-1.47-.54-.91-1.78-3.75-2.93-1.26-5.83,1.31-1.52.32-3.09-1.37-3.74-1.57-.61-2.19-1.46-1.66-3.36.54-1.91-.7-3.31-1.74-4.64-1.1-1.41-1.41-2.51.52-3.42,2.53-1.2,1.84-2.68.12-4.09-1.56-1.28-3.02-2.66-4.23-4.42,1.83.33,3.42-.29,4.26-2.01.77-1.58-.59-2.71-1.26-3.99-.86-1.64-3.42-2.73-1.6-5.33.79-.73,1.51-1.49,1.41-2.75-.88-2.36-2.14-4.28-4.67-4.7-1.52.93-1.28,2.44-1.05,3.92.28,1.84-.11,3.41-1.52,4.76-1.5-3.56-1.8-8.1-6.36-8.98-2.09,1.32-2.35,3.78-3.12,5.93-.92,1.96,1,3.75.28,5.7-2.98,3.5-6.23,5.33-10.33,2.03q-2.66,1.39-.19,4.45c2.27,1.79,4.87,1.59,8.32,1.03-2.55,2.32-4,4.08-1.82,6.9.96,1.24-.63,1.69-1.6,1.96-1.03.05-2.01-.47-3.06-.22-2.4.57-3.04,2.28-1.77,4.74,1.4.55,2.89.72,4.29,1.21,1.38,1.5-.29,2.04-.84,2.78-.66.88-1.64.7-2.49.09-.9-.64-1.32-1.69-1.87-2.63-1.82-3.09-4.29-4.68-8.13-3.8,2.57-1.28,2.41-2.79.73-4.29-1.23-1.1-2.36-2.37-3.8-3.17-1.98.02-3.83-.24-4.77-2.85,2.03.31,4.23-.7,5.64,1.78,2.27,1.59,3.27-1.27,3.01-1.94-.94-2.45-.12-5.41-1.93-7.53q-4.57,3.27-9.09-.99c-.26-.24-.49-.53-.74-.78-1.01-1.17-2.55-.72-3.93-1.51,1.17-1.43,3.04-1.04,4.16-2.21.15-2.13-2.16-2.89-2.28-4.87-.83-2.43-2.2-3.76-4.72-2.76-.45.3-.76.71-.86,1.29.01.12-.02.3.04.35,3.22,3.01.97,5.04-1.07,7.11-.85,1.17-1.51,2.54-2.49,3.56-2.29,2.39-.03,4.54-.07,6.73-.03,1.68-4.28,2.47-1.5,5.74.83.97-.37,2.03-1.11,2.78-1.26,1.28-2.82,2.11-4.22,3.18-.57.43-1.14,1-1.04,1.8.11.87.93.93,1.56,1.2,1.04.44,2.91-.61,3.01,1.46.07,1.53-1.03,2.74-2.27,3.5-1.36.84-2.75,1.1-4.18,0-2.81-2.15-3.07-2.66-4.45-9.44.56-.71,1.27-.24,1.92-.26.71-.02,1.44-.06,1.77-.84.42-1-.2-1.69-.89-2.16-2.43-1.66-3.76-4.28-5.16-6.85-.17-1.21-.11-2.59-1.74-2.7-1.34-.1-2.49.25-3.41,1.37-.46.56.06,2.18-1.59,1.5-1.36-.56-1.71-1.49-1.65-2.86.1-2.26-.12-4.49-.46-6.71-.25-1.64-.74-2.73-2.46-1.57,0,63.24.02,126.47-.07,189.71,0,2.57.46,3.07,2.82,3.07,112.14-.08,224.28-.07,336.42-.07,1.79-2.03,3.99-2.84,6.54-2.68,3.27.21,6.17-1.04,9.26-2.14,5.72-2.04,11.84-2.7,17.8-3.9,1.3-.26,1.97,1.09,2.69,2.04,1.19,1.56,2.73,2.75,4.5,1.83,4.62-2.39,9.48-1.41,14.25-1.54,3.34-.1,6.53-.33,9.77-1.63,3.92-1.57,8.2-.48,12.31-.64,3.42-.13,6.86.48,8.23-4.61.54-2.01,3.05-2.75,4.82-.58,1.4,1.71,3.01,2.16,4.95,1.7,4.45-1.06,8.91.92,13.37-.14,3.25-.77,5.79-1.58,5.68-6.33-.07-3.2,3.02-4.43,5.47-5.46,2.24-.95,2.89.95,3.68,2.74,1.01,2.31,3.04,3.01,5.21,2.88,6.47-.39,13.11,1.41,19.38-1.75.97-.49,2.04-.13,3.01.34,4.74,2.32,9.51,2.28,13.81-.85,5.81-4.23,12.13-2.94,18.35-2.62,2.88.15,5.7.63,8.51-.42.77-.29,1.58-.31,2.39-.21,19.35,2.35,38.77.51,58.15,1.03,2.87.08,5.22-.93,6-4.38.23-1.02.75-2.15,1.85-1.72,4.34,1.69,8.66.02,12.99.12,2.28.05,3.45,1.38,5.07,2.99,3.72,3.69,6.03,9.37,11.82,10.41,1.62.29,3.15.84,4.67-.01,2.24-1.25,4.61-1.48,7.04-1.35,8.09.45,16.03-.21,23.77-3.06,2.24-.82,4.1-1.71,4.34-4.56.25-2.88.04-5.59-2.84-6.94-1.84-.86-2.6-1.76-.35-3.13,3.16-1.92,2.6-5.26,2.62-8.33.02-2.72.68-4.58,3.61-4.73,3.9-.2,4.72.46,4.75,4.72.02,3.13.19,6.19,1,9.25.74,2.8.66,5.58-1.2,8.15-1.78,2.46-1.3,5.48-.85,8.31.28,1.75,1.3,1.9,2.43.69.67-.71,1.05-1.64,1.38-2.58,1.12-3.2,3.12-4.5,6.22-3.51.73.15,1.45.13,2.13-.24,1.08-1.14.37-2.56.46-3.84.22-3.16,1.59-4.03,4.5-2.76.94,4.13.26,8.31.46,12.46.09,1.82-.21,3.69.61,5.42,1.02,1.07,1.61.03,1.63-.7.1-3.04,2-5.15,3.04-7.7,1.81-4.43,1.84-9.17,1.26-13.89-.76-6.18-.82-6.19,4.2-9.16.83-.49,1.53-1.06,1.99-1.95v-3c-2.65-3.92-2.65-9.29,0-13.5v-20.25Z"/>
      <path class="cls-3" d="m774.95,570.26c1.46.08,2.87.72,4.33.53,1.65-.21,3.34-.92,3.21-3.16-.12-2.17-1.84-2.28-3.36-2.07-.41.06-.79.25-1.19,0-1.07-.03-1.64-1.04-2.36-1.72-.89-.85-1.22-1.95.12-2.55,3.1-1.37.91-2.57-.04-3.75-1.6-1.96-4.2-2.98-4.35-6.34.89-.75,1.44.17,2.08.38.95.33,2.03,1.46,2.81.42.52-.7-.08-2.08-.44-3.1-1.05-2.93-2.55-5.33-4.98-6.94-1.81-1.21-2.42-2.63.33-3.48,1.44-.45,2.24-1.58,2.51-3.4.32-2.1-1.08-2.38-2.05-3.24-1.17-1.04-2.37-2.09-3.38-3.34-2.14-2.64-1.93-3.47,1.09-4.22,1.53-.38,1.45-1.18.7-2.25-1.27-1.81-2.64-3.53-3.97-5.28v51.74c.55.13,1.38-.32,1.47.8.18,2.56.4,5.12.4,7.68,0,3.02,1.18,4.27,3.6,3.76,1.23-.26.27-1.08.45-1.58.6-1.71,1.97-1.88,3.15-1.59.15.04.25.09.32.15,1.34-.48,2.68-1.41,4.02-1.65.54-.17,1.04-.38,1.3-.9-.76-2.23-2.69-1.85-4.11-2.58-.59-.11-1.23-.03-1.78-.34-.59-.33-1.74.24-1.75-.91-.01-1.37,1.13-.98,1.88-1.08Z"/>
      <path class="cls-3" d="m770.34,576.68c-.39,0-.6-.13-.86-.21-.32-.1-.44-.24.04-.31,1.13-.17.33-.31-.02-.45-.58-.24-1.53-.36-1.58-.77.32-.09.53.02.76.05.35.04.74.18,1.02.05.19-.08-.03-.25-.16-.38-.38-.35-.93-.65-1.81-.84-.66-.15-.88-.32.12-.42.52-.05.81-.19.91-.41.11-.25-.39-.29-.75-.39-.43-.13-.86-.25-1.23-.4-.78-.32-.7-.42.4-.51.56-.05.53-.14.26-.27-.46-.22-.96-.43-1.44-.64v6.27c.2.02.5-.04.53.1.07.31.15.62.15.93,0,.37.43.52,1.31.46.45-.03.1-.13.16-.19.22-.21.71-.23,1.15-.19.47.04-.3.18.06.26.32,0,.64.01.84-.12-.23-.4.87-.25,1.15-.44-.28-.27-.98-.22-1.5-.31-.22-.01-.45,0-.65-.04-.22-.04-.63.03-.63-.11,0-.17.41-.12.68-.13.53,0,1.04.09,1.57.06.6-.03,1.22-.11,1.17-.38-.05-.26-.67-.28-1.22-.25-.15,0-.29.03-.43,0Z"/>
      <path class="cls-3" d="m767.17,563.97c-.19,0-.3-.31-.43-.52-.16-.26-.22-.59.02-.77.56-.42.17-.78,0-1.14-.29-.6-.76-.9-.79-1.92.16-.23.26.05.38.12.17.1.37.44.51.13.09-.21-.01-.63-.08-.94-.19-.89-.46-1.61-.91-2.1-.33-.37-.44-.8.06-1.06.26-.14.41-.48.46-1.03.06-.64-.2-.72-.37-.98-.21-.32-.43-.63-.61-1.01-.39-.8-.35-1.05.2-1.28.28-.11.26-.36.13-.68-.23-.55-.48-1.07-.72-1.6v15.69c.1.04.25-.1.27.24.03.78.07,1.55.07,2.33,0,.91.22,1.3.65,1.14.22-.08.05-.33.08-.48.11-.52.36-.57.57-.48.24.1-.15.46.03.66.16,0,.32.03.42-.3-.12-.99.44-.62.57-1.1-.14-.67-.49-.56-.75-.78-.11-.03-.22-.01-.32-.1-.11-.1-.32.07-.32-.27,0-.42.2-.3.34-.33.26.02.52.22.79.16.3-.06.61-.28.58-.96-.02-.66-.34-.69-.61-.63-.07.02-.14.08-.22,0Z"/>
      <path class="cls-3" d="m767.17,556.3c-.19,0-.3-.31-.43-.52-.16-.26-.22-.59.02-.77.56-.42.17-.78,0-1.14-.29-.6-.76-.9-.79-1.92.16-.23.26.05.38.12.17.1.37.44.51.13.09-.21-.01-.63-.08-.94-.19-.89-.46-1.61-.91-2.1-.33-.37-.44-.8.06-1.06.26-.14.41-.48.46-1.03.06-.64-.2-.72-.37-.98-.21-.32-.43-.63-.61-1.01-.39-.8-.35-1.05.2-1.28.28-.11.26-.36.13-.68-.23-.55-.48-1.07-.72-1.6v15.69c.1.04.25-.1.27.24.03.78.07,1.55.07,2.33,0,.91.22,1.3.65,1.14.22-.08.05-.33.08-.48.11-.52.36-.57.57-.48.24.1-.15.46.03.66.16,0,.32.03.42-.3-.12-.99.44-.62.57-1.1-.14-.67-.49-.56-.75-.78-.11-.03-.22-.01-.32-.1-.11-.1-.32.07-.32-.27,0-.42.2-.3.34-.33.26.02.52.22.79.16.3-.06.61-.28.58-.96-.02-.66-.34-.69-.61-.63-.07.02-.14.08-.22,0Z"/>
      <path class="cls-3" d="m767.17,551.63c-.19,0-.3-.31-.43-.52-.16-.26-.22-.59.02-.77.56-.42.17-.78,0-1.14-.29-.6-.76-.9-.79-1.92.16-.23.26.05.38.12.17.1.37.44.51.13.09-.21-.01-.63-.08-.94-.19-.89-.46-1.61-.91-2.1-.33-.37-.44-.8.06-1.06.26-.14.41-.48.46-1.03.06-.64-.2-.72-.37-.98-.21-.32-.43-.63-.61-1.01-.39-.8-.35-1.05.2-1.28.28-.11.26-.36.13-.68-.23-.55-.48-1.07-.72-1.6v15.69c.1.04.25-.1.27.24.03.78.07,1.55.07,2.33,0,.91.22,1.3.65,1.14.22-.08.05-.33.08-.48.11-.52.36-.57.57-.48.24.1-.15.46.03.66.16,0,.32.03.42-.3-.12-.99.44-.62.57-1.1-.14-.67-.49-.56-.75-.78-.11-.03-.22-.01-.32-.1-.11-.1-.32.07-.32-.27,0-.42.2-.3.34-.33.26.02.52.22.79.16.3-.06.61-.28.58-.96-.02-.66-.34-.69-.61-.63-.07.02-.14.08-.22,0Z"/>
      <path class="cls-3" d="m765.5,543.61c.13,0,.21-.31.3-.52.11-.26.15-.59-.02-.77-.39-.42-.12-.78,0-1.14.2-.6.53-.9.55-1.92-.11-.23-.18.05-.26.12-.12.1-.26.44-.35.13-.07-.21,0-.63.06-.94.13-.89.32-1.61.63-2.1.23-.37.3-.8-.04-1.06-.18-.14-.28-.48-.32-1.03-.04-.64.14-.72.26-.98.15-.32.3-.63.43-1.01.27-.8.24-1.05-.14-1.28-.19-.11-.18-.36-.09-.68.16-.55.33-1.07.5-1.6v15.69c-.07.04-.17-.1-.18.24-.02.78-.05,1.55-.05,2.33,0,.91-.15,1.3-.45,1.14-.16-.08-.03-.33-.06-.48-.08-.52-.25-.57-.4-.48-.16.1.11.46-.02.66-.11,0-.22.03-.29-.3.08-.99-.3-.62-.4-1.1.1-.67.34-.56.52-.78.07-.03.15-.01.22-.1.07-.1.22.07.22-.27,0-.42-.14-.3-.24-.33-.18.02-.36.22-.54.16-.21-.06-.42-.28-.4-.96.02-.66.23-.69.42-.63.05.02.1.08.15,0Z"/>
      <path class="cls-3" d="m764.11,542.61c.26,0,.4-.31.57-.52.21-.26.3-.59-.03-.77-.75-.42-.22-.78.01-1.14.39-.6,1.02-.9,1.06-1.92-.22-.23-.35.05-.5.12-.23.1-.49.44-.68.13-.13-.21.02-.63.11-.94.26-.89.62-1.61,1.21-2.1.44-.37.59-.8-.08-1.06-.35-.14-.54-.48-.61-1.03-.08-.64.26-.72.5-.98.28-.32.57-.63.82-1.01.52-.8.47-1.05-.27-1.28-.37-.11-.35-.36-.17-.68.31-.55.64-1.07.96-1.6v15.69c-.13.04-.34-.1-.36.24-.04.78-.1,1.55-.1,2.33,0,.91-.29,1.3-.87,1.14-.3-.08-.07-.33-.11-.48-.15-.52-.48-.57-.77-.48-.31.1.2.46-.04.66-.21,0-.43.03-.56-.3.15-.99-.58-.62-.77-1.1.18-.67.65-.56,1-.78.14-.03.3-.01.43-.1.14-.1.42.07.42-.27,0-.42-.27-.3-.46-.33-.35.02-.69.22-1.05.16-.4-.06-.81-.28-.78-.96.03-.66.45-.69.82-.63.1.02.19.08.29,0Z"/>
      <path class="cls-3" d="m767.17,540.72c-.19,0-.3-.31-.43-.52-.16-.26-.22-.59.02-.77.56-.42.17-.78,0-1.14-.29-.6-.76-.9-.79-1.92.16-.23.26.05.38.12.17.1.37.44.51.13.09-.21-.01-.63-.08-.94-.19-.89-.46-1.61-.91-2.1-.33-.37-.44-.8.06-1.06.26-.14.41-.48.46-1.03.06-.64-.2-.72-.37-.98-.21-.32-.43-.63-.61-1.01-.39-.8-.35-1.05.2-1.28.28-.11.26-.36.13-.68-.23-.55-.48-1.07-.72-1.6v15.69c.1.04.25-.1.27.24.03.78.07,1.55.07,2.33,0,.91.22,1.3.65,1.14.22-.08.05-.33.08-.48.11-.52.36-.57.57-.48.24.1-.15.46.03.66.16,0,.32.03.42-.3-.12-.99.44-.62.57-1.1-.14-.67-.49-.56-.75-.78-.11-.03-.22-.01-.32-.1-.11-.1-.32.07-.32-.27,0-.42.2-.3.34-.33.26.02.52.22.79.16.3-.06.61-.28.58-.96-.02-.66-.34-.69-.61-.63-.07.02-.14.08-.22,0Z"/>
      <path class="cls-3" d="m767.17,530.35c-.19,0-.3-.11-.43-.19-.16-.09-.22-.21.02-.27.56-.15.17-.28,0-.4-.29-.21-.76-.32-.79-.68.16-.08.26.02.38.04.17.04.37.16.51.05.09-.08-.01-.22-.08-.33-.19-.32-.46-.57-.91-.75-.33-.13-.44-.28.06-.38.26-.05.41-.17.46-.37.06-.23-.2-.26-.37-.35-.21-.11-.43-.23-.61-.36-.39-.28-.35-.37.2-.45.28-.04.26-.13.13-.24-.23-.2-.48-.38-.72-.57v5.58c.1.01.25-.03.27.09.03.28.07.55.07.83,0,.33.22.46.65.41.22-.03.05-.12.08-.17.11-.18.36-.2.57-.17.24.03-.15.16.03.23.16,0,.32.01.42-.11-.12-.35.44-.22.57-.39-.14-.24-.49-.2-.75-.28-.11-.01-.22,0-.32-.04-.11-.04-.32.03-.32-.1,0-.15.2-.11.34-.12.26,0,.52.08.79.06.3-.02.61-.1.58-.34-.02-.23-.34-.25-.61-.22-.07,0-.14.03-.22,0Z"/>
      <rect class="cls-3" x="764" y="526" width="2" height="3"/>
      <path class="cls-3" d="m765.66,524.9c-.04.07-.11.11-.16.17s-.07.16-.02.21c.06-.06.13-.11.2-.16.02-.01.04-.02.06-.01.02.01.01.05,0,.07-.11.26-.23.51-.34.77,0,.02.03.01.05,0,.11-.15.23-.3.34-.46.02.21-.04.42-.1.62.12-.29.23-.59.33-.89-.03.08-.11.14-.19.18.12-.32.27-.63.45-.92l-.21.24c.1-.21.21-.43.33-.63-.11.1-.23.17-.37.22.13-.19.23-.4.31-.61-.06.02-.12.05-.16.09.03-.05.06-.1.08-.15"/>
      <path class="cls-3" d="m765.84,520.07c.13.02.25.06.36.14-.03-.03-.08-.02-.12-.03s-.08-.05-.06-.09"/>
      <path class="cls-3" d="m765.92,519.68l.04-1.4c0-.27.01-.54.02-.81"/>
      <path class="cls-3" d="m765.78,517.09c.07.04.13.11.15.19-.04-.07-.12-.11-.2-.11-.05,0-.11,0-.12-.04-.32.14-.57.42-.68.75"/>
      <path class="cls-3" d="m765.98,520.12c.22.22.24.56.22.87-.02.34-.06.68-.14,1.01-.05.2-.11.41-.14.62-.02.19-.02.38-.05.56-.05.34-.18.66-.34.96-.22.43-.49.83-.76,1.23-.22.32-.43.64-.65.97"/>
      <path class="cls-3" d="m766.38,518.85c-.28-.02-.57.01-.85.09-.18.05-.36.13-.48.27-.05.06-.08.13-.05.2.03.07.12.1.2.11.26.03.54-.06.73-.24.04-.03.07-.09.04-.13-.01-.02-.04-.03-.06-.03-.11-.02-.22-.01-.32.03"/>
      <path class="cls-3" d="m1468.45,607.68c0,63.24-.02,126.47.07,189.71,0,2.57-.52,3.07-3.19,3.07-126.84-.08-253.67-.07-380.51-.07-2.02-2.03-4.51-2.84-7.4-2.68-3.7.21-6.97-1.04-10.47-2.14-6.48-2.04-13.39-2.7-20.13-3.9-1.47-.26-2.22,1.09-3.04,2.04-1.34,1.56-3.09,2.75-5.09,1.83-5.23-2.39-10.72-1.41-16.12-1.54-3.77-.1-7.38-.33-11.05-1.63-4.43-1.57-9.27-.48-13.93-.64-3.86-.13-7.75.48-9.31-4.61-.61-2.01-3.45-2.75-5.45-.58-1.58,1.71-3.41,2.16-5.6,1.7-5.03-1.06-10.07.92-15.13-.14-3.67-.77-6.55-1.58-6.43-6.33.08-3.2-3.42-4.43-6.19-5.46-2.53-.95-3.27.95-4.16,2.74-1.14,2.31-3.44,3.01-5.9,2.88-7.32-.39-14.82,1.41-21.92-1.75-1.09-.49-2.31-.13-3.4.34-5.36,2.32-10.76,2.28-15.62-.85-6.57-4.23-13.72-2.94-20.76-2.62-3.26.15-6.45.63-9.62-.42-.87-.29-1.78-.31-2.7-.21-21.89,2.35-43.85.51-65.77,1.03-3.24.08-5.9-.93-6.79-4.38-.26-1.02-.85-2.15-2.09-1.72-4.91,1.69-9.8.02-14.69.12-2.58.05-3.9,1.38-5.73,2.99-4.21,3.69-6.82,9.37-13.37,10.41-1.83.29-3.56.84-5.29-.01-2.53-1.25-5.21-1.48-7.96-1.35-9.14.45-18.13-.21-26.89-3.06-2.53-.82-4.63-1.71-4.91-4.56-.28-2.88-.04-5.59,3.22-6.94,2.08-.86,2.94-1.76.4-3.13-3.57-1.92-2.94-5.26-2.96-8.33-.02-2.72-.77-4.58-4.09-4.73-4.41-.2-5.34.46-5.37,4.72-.02,3.13-.22,6.19-1.13,9.25-.84,2.8-.75,5.58,1.36,8.15,2.01,2.46,1.47,5.48.96,8.31-.31,1.75-1.46,1.9-2.75.69-.76-.71-1.19-1.64-1.56-2.58-1.27-3.2-3.53-4.5-7.04-3.51-.83.15-1.64.13-2.41-.24-1.23-1.14-.42-2.56-.52-3.84-.25-3.16-1.8-4.03-5.1-2.76-1.06,4.13-.29,8.31-.52,12.46-.1,1.82.24,3.69-.69,5.42-1.15,1.07-1.82.03-1.84-.7-.11-3.04-2.26-5.15-3.44-7.7-2.05-4.43-2.08-9.17-1.43-13.89.86-6.18.93-6.19-4.75-9.16-.94-.49-1.73-1.06-2.26-1.95v-3c2.99-3.92,2.99-9.29,0-13.5v-20.25c2.01-1.81,4.4-3.07,6.76-4.39,5.65.21,11.07,1.68,16.53,2.9,11.89,2.81,23.61,6.18,35.14,10.15,25.95,8.34,52.86,12.69,79.6,17.79,10.31,1.97,20.33,5.16,30.68,7.02,15.05,2.7,30.04,5.68,45.07,8.45,7.13,1.32,14.29,2.54,21.37,4.08,11.51,2.51,23.3,3.59,34.8,6.12,11.39,2.5,22.99,3.85,34.46,5.9,23.22,4.15,46.6,7.35,69.92,10.93,11.03,1.35,21.75,4.35,32.85,5.36,3.75.34,7.51.02,11.23.53,4.07,2.46,8.62,2.29,13.14,2.09,19.79-.88,39.6-.76,59.4-.71,2.43,0,4.1-.56,5.35-2.76,2.05-3.61,5.36-5.02,9.73-4.85,4.02.16,8.16.56,12.53-.56-1.31-2.05-2.8-1.42-4.11-1.4-1.31.02-2.71.15-3.35-1.27-.66-1.46-.13-2.83,1.16-3.62,2.65-1.62,4.68-4.51,8.46-3.95,1.56.23,2.01-.87,2.24-2.03.46-2.32,2.1-3.07,4.31-3.66,3.94-1.06,8.1-2.06,8.91-7.02.24-1.44,1.68-2.2,3.14-2.5,3.98-.81,5.17-3.6,4.99-6.96-.15-2.71.27-4.89,2.7-6.54,1-.68,1.48-1.78,1.04-2.99-.45-1.22-1.59-1.08-2.63-1.06-2.19.05-3.43-.89-3.55-3.05-.08-.75-.16-1.53-1.09-1.77-4.55-1.19-2.98-3.41-1.38-6.06,1.14-1.88,4.63-3.7,1.13-6.44-.74-1.35-1.43-2.89-.66-4.26,1.13-2.02,2.7-3.47-.51-5.43-1.53-.93.12-2.79,1.56-3.86,3.42-2.52,3.39-2.56.55-5.41-.84-2.01.11-3.38,1.76-4.45,1.95-1.27,3.66-2.79,5.42-4.58-1.81.63-3.78,1.5-4.81-.54-1.1-2.18-.2-4.32,1.74-5.64,2.06-1.4,3.02-2.32.69-4.43-1.89-1.71-.9-3.65.78-5.22,2.19-2.05,4.78-3.77,6.18-6.56-1.55-1-3.88.79-4.59-1.42-.56-1.76.95-3,1.9-4.3,1.05-1.44,2.05-2.89,2.55-4.82-1.39-.58-3.5,1.94-4.39-.74,3.18-2.99,5.16-6.76,7.42-10.35.45-.71.77-1.72,1.85-1.71,1.24.01,1.77,1.01,2.05,1.95.97,3.24,3.11,6.01,3.99,9.28-.12,1.7-1.94.74-2.68,1.5.63,1.57,1.68,2.85,2.56,4.22,1.27,2,3.01,3.83.12,6.12-1.43,1.14-.3,2.65,1.05,3.31,2.09,1.03,2.65,2.46,2.21,4.59-.43,2.12.77,3.85,1.89,5.55.62.95,1.35,1.83,2.01,2.76.85,1.21,2.16,2.44,1.21,4.03-.89,1.5-2.61.51-4.21.84.83,2.74,2.93,3.83,5.45,3.52,2.44-.3,3.85-2.38,5.06-4.31.41-.66-.41-.96-.98-1.3-3.47-2.06-3.55-3.87-.25-6.31,1.13-.83,2.4-1.47,3.21-2.67,1.07-1.59,2.18-2.98.45-4.99-1.75-2.04.22-3.75,1.33-5.31,1.17-1.64,1.72-2.75-.36-4.31-2.35-1.76-.73-3.81.39-5.64,1.92-2.81,3.91-5.63,3.59-9.2-.1-1.1,1.41-2.99-1.34-3.2-.4-.03-.44-1-.12-1.32,3.25-3.17,3.61-7.75,6.06-11.31,1.25.17,1.68,1.11,1.94,2.09.78,2.93,2.29,5.57,3.49,8.33.96,2.19,1.95,4.36-.38,6.54-1.47,1.37.04,2.54.98,3.48,2.25,2.25,4.36,4.34,1.76,7.72-1.02,1.33.4,2.56,1.36,3.56,1.47,1.53,2.65,3.1.91,5.63,2.86-.63,4.83-1.3,6.22-3.19-4.48-2.02-4.52-2.04-2.47-6.08.46-.91.65-1.58-.21-2.3-2.48-2.04-1.57-3.59.77-4.97.78-.46,1.33-1.19,1.91-1.86.94-1.08,1.43-2-.21-3.03-2.94-1.85-2.4-4.1-.46-6.33,1.67-1.92,3.49-3.74,3.76-6.41.1-1,.3-1.92-1.2-2.3-4.69-1.19-4.67-1.24-2.09-5.01,1.31-1.77,2.19-3.63,1.39-5.87-.17-.47-.23-1.02.05-1.44,3.25-4.72,3.24-10.61,6.03-15.5.51-.32,1.06-.36,1.63-.16,3.5,5.41,5.81,11.39,8.77,17.05.77,1.47.03,2.47-1.55,2.71-3.18.5-2.38,1.89-.93,3.48.34.38.72.72,1.06,1.1,2.75,3.06,2.59,3.93-1.14,5.69,2,3.36,4.36,6.5,6.22,9.92,2.16,3.98,1.97,4.53-2.26,6.56,1.04,2.18,2.43,4.06,4.57,5.38,1.54.95,1.65,1.99.46,3.38-2.61,3.07-1.92,5.7,1.85,7.47,1.32.62,3.53.59,3.28,2.56-.25,1.91-2.38,1.98-3.96,2.46-.98.3-2.94-.17-2.55,1.41.4,1.65,2.15.93,3.3.49,2.08-.8,4.12-1.43,6.42-1.13,1.23.16,2.41-.25,2.77-1.54.34-1.21-.93-1.28-1.63-1.73-2.43-1.56-2.3-3.14.05-4.62,1.62-1.02,3.47-1.7,5.08-3.42-1.46-.37-3.1,1.27-3.9-.16-.74-1.33.39-2.61.99-3.83.5-1.02,1.14-1.98,1.99-2.76,2.19-2.01,3.97-3.75.77-6.63-1.7-1.53.45-6.43,3.45-8.77,1.32-1.03,2.8-1.85,2.87-3.8-1.11-1.36-3.19,1.34-3.94-.69-.49-1.34.6-2.62,1.1-3.89,1.29-3.29,1.85-6.75,2.58-10.17.25-1.17.06-2.81,1.76-2.95,1.54-.13,2.03,1.36,2.62,2.44,2.18,3.97,4.11,8.07,6.37,12.01,1.65,2.88.45,3.59-2.5,2.98-.21,1.44.41,2.54,1.29,3.42,1.76,1.75,2.46,3.54,1.74,6.07-.55,1.95,3.91,7.39,6.49,8.35,2.87,1.07,4.11-1.47,5.88-2.72.72-.5,1.45-1.43.49-2.22-3.49-2.85-.89-5.1.75-7.38,1.02-1.42,2.56-2.44,3.67-3.89-4.26-.86-4.57-1.7-2.1-4.92,1.2-1.57,2.66-3.03,3.14-5.03-1.19-.94-3.24.69-3.81-1.1-.51-1.61,1.28-2.27,2.2-3.23,1.72-1.77,3.14-3.57,2.97-6.24-.13-2.04,1.29-3.44,2.86-4.63,2.77-.23,2.49,2.34,3.6,3.62.49.89,1.11,1.68,1.85,2.4,2.14,2.1.85,2.78-1.43,3,.47,1.49,1.25,2.79,1.95,4.13.41.78,1.07,1.92.41,2.45-3.21,2.57-.79,4.16.87,5.99,1.74,1.91,1.13,3.64-.61,5.25-.54.5-1.21,1.18-.27,1.83.62.43,1.35,0,1.66-.54,1.02-1.78,4.24-2.93,1.43-5.83-1.48-1.52-.36-3.09,1.54-3.74,1.77-.61,2.48-1.46,1.87-3.36-.61-1.91.79-3.31,1.97-4.64,1.25-1.41,1.6-2.51-.59-3.42-2.87-1.2-2.08-2.68-.14-4.09,1.76-1.28,3.41-2.66,4.78-4.42-2.07.33-3.87-.29-4.81-2.01-.87-1.58.67-2.71,1.43-3.99.97-1.64,3.87-2.73,1.82-5.33-.89-.73-1.71-1.49-1.59-2.75,1-2.36,2.42-4.28,5.29-4.7,1.72.93,1.44,2.44,1.19,3.92-.31,1.83.12,3.41,1.72,4.76,1.7-3.56,2.04-8.1,7.19-8.98,2.37,1.32,2.66,3.78,3.52,5.93,1.04,1.96-1.13,3.75-.31,5.7,3.37,3.5,7.04,5.33,11.68,2.03q3.01,1.39.22,4.45c-2.57,1.79-5.51,1.59-9.41,1.03,2.88,2.32,4.53,4.08,2.06,6.9-1.09,1.24.71,1.69,1.81,1.96,1.16.05,2.28-.47,3.46-.22,2.71.57,3.44,2.28,2,4.74-1.58.55-3.26.72-4.85,1.21-1.57,1.5.33,2.04.95,2.78.75.88,1.85.7,2.82.09,1.02-.64,1.49-1.69,2.12-2.63,2.05-3.09,4.85-4.68,9.2-3.8-2.9-1.28-2.73-2.79-.82-4.29,1.4-1.1,2.67-2.37,4.3-3.17,2.24.02,4.33-.24,5.39-2.85-2.29.31-4.79-.7-6.38,1.78-2.56,1.59-3.7-1.27-3.41-1.94,1.06-2.45.14-5.41,2.18-7.53q5.16,3.27,10.29-.99c.29-.24.55-.53.83-.78,1.14-1.17,2.88-.72,4.44-1.51-1.32-1.43-3.44-1.04-4.7-2.21-.17-2.13,2.44-2.89,2.58-4.87.94-2.43,2.49-3.76,5.34-2.76.51.3.86.71.97,1.29-.01.12.02.3-.05.35-3.64,3.01-1.09,5.04,1.21,7.11.96,1.17,1.71,2.54,2.81,3.56,2.6,2.39.03,4.54.07,6.73.03,1.68,4.84,2.47,1.7,5.74-.93.97.42,2.03,1.25,2.78,1.43,1.28,3.19,2.11,4.78,3.18.64.44,1.29,1,1.18,1.8-.13.87-1.05.93-1.77,1.2-1.18.44-3.29-.61-3.41,1.46-.08,1.53,1.17,2.74,2.57,3.5,1.53.84,3.11,1.1,4.73,0,3.18-2.15,3.48-2.66,5.03-9.44-.64-.72-1.44-.24-2.17-.26-.8-.02-1.63-.06-2-.84-.48-1,.23-1.69,1.01-2.16,2.75-1.66,4.25-4.28,5.83-6.85.19-1.21.13-2.59,1.97-2.7,1.51-.1,2.82.25,3.86,1.37.52.56-.07,2.18,1.8,1.5,1.54-.56,1.94-1.49,1.87-2.86-.11-2.26.13-4.49.51-6.71.28-1.64.83-2.73,2.79-1.57Z"/>
    </g>
    <g>
      <path class="cls-3" d="m1229.92,734.14c-108.83,21.67-220.59,23.36-331.55,22.19-10-.11-20.39-.15-29.46,4.06s-16.37,14.03-14.29,23.81c2.1,9.85,12.27,15.61,21.78,18.92,19.87,6.92,41.12,8.66,62.12,10.01,50.24,3.22,100.6,4.48,150.94,3.78,50.51-.7,101.62-3.47,149.88-18.36,9.75-3.01,19.65-6.68,27.02-13.73,7.37-7.04,11.63-18.27,7.82-27.73-3.51-8.71-12.66-13.75-21.59-16.67-13.76-4.5-28.6-5.62-42.88-3.25"/>
      <path class="cls-3" d="m1229.52,732.69c-31.92,6.34-64.16,11-96.53,14.34-32.27,3.33-64.65,5.38-97.07,6.58-32.47,1.2-64.96,1.55-97.45,1.49-15.81-.03-31.66-.55-47.47-.27-13.11.23-27.41,2.91-34.88,14.89-3.12,5.01-4.34,11.18-2.4,16.86,1.81,5.31,5.84,9.38,10.45,12.4,5.42,3.55,11.66,5.71,17.83,7.53,7.43,2.19,15.03,3.74,22.68,4.88,15.61,2.34,31.42,3.16,47.16,4.06,16.52.94,33.06,1.68,49.6,2.2,32.9,1.04,65.83,1.27,98.73.6,31.22-.64,62.5-2.35,93.34-7.48,15.48-2.58,30.83-6.03,45.84-10.64,12.41-3.81,25.8-8.91,33.08-20.37,3.22-5.07,5.16-11.25,4.55-17.29-.58-5.83-3.53-11-7.89-14.85-4.46-3.94-9.94-6.54-15.54-8.43-7.17-2.42-14.68-3.88-22.23-4.45-7.37-.56-14.75-.17-22.03,1.01-1.9.31-1.09,3.2.8,2.89,14.59-2.36,29.89-1.15,43.83,3.84,5.69,2.04,11.36,4.98,15.39,9.59,4.04,4.61,5.55,10.7,4.38,16.7-2.66,13.62-15.03,21.35-27.14,25.8-13.74,5.05-28.22,8.45-42.56,11.26-29.75,5.83-60.07,8.09-90.33,9.06-31.42,1-62.89.94-94.31.24-31.42-.7-62.93-1.87-94.26-4.44-15.04-1.24-30.13-3.22-44.57-7.76-10.34-3.25-24.96-9.38-24.77-22.37.09-6.36,4.11-12.19,9.04-15.94,5.49-4.17,12.46-5.83,19.22-6.44,7.21-.65,14.49-.34,21.71-.27,7.78.07,15.55.13,23.33.16,31.12.14,62.25-.07,93.36-1,31.2-.94,62.39-2.6,93.49-5.39,30.77-2.75,61.46-6.6,91.9-11.9,7.52-1.31,15.02-2.71,22.5-4.19,1.89-.38,1.09-3.27-.8-2.89h0Z"/>
    </g>
    <path class="cls-3" d="m983.72,752.09c1.38-.42,2.79-.87,4.24-.99s2.63.3,4.01.75c1.28.43,2.52.43,3.83.16s2.66-.91,3.99-.32c1.04.46,1.92,1.24,2.95,1.73,1.33.63,2.73.76,4.19.66,1.37-.09,2.72-.3,4.1-.1,1.47.21,2.89.69,4.35.94,2.79.47,5.06-.19,7.66-1.11,1.21-.43,2.44-.81,3.73-.7,1.42.12,2.78.63,4.21.76,2.68.24,5.32-.51,7.93-1.01,1.24-.24,2.49-.43,3.76-.36,1.42.07,2.72.6,4.04,1.09s2.78.93,4.26.85,2.98-.62,4.49-.72c2.74-.18,4.6,2.5,7.4,2.42,1.93-.05,1.93-3.05,0-3-1.1.03-1.97-.61-2.89-1.14-1.09-.63-2.19-1.14-3.46-1.26-1.36-.13-2.69.2-4.01.47-1.51.3-2.75.27-4.21-.22-2.62-.88-4.87-1.71-7.69-1.4-2.67.29-5.26,1.19-7.94,1.32s-5.31-1.13-8.1-.64c-2.62.47-4.96,2.07-7.7,1.85s-5.42-1.4-8.33-1.18c-1.34.1-2.81.42-4.12-.05-1.19-.43-2.15-1.35-3.29-1.88-1.4-.65-2.79-.66-4.28-.35-1.65.35-2.82.76-4.47.16-3.25-1.18-6.23-.61-9.46.38-1.84.56-1.06,3.46.8,2.89h0Z"/>
    <path class="cls-3" d="m977.17,757.38c4.82-1.67,9.86-2.17,14.92-1.51l-.4-2.95c-3.07.78-6.17.71-9.2-.19v2.89c3.6-1.24,7.37-1.48,11.09-.63v-2.89c-4.73,1.66-9.76,1.93-14.63.7l.36,2.74c3.55-1.54,7.52-1.74,11.24-.72v-2.89c-3.25,1.05-6.63,1.29-9.98.62l1.1,1.45c-.03.39.24.07.67-.02.57-.12,1.18-.16,1.76-.22,1.1-.1,2.19-.17,3.29-.19,2.38-.05,4.76.09,7.12.44l-.66-2.51c-.25.31-.42.5-.83.4v2.89c2.77-1.12,5.65-1.27,8.51-.38l-.66-2.51c-.35.42-.63.55-1.15.39v2.89c1.55-.63,3.15-.69,4.67.06l.36-2.74c-3.6,1.4-7.4,1.58-11.1.46v2.89c2.7-.69,5.4-.51,8.01.45v-2.89c-1.26.36-2.52.44-3.81.18v2.89c5.21-2.05,10.85-2.63,16.35-1.53v-2.89c-2.23.89-4.59,1.25-6.98.87v2.89c3.5-.89,7.06-.71,10.47.45v-2.89l-2.51.46.8,2.89c3.84-.98,7.75-1.29,11.69-.97-.25-.93-.5-1.86-.76-2.8-.82.48-1.72.74-2.68.6.12.91.24,1.83.36,2.74,2.21-1.17,4.73-1.64,7.21-1.25v-2.89c-2.52.87-5.14,1.11-7.77.61.12.91.24,1.83.36,2.74,2.27-1.17,4.81-1.33,7.23-.56l-.36-2.74c-1.59.72-3.37.93-5.09.62v2.89c3.4-1.06,6.95-1.35,10.46-.75l-.66-2.51c-.4.35-.89.5-1.42.4v2.89c3.39-1.3,6.91-1.87,10.53-1.68-.13-.98-.27-1.96-.4-2.95-.79.29-1.58.57-2.37.86-1.82.66-1.11,3.26.8,2.89,2.68-.52,5.44-.59,8.15-.16l-.66-2.51c-.5.49-1,.65-1.69.62v3c1.32-.04,2.64-.05,3.95,0,.66.02,1.32.06,1.97.11.33.02.66.05.99.08.73.27,1.05-.32.94-1.77l.9.69-.09-.17-1.3,2.26c.52-.04,1.04-.08,1.56-.11,1.91-.14,1.93-3.14,0-3-.52.04-1.04.08-1.56.11-1.12.08-1.88,1.21-1.3,2.26,1.4,2.5,5.11-.58,2.82-2.56-.97-.84-2.5-.76-3.7-.83-1.73-.1-3.46-.12-5.19-.06-1.93.06-1.93,2.93,0,3,1.47.05,2.76-.48,3.81-1.5.74-.72.48-2.33-.66-2.51-3.27-.51-6.49-.47-9.74.16l.8,2.89c.79-.29,1.58-.57,2.37-.86,1.58-.57,1.34-2.85-.4-2.95-3.86-.21-7.72.4-11.33,1.78-1.24.48-1.6,2.59,0,2.89s3.08-.07,4.33-1.17c.8-.71.44-2.32-.66-2.51-4.05-.69-8.13-.47-12.06.75-1.31.41-1.54,2.62,0,2.89,2.58.46,5.01.15,7.4-.92,1.25-.56.76-2.39-.36-2.74-3.2-1.01-6.57-.66-9.55.86-1.1.57-.9,2.5.36,2.74,3.15.6,6.32.43,9.37-.61,1.26-.43,1.59-2.64,0-2.89-3.32-.52-6.54-.02-9.53,1.55-1.05.56-.94,2.56.36,2.74,1.79.25,3.42.01,4.99-.9,1.36-.79.67-2.68-.76-2.8-4.2-.34-8.41.04-12.49,1.08-1.89.48-1.08,3.24.8,2.89l2.51-.46c1.56-.29,1.28-2.46,0-2.89-3.9-1.33-8.07-1.47-12.07-.45-1.35.34-1.51,2.66,0,2.89,2.92.46,5.82.23,8.58-.87,1.23-.49,1.61-2.57,0-2.89-6.01-1.2-12.23-.72-17.94,1.53-1.24.49-1.6,2.57,0,2.89,1.82.37,3.61.33,5.41-.18,1.51-.43,1.34-2.4,0-2.89-3.1-1.14-6.42-1.27-9.61-.45-1.47.38-1.38,2.47,0,2.89,4.16,1.26,8.64,1.12,12.69-.46,1.09-.42,1.63-2.12.36-2.74-2.21-1.09-4.68-1.3-6.99-.36-1.31.53-1.53,2.44,0,2.89s3.07.02,4.07-1.17c.73-.86.48-2.15-.66-2.51-3.31-1.03-6.88-.92-10.1.38-1.26.51-1.58,2.52,0,2.89,1.39.33,2.83-.03,3.75-1.17.61-.76.58-2.32-.66-2.51-3.41-.5-6.83-.69-10.27-.43-2.37.18-6.13.2-6.37,3.32-.05.61.5,1.33,1.1,1.45,3.87.77,7.81.59,11.58-.62,1.38-.44,1.47-2.49,0-2.89-4.55-1.25-9.24-.84-13.55,1.03-1.22.53-.8,2.45.36,2.74,5.36,1.36,11,1.14,16.23-.7,1.31-.46,1.54-2.54,0-2.89-4.22-.97-8.58-.78-12.68.63-1.38.47-1.47,2.46,0,2.89,3.53,1.05,7.23,1.1,10.8.19,1.77-.45,1.17-2.74-.4-2.95-5.29-.68-10.68-.12-15.72,1.62-1.81.63-1.03,3.53.8,2.89h0Z"/>
    <path class="cls-3" d="m1209.43,734.5c-10.14,1.34-20.24,2.95-30.29,4.86-5.12.97-10.22,2.02-15.31,3.14-4.95,1.09-9.9,2.39-14.95,2.95-5.09.57-10.14-.06-15.23,0s-9.83.68-14.7,1.38c-9.87,1.41-19.79,3.24-29.77,1.86-2.62-.36-5.24-.75-7.88-.31s-4.85,1.96-7.46,2.4c-5.08.87-10.29-.54-15.27,1.19-1.07.37-1.65,2.19-.36,2.74,5.67,2.42,11.56.93,17.34-.24,6.28-1.27,12.66-1.36,18.94-.06,1.88.39,2.69-2.5.8-2.89-6.05-1.25-12.24-1.39-18.34-.35-5.51.94-11.75,3.29-17.22.95-.12.91-.24,1.83-.36,2.74,4.33-1.51,8.93-.52,13.4-.94,2.33-.22,4.34-.91,6.49-1.79,2.38-.98,4.69-1.08,7.23-.8,2.39.27,4.76.66,7.17.79s4.83.1,7.23-.04c4.91-.29,9.79-1.01,14.65-1.74,4.92-.74,9.85-1.48,14.83-1.77s10.12.33,15.18.13,9.95-1.26,14.83-2.36c4.91-1.11,9.84-2.17,14.78-3.16,11.36-2.26,22.8-4.16,34.29-5.69.81-.11,1.49-.61,1.5-1.5,0-.73-.7-1.61-1.5-1.5h0Z"/>
  </g>
</svg>