<?xml version="1.0" encoding="UTF-8"?>
<svg id="Layer_1" data-name="Layer 1" xmlns="http://www.w3.org/2000/svg" xmlns:xlink="http://www.w3.org/1999/xlink" viewBox="0 0 1364 768">
  <defs>
    <style>
      .cls-1 {
        fill: none;
      }

      .cls-2 {
        clip-path: url(#clippath);
      }

      .cls-3 {
        fill: #688cae;
      }

      .cls-4 {
        fill: #6993b8;
      }

      .cls-5 {
        fill: #91b3d6;
      }

      .cls-6 {
        fill: #80aac8;
      }

      .cls-7 {
        fill: #7eaac8;
      }

      .cls-8 {
        fill: #6b94bb;
      }

      .cls-9 {
        fill: #86b5d8;
      }

      .cls-10 {
        fill: #93afd0;
      }

      .cls-11 {
        fill: #8bb3ce;
      }

      .cls-12 {
        fill: #8db7d0;
      }

      .cls-13 {
        fill: #a8d5ef;
      }

      .cls-14 {
        fill: #4271a0;
      }

      .cls-15 {
        fill: #4370a0;
      }

      .cls-16 {
        fill: #6d95b4;
      }

      .cls-17 {
        fill: #6e98b4;
      }

      .cls-18 {
        fill: #95b8d6;
      }

      .cls-19 {
        fill: #89b6d4;
      }

      .cls-20 {
        fill: #628cb6;
      }

      .cls-21 {
        fill: #83acc8;
      }

      .cls-22 {
        fill: #618cac;
      }

      .cls-23 {
        fill: #5e88aa;
      }

      .cls-24 {
        fill: #5c86a9;
      }

      .cls-25 {
        fill: #75a1c3;
      }

      .cls-26 {
        fill: #78a2c4;
      }

      .cls-27 {
        fill: #507ca9;
      }
    </style>
    <clipPath id="clippath">
      <rect class="cls-1" x="-.5" y="-.5" width="1364.5" height="768.5"/>
    </clipPath>
  </defs>
  <g class="cls-2">
    <g>
      <path class="cls-15" d="m1372.32,573.07c-77.28-14.56-155.94,9.48-234.29,16.24-41.44,3.57-83.16,2.28-124.65-.56-19.04-1.31-38.32-2.93-57.09.57-17.71,3.3-34.27,11.04-51.68,15.69-15.51,4.14-31.75,5.85-46.58,12.01-22.62,9.39-40.59,29.38-47.43,52.9s-2.34,50.08,11.96,69.97c17.1,23.79,45.61,36.42,73.57,45.17,102.44,32.06,212.42,25.92,319.55,19.07,51.05-3.26,102.57-6.69,151.7-20.95,10-2.9,20-6.3,28.71-12.01,10.38-6.8,18.46-16.54,25.92-26.46,10.56-14.05,20.35-29.01,25.7-45.75,8.7-27.23,4.54-58.28-11.04-82.25-15.57-23.97-42.24-40.4-70.66-43.53"/>
      <path class="cls-15" d="m1372.72,571.63c-52.76-9.81-106.3-1.99-158.72,6.1-27.32,4.21-54.66,8.53-82.25,10.59-27.86,2.08-55.85,2.03-83.75.87-13.99-.58-27.95-1.5-41.92-2.45s-26.81-1.65-40.16-.3c-12.79,1.3-24.97,4.97-37.09,9.14-12.48,4.3-24.85,8.3-37.79,11.03-12.34,2.6-24.85,4.96-36.38,10.24-9.35,4.28-17.88,10.43-25.04,17.8-14.91,15.37-23.59,35.93-23.65,57.38-.06,21.88,8.51,43.11,23.81,58.74,15.41,15.74,35.86,25.42,56.41,32.58,48.84,17.02,100.98,24.22,152.46,26.72,53.05,2.57,106.19-.04,159.14-3.32,53.35-3.31,107.43-5.82,159.42-19.24,12.04-3.11,24.38-6.44,35.34-12.47,10.62-5.85,19.04-14.63,26.5-24.05,14.77-18.66,28.67-39.47,33.01-63.28,4.04-22.18.39-45.63-10.35-65.47-10.19-18.81-26.92-33.84-46.41-42.55-9.32-4.16-19.15-6.84-29.28-8.01-1.91-.22-1.9,2.78,0,3,21.27,2.45,41.45,12.27,56.68,27.29,16.23,15.99,25.97,37.67,27.7,60.36,1.83,24.14-6.02,46.38-19,66.45-6.53,10.1-13.74,20.05-21.93,28.87-8.53,9.17-18.5,15.78-30.25,20.13-24.02,8.89-50,13.48-75.28,16.99-26.04,3.62-52.29,5.52-78.52,7.23-51.04,3.32-102.17,6.61-153.34,6.05-51.12-.57-102.44-5.08-152.08-17.78-41.74-10.67-92.13-27.15-106.95-72.54-6.87-21.04-4.96-44.36,5.86-63.72,10.7-19.16,28.54-32.83,49.48-39.04,12.04-3.57,24.52-5.29,36.63-8.52,12.13-3.24,23.78-7.96,35.77-11.66,12.58-3.88,25.3-5.9,38.47-6.07,13.08-.17,26.12,1.01,39.16,1.86,27.04,1.77,54.15,2.82,81.26,2.24s52.21-3.02,78.16-6.66c51.75-7.25,103.62-18.16,156.15-15.9,12.74.55,25.41,1.92,37.95,4.25,1.89.35,2.7-2.54.8-2.89h0Z"/>
    </g>
    <g>
      <path class="cls-15" d="m-1.95,569.97v-42.74c1.34-1.19,3-1.05,4.61-1.14,17.58-.91,34.87,1.37,52.06,4.74,2.7.53,5.48.48,8.13,1.27.65.08,1.31.12,1.96.24,2.27.65,4.67.46,6.97.96,16.85,3.44,33.77,6.4,51.01,7.06,2.38.09,4.66.83,7.04.8,17.28.82,34.19,3.57,50.73,8.83,10.58,3.36,21.29,6.33,32.21,8.48,7.78,1.94,15.77,2.48,23.66,3.71,2.32.36,4.75.31,6.85,1.63.45,3.25-1.94,3.4-4.04,3.44-4.51.08-9,.31-13.37,1.49-1.37.37-2.91.54-4.14,1.97,2.15,1.67,4.45,1.14,6.58,1.16,9.62.07,9.64.04,9.31,9.36-.11,3.15.42,6.23.94,9.31.31,1.85.59,3.7.5,5.59-.04.88-.01,1.82-.48,2.56-2.43,3.83-6.26,2.14-9.56,2.23-2.52.07-3.85-1.58-3.98-4.06-.17-3.24-.39-6.5.58-9.68.29-.96.59-1.92.66-2.92.61-8.36-.84-7.85-8.31-6.93-1.89.23-2.17,1.76-2.34,3.34-.86,7.95-.71,8.52-9.75,8.42-3.75-.04-7.5.02-11.25,0-2.61-.01-3.61,1.33-3.48,3.74.12,2.4-.61,5.95,2.98,5.76,7.06-.38,9.76,2.48,9.26,9.39-.16,2.25,4.77,4.66,8.32,3.85,7.2-1.64,14.44-.73,21.66-.88,4.11-.09,5.31,1.05,5.66,4.4.57,5.37-.95,8.41-4.64,9.31-6.83,1.66-6.86,1.66-6.54,8.54.25,5.22-.47,10.24-2.97,14.88-1.79,3.33-9.07,4.5-11.91,2-1.21-1.07-1.14-2.42-1.01-3.8.57-5.85-.2-11.75.57-17.6.29-2.18-.81-3.39-2.92-3.47-4.74-.18-9.48-.36-14.2.51-3.37.62-3.54,2.92-3.54,5.59,0,2.9,1.75,3.57,4.17,3.56.37,0,.75,0,1.12.02,2.46.13,5.13-.29,6.35,2.76,1.51,3.77,1.02,7.15-1.59,9.69-.98.96-1.95,1.94-3.01,2.81-1.23.79-2.41.23-3.56-.19-9.18-3.44-18.19-7.36-27.54-10.36-.84-.27-1.58-.73-1.96-1.59.05-1.29,1.12-1.41,1.99-1.75q-3.2-2.48-6.01.22c-1.01.31-1.96.03-2.9-.29-7.27-2.46-14.6-4.7-21.87-7.17-1.08-.37-2.9-.29-2.4-2.38,3.18-1.65,6.32-.79,9.39.25,2.13.72,4.12,1.8,6.3,2.39,3.55.96,6.6.81,9.63-2.06,3.3-3.13,7.78-4.38,12.33-4.92,2.73-.33,3.92-1.84,3.79-4.56-.11-2.4-1.04-3.62-3.69-3.55-6.73.18-7.89-1.12-7.59-7.73.22-4.74.07-9.5.09-14.24.01-3.57,1.66-5.28,5.25-5.29,4.87-.02,9.75-.07,14.62,0,3.1.04,4.23-1.39,4.14-4.35-.09-2.79-.14-5.42-3.96-5.44-12.62-.05-25.24-.07-37.87.01-2.57.02-3.95,1.25-3.96,3.89,0,1.12-.05,2.25-.08,3.37-.07,3.07-1.68,4.55-4.7,4.63-4.62.12-9.25,0-13.87.07-4.61.07-5.23.69-5.37,5.17-.04,1.25,0,2.5-.16,3.74-.27,2.15-1.48,3.36-3.62,3.66-1.12.15-2.24.16-3.37.15-6.06,0-6.91-.83-7.05-6.89-.12-5.25-1.63-6.52-6.59-5.76-2.13.33-3.11,1.39-2.86,3.55.13,1.12.27,2.23.34,3.36.22,3.42-1.14,5.53-4.73,5.87-3.58.34-6.78.74-7.09,5.68-.15,2.4-3.49,2.93-5.19,4.54-4.29.82-7.8-1.04-11.16-3.34.14-1.86,1.78-1.8,2.97-2.24,1.3-.48,2.58-.92,3.33-2.18.32-.54.6-1.12.17-1.72-.32-.44-.83-.59-1.32-.44-1.88.58-3.64,1.5-5.55,2.04-.92.26-.75,1.12-.49,1.88.26.77.94,1.55.07,2.37-6.83-1.83-13.67-3.64-18.87-8.92.68-3.21,2.24-5.81,5.34-7.19,1.61-.72,2.19-1.95,2.16-3.58-.05-2.53.56-4.93,1.13-7.37,1.48-6.24,1.42-6.39,7.66-6.5,3.59-.06,4.79-1.66,4.78-5.07,0-3.47-1.31-5.29-4.87-4.85-8.2,1-16.43.64-24.65.75-2.25.03-3.47,1.06-3.73,3.3-.7,5.99-3.23,10.13-10.01,10.33-2.19.06-2.01,1.4-.78,2.73,1.41,1.53,3.36,2.76,2.78,5.33-.49,1-1.24.71-1.99.4-2.91-1.99-5.67-4.2-8.63-6.13-.99-.64-2.17-1.26-1.98-2.78.94-1.06,3.02-.19,3.55-2.15-2.32-1.56-3.46.26-4.75,1.6-.32.17-.67.26-1.03.27-5.06-2.73-10.11-5.47-14.87-8.71Z"/>
      <path class="cls-4" d="m52.79,484.44c1.63.07,1.94,1.38,2.29,2.56,3.69,12.51,7.32,25.03,9.01,38.01.36,2.77-1.42,5.33-.68,8.12-8.42-1.24-16.91-2.17-25.25-3.8-8.47-1.65-16.95-2.17-25.52-2.09-4.86.04-9.72,0-14.58,0v-21.75c2.71-.92,4.27-3.2,6.09-5.16,1.45-.48,2.97-.23,4.43-.44,2.37-.34,3.8.61,4.46,2.84.81,1.46.92,3.08,1.13,5.34,1.27-5.35,2.3-10.11,3.09-14.93.16-.95.16-2.34,1.28-2.48,1.41-.17,1.69,1.34,1.91,2.34,1.36,6.09,2.69,12.18,4.55,18.14.18.59.38,1.19.74,1.85.75-3.55,1.38-7.03,2.09-10.49.19-.94.26-2.24,1.53-2.25,1.09,0,1.64,1.06,1.96,2.03,1.32,4,1.56,8.28,3.19,12.85-.08-3.16.48-5.6.86-8.07.13-.85.83-1.62.98-2.28.31-1.35,1.41,2.23.99-.23-.04-.25-.07-.5-.02-.75.34-1.66.08-4.07,2.22-4.24,1.93-.15,2.05,2.17,2.46,3.67.86,3.09,1.18,6.29,1.85,10.46,1.58-9.06,1.73-17.39,5.43-24.91.83-1.68,1.1-3.91,3.51-4.37Z"/>
      <path class="cls-14" d="m454.01,662.19c-.62-.94-1.76-1.57-1.71-2.9.2-1.49-2.06-4.13,1.82-3.91,1.07-1.08,0-1.91-.49-2.58-1.95-2.7-3.05-5.83-4.51-9.1-.72,1.34-1.3,2.42-1.87,3.49-1.46,1.54-3.04,3.01-2.94,5.4-1.14,1.3-2.28,2.61-3.44,3.94.26.06.52.21.68.14,1.28-.55,2.26-2.93,3.67-1.65,1.45,1.31-.52,2.77-1.1,4.19-1.39,3.42-4.28,5.9-5.92,9.14,1.04.68,1.71.32,2.44.17,1.12-.22,2.37-1.56,3.33-.42.86,1.02-.15,2.43-.56,3.51-.97,2.57-2.56,4.68-5.08,6.16-1.4.83-3.22,2.33-2.82,4.06.45,1.96,2.37,3.05,4.88,2.91-1.56,3.05-3.38,5.54-6.23,6.9-2.53,1.2-2.23,3.06-1.53,4.93.7,1.88,1.72,3.7,4.39,2.45.52-.24,1.44-.95,1.94-.03.42.79.12,1.71-.43,2.46-1.34,1.82-3.32,2.42-5.41,2.86-.84.18-2.21-.61-2.42.68-.19,1.18.51,2.26,1.49,3.21,1.16,1.12,4.23.31,3.65,2.78-.56,2.38-3.15,3.38-5.2,4.49-1.29.7-2.81.99-4.34.75-3.97.01-4.94-3.3-7.06-6.72.64,3.4,1.97,5.63,2.66,8.05.37,1.32,1.46,1.53,2.71,1.04,1.02-.4,2.06-1,3.16-.17,1.15.81,3.38.3,3.58,2.05.21,1.83-1.28,2.97-2.89,3.84-1.27.68-2.4,1.64-3.6,2.47-2.89-3.46-5.59-2.02-8.25.33-.36,0-.7-.09-.99-.31-3.18-2.13-4.57-5.31-5.21-8.92-.39-.59-.44-1.24.2-1.6.73-.41,1.33,0,1.74.67-3.01-5.45-2.81-6.88,1.83-11.5.88-.88,1.27-1.86,1.23-3-.18-4.76,1.08-9.42.83-14.19-.17-3.28,1.11-5.62,4.69-6.05,2.54-.3,2.7-2.08,2.79-4.09.27-6.24.31-6.22,5.98-8.08,2.89-.94,2.62-2.98,1.02-4.6-2.38-2.41-2.45-4.79-1.52-7.84,1.62-5.3.62-6.75-4.91-8.07-2.27-.54-3.41-1.87-3.5-4.2-.06-1.66.37-3.2.79-4.78.98-3.7.28-4.43-3.3-3.4-2.86.82-5.46.87-7.33-1.91-1.15-1.71-3.04-1.49-4.7-1.87-2.57-2.18-3.15-5.3-2.62-8.17,1.19-6.46-3.18-10.7-5.57-15.72-.7-1.48-2.39-1.68-3.91-1.8-2.07-.16-3.56-1.01-4.09-3.17-.48-1.95-1.58-2.38-3.3-1.32-.75.46-1.6.74-2.49.74-2.03,0-3.47-.82-2.1-2.91,1.35-2.05-.02-2.1-1.25-2.18-2.74-.19-5.45-.57-8.15-1.06-2.27-.41-3.94-1.5-4.35-3.98-.23-1.39-.78-2.72-1.86-3.59-2.64-2.15-2.01-3.88.47-5.52,1.65-.61,2.83.45,4.12,1.14,3.82,2.04,7.99,3.36,11.6,5.81.63,1.31.7,3.45,3.13,2.06,1.13-.07,1.95.44,2.59,1.32.83,1.86,2.3,2.54,4.26,2.34.92.2,1.48.79,1.84,1.62.31,1.52,1.02,2.32,2.65,1.45,2.7.49,4.52,2.56,6.6,4,6.23,4.3,12.49,8.49,19.58,11.26.46.18.81.56,1.17.91,4.27,2.73,8.38,5.84,13.73,6.19.53.12.97.4,1.36.77,5.74,5.06,12.54,8.08,19.79,10.22.34.1.66.25.96.43,2.88,2.74,5.66,5.75,10.29,4.19,3.6.85,6.67,2.59,9.08,5.43.57,3.46.73,3.54,4.31,2.21,5.94,1.31,10.83,4.73,15.75,8.01,5.28,3.51,10.16,7.56,15.13,11.49,2.51,1.98,4.73,4.1,3.56,7.81-.19.6.24,1.19.81,1.55,1.12.88,3.47.94,3.4,2.31-.09,1.79-1.98,2.94-3.62,3.84-.93.51-2.16.62-2.12,2.16.05,1.81,1.55,1.15,2.43,1.56,1.15.53,2.56,1.1.73,2.41-2.42,1.73-2.59,3.93-1.74,6.47-2.26,1.44-4.32.19-6.26-.69-2.58-1.16-5.16-2.39-7.57-3.88-3.29-2.03-6.73-3.55-10.61-3.95-1.2-.92-.48-1.99-.26-3.06.44-2.14.41-2.14-2.47-3.67,1.56,3.14.22,5.37-1.59,7.49-1.79.7-3.57,1.44-5.54.7-.89-.66-1.28-1.49-.9-2.59.56-2.99-.72-5.62-1.6-8.33-.42-1.27-.93-2.51-1.41-3.77-.23-.72.12-.83.71-.7-.05-1.37-1.43-3.15.48-3.96,1.95-.82,3.02,1.2,4.35,2.21.99.75,2.12,1.76,3.31.74,1.07-.93.78-2.44.09-3.45-2.3-3.41-4.3-6.96-5.74-10.82-.37-.99-1.2-1.63-2.35-1.41-1.29.24-1.38,1.37-1.37,2.34.06,5.21-.85,10.24-2.46,15.17.03.22,0,.43-.07.64-2.42.68-4.36-.5-6.23-1.7-3.3-2.13-6.54-4.17-10.65-1.89-.75.42-2.05.67-1.93-1.06-.74-.93-1.49-1.86-2.23-2.79,1.37-2.47-.68-2.55-2.13-3.05Z"/>
      <path class="cls-19" d="m522.96,617.19c3.52,2.82,3.83,7.08,4.9,11,.52,1.89-2.09,2.41-1.83,4.19,2.22,1.94,3.08-1.55,5.06-1.04.5,2.5-.9,4.55-2.32,6.57-.64.91-1.48,1.68-2.11,2.6-.32.47-.67,1.25-.49,1.66.36.84,1.24.54,1.95.33,1.14-.33,2.64-1.24,3.32,0,.57,1.03-.54,2.34-1.4,3.25-1.54,1.61-2.91,3.39-4.76,4.73-2.74,1.99-2.78,3.58-.07,5.42,2.15,1.46,2.27,2.49-.17,3.58-.45.2-.91.42-1.33.68-1.92,1.17-3.13,3.17-2.08,4.99,1.13,1.94,3.02.45,4.47-.44.28-.17.59-.29,1.28-.63-1,3.61-3.56,5.36-6.08,7.06-1.42.96-2.67,1.83-1.96,3.81-1.32,0-1.96-.85-1.53-1.93,1.22-3.1-.92-4.74-2.78-6.22-6.58-5.23-13.08-10.59-20.26-14.99-3.41-2.09-7.19-3.58-10.81-5.35-1.82-.11-3.21-1.05-4.49-2.25-2.9-1.92-5.63-4.15-9.02-5.23-2.13-.21-4.38-.25-4.31-3.32,4.84-1.62,9.89-2.45,14.86-3.38,13.26-2.49,25.27-8.06,37.17-14.03,1.48-.74,2.87-2.17,4.79-1.05Z"/>
      <path class="cls-19" d="m540.23,631.43c.57-.63,1.16-1.81,1.71-1.8,5.06.15,10.26-.57,15.04,1.77.79.39,1.25,1.45,1.86,2.2-1.18,2.29-2.72,4.62,1.56,5.44,1.35.26.79,1.33.32,2.06-.87,1.36-1.87,2.65-2.75,4-.81,1.24-1.92,2.57.49,3.4.74.25,1.51.74.95,1.62-1.41,2.23-1.74,5.31-4.82,6.25-1.95.6-2.97,2.19-2.69,3.96.29,1.88,2.25.9,3.49,1.16.34.07.66.21.99.32-1.63,4.98-4.92,7.87-8.1,7.16-3.58-.79-5.03-2.68-4.73-6.36.6.22,1.16.4,1.7.63,1.05.44,2.34.95,3.01-.13.54-.88-.57-1.78-1.12-2.58-2.34-3.38-6.01-6.24-4-11.21.38-.94-.66-1.06-1.29-1.44-3.8-2.26-3.92-3.42-.8-6.11,1.1-.95-.02-1.86-.42-2.52-1.58-2.64-3.46-5.11-4.65-7.95,1.57-1.4,2.8,2.04,4.29.12Z"/>
      <path class="cls-5" d="m739.11,612.73c4.35.26,6.94-4.97,11.82-3.74-4.76,7.86-6.5,8.46-11.82,3.74Z"/>
      <path class="cls-19" d="m555.73,672.01c-2.57,3.07-4.27,5.34-7.73,5.34-2.98,0-2.64-1.98-2.57-3.79.1-2.51,1.65-1.31,2.88-1.06,2.18.44,4.36.31,7.42-.49Z"/>
      <path class="cls-18" d="m739.06,619.98c3.95-.99,7.25,1.42,11.18,1.76-4.58,4.23-7.22,3.75-11.18-1.76Z"/>
      <path class="cls-9" d="m745.03,628.71c1.22.91,3.7-.03,3.78,2.17.05,1.36-1.39,3.2-2.87,2.73-1.72-.54-4.21-1.42-4.3-3.54-.08-1.74,2.35-.35,3.39-1.36Z"/>
      <path class="cls-19" d="m576,649.65c1.76,1.32,4.91.25,5.45,2.81.24,1.13-1.66,2.45-2.96,2.28-2.83-.37-1.71-3.24-2.49-5.08Z"/>
      <path class="cls-10" d="m744.85,644.32c-3.15-4.99-3.05-5.36,1.72-6.61-.94,2.11-1.95,4.01-1.72,6.61Z"/>
      <path class="cls-14" d="m402.98,740.93c-3.38,1.68-6.53.15-9.74-.67-4.2-2.65-8.96-4.13-13.38-6.31-17.13-8.46-34.3-16.83-51.38-25.37-13.54-6.77-26.93-13.86-40.39-20.79-18.53-9.54-37.59-17.97-57.2-25.12-10.94-3.99-21.74-8.33-32.61-12.52.69-.86.41-2.33,1.61-2.83,3.47-1.45,3.49-3.88,3.12-7.3-.39-3.7-1.94-4.43-5.02-4.08-.37.04-.75,0-1.12,0-5.62,0-8.22-4.13-5.83-9.29.56-1.21,1.58-1.72,2.94-1.98,5.32-1.01,10.68-.74,16.03-.7,3.33.03,4.5,1.57,3.76,4.83-1.45,6.39.49,12.96-1.09,19.34-.08.34.33.92.66,1.22,2.19,2.04,9.36.68,10.71-2.02,2.82-5.67,3.45-11.63,2.19-17.81-.82-4.01.39-5.5,4.54-5.6,6.03-.14,8.79-4.08,7.18-10.1-.41-1.54-1.43-1.89-2.79-1.89-6.5,0-13.1-.69-19.45.28-3.55.54-6.63.33-10-.2-2.65-.42-3.78-1.57-3.69-4.13,0-.12,0-.25,0-.37-.19-7.34-.19-7.42-7.67-7.54-2.96-.05-4.38-1.17-4.35-4.22.09-8.87-.71-7.77,7.45-7.81,4.37-.02,8.75-.07,13.12.02,2.29.04,3.71-.68,3.42-3.19-.24-2.1,1.02-3.96.44-6.25-.5-1.99,1.85-2.33,3.4-2.53,1.96-.25,3.93-.1,5.93-.56,1.63-.37,3.46.48,3.62,2.39.23,2.71.66,5.75-.27,8.14-1.45,3.72-.83,7.38-1.08,11.07-.02.37-.08.83.11,1.1,2.47,3.65,6.15,1.16,9.24,1.71,2.14.38,2.56-1.28,2.67-3.14.2-3.16-.59-6.19-1.1-9.24-.57-3.37-.67-6.68-.05-10.01.65-3.5-.11-4.49-3.74-4.52-3.25-.03-6.5.03-9.75-.03-1.72-.03-3.55-.54-3.59-2.5-.04-1.61,1.73-1.62,3.06-2.06,5.64-1.85,11.4-2.41,17.27-2.14,1.71.08,2.49-.83,3.13-2.13,2.05-1.61,4.31-.15,6.33-.06,4.23.19,8.57-.09,12.73,1.14,2.32,1.26,4.74.78,7.15.43,2.27.6,4.85-1.03,6.93.95-.03.28-.16.58-.33.55-.49-.1-.82.1-.33.11,3.53.11,7.06.35,10.59-.12,2.52.52,4.96-.31,7.44-.4,2.61-.1,5.26-.34,7.72.9,1.81,1.41,3.79,1.63,5.92.84,3.94-.7,7.61.84,11.41,1.33.78.2,1.51.47,1.82,1.31-.21.41-.34,1-.97.41-.05.41.23.42.51.41,3.09-.07,6.17.33,9.26.29,3.02-.31,5.79.69,8.52,1.72,1,.37,2.58.61,1.9,2.44-4.5,3.3-9.88,3.13-15.04,3.65-2.97.3-5.99.05-8.99.09-2.34.03-3.47,1.15-4.17,3.43-1.11,3.6-.52,7.19-.56,10.79-.06,5.69-.91,6.59-6.43,6.74q-5.32.15-5.58,5.47c-.24,5.05-1.58,6.41-6.62,6.5-4.5.08-9,.13-13.49-.03-4.33-.15-5.76-1.62-6.05-5.94-.07-1-.06-2-.12-3-.11-1.99-1.19-2.82-3.12-2.97-5.4-.41-10.71.61-16.07.85-1.48.07-2.29.96-2.35,2.41-.18,3.99-.47,8,.24,11.96.61,3.43,2.6,5.01,6.25,5.1,4.92.13,6.66,2.11,6.83,7,.12,3.5.17,6.99-1.02,10.38-.54,1.54-.45,3.2-.4,4.83.07,1.93.97,3.2,2.95,3.08,7.48-.43,14.93,1.38,22.41.11,5.28-.9,6.54-2.03,7.71-7.13,1.09-4.74,5.55-7.09,11.94-5.84,3.31.65,6.64,1.2,9.97,1.63,2.7.35,4.31,1.7,5.13,4.22.42,1.3.78,2.66,1.59,3.79,1.73,2.45,5.12,2.2,6.3-.54.89-2.06,1.65-4.21,1.65-6.5,0-6.62.3-13.24-.19-19.86-.38-5.24.88-6.99,6.03-7.21,3.61-.15,4.69-1.85,4.74-5.19.1-6.12.93-6.83,7.05-6.86,5.25-.03,10.5-.1,15.74.03,4.47.12,6.15,1.68,6.29,6.14.15,4.86.29,9.72-.36,14.59-1.09,8.11.76,16.19.63,24.3-.05,3.21,2.73,3.94,5.28,4.24,3.6.42,7.24.07,10.86.2,1.58.06,3.31-.24,4.43,1.36-.75,1.85-2.44,1.42-3.83,1.47-3.49.13-6.99-.03-10.49.07-3.29.1-6.38.36-8.27,3.88-1.3,2.42-4.08,2.19-6.43,2.05-3.42-.2-4.81,1.26-4.57,4.63.23,3.31-.33,6.22-4.06,7.53-1.61.56-1.5,1.7.05,2.22,3.58,1.2,4.2,3.94,4.01,7.15-.15,2.59.35,4.57,3.25,5.51,2.17.7,2.73,2.77,2.72,4.9-.02,3.01.4,5.92,1.16,8.86,1.28,4.95-1.16,10.63-5.49,13.37-2.2,1.39-1.55,3.47-1.52,5.39.02,1.79,1.24,2.61,2.88,2.91.61.11,1.46-.02,1.81.36,3.3,3.59,6.07,1.31,9.44-.21,5.88-2.64,8.97-.79,10.77,5.15,1.05,3.46,3.86,5.98,5.4,9.26.75,1.62,3.26,1.49,4.69.25,2.93-2.54,6.16-2.27,9.54-1.64.5-.54,1.07-1.02,1.48-1.62.5-.72,1.15-1.04,1.85-.6.9.58.15,1.29-.12,1.9-1.46,3.34-2.5,6.87-4.63,9.89Z"/>
      <path class="cls-14" d="m134.47,626.98c-5.85-1.49-11.7-3.01-17.56-4.47-9.36-2.33-18.75-4.54-28.09-6.98-3.58-.94-7.03-2.38-10.53-3.6.47-.87.74-2.07,1.79-2.29,3.41-.72,3.74-3.09,3.47-5.91-.15-1.54.55-2.33,2.17-2.28,1.49.05,2.94-.19,4.42-.53,4.69-1.09,5.52-2.14,4.47-7.01-.41-1.87-1.32-3.92.64-5.11,2.81-1.7,6.08-1.16,9.04-.38,1.99.52,1.75,2.73,1.76,4.51.05,8.66-1.2,7.64,8.2,7.82,3.02.06,4.11-1.16,3.79-4-.01-.12,0-.25,0-.37-.2-8.86-.05-8.51,8.33-8.43,4.12.04,8.24-.06,12.36.03,2.41.05,3.25-.95,3.35-3.34.33-8.69.4-8.69,9.15-8.69,11.11,0,22.23,0,33.34,0,4.93,0,5.43.5,5.46,5.3,0,1-.08,2.01.02,3,.26,2.74-.91,3.81-3.68,3.74-5.62-.14-11.24.04-16.86-.07-2.61-.05-3.47,1-3.52,3.55-.12,5.97.5,11.95-.38,17.92-.39,2.65,2.37,4.56,5.44,3.93,1.95-.4,4.04-1.47,5.47.63,1.51,2.21.96,4.85.45,7.24-.35,1.63-2,1.83-3.6,2.06-5.39.76-10.43,2.05-14.45,6.44-2.82,3.08-6.85,1.42-10.12.17-4.65-1.78-9.14-3.89-14.32-2.89Z"/>
      <path class="cls-11" d="m262.01,566.15c-4.52-.7-9.11-1.64-13.61-.81-2.19.41-3.21-1.93-5.14-1.22-10.25-1.46-20.63-2.08-30.7-4.72.49-4.42,3.71-6.22,7.38-7.36,3.41-1.06,7.11-1.01,10.38-2.82,1.45-.8,3.17.13,4.75.37,1.51.23,2.97,0,4.41-.47,1.79.06,2.21-.91,2.33-2.56.38-5.17.94-10.32,1.45-15.48.05-.47.07-1.01,1.05-1.25,1.74,3.78,1.27,8.03,1.86,12.02.32,2.17.86,4.37.9,6.6.02.8.39,1.55,1.19,1.7,1.1.22,1.39-.68,1.75-1.52,2.01-4.82,1.14-10.05,2.23-14.99.27-1.22-.38-3.4,2.27-2.64,1.67,2.64,1.44,5.69,1.77,8.6.21,1.83.16,3.69,1.39,5.8,1.41-1.92.91-3.79,1.06-5.49.11-1.24.12-2.51.49-3.68.53-1.71-.36-4.77,2.45-4.55,2.48.19,2,2.98,2.15,4.9-.19,3.74,0,7.43,1.73,11.98,1.87-3.95,1.38-7.33,1.43-10.63.04-2.24-.41-4.51.56-6.66,2.51-1.78,3.48-.19,3.59,1.96.17,3.33,1.07,6.63.34,10.02-.27,1.23-.64,2.64.29,3.85.02.02.22-.07.32-.14.1-.07.16-.19.23-.31,2.15-2.89,2.29-6.29,2.52-9.66.44-1.29.36-2.74,1.24-3.88,2.84-1.37,3.91.22,4.3,2.69.64,3.99.83,8.04,1.26,11.85.63-2.48.16-5.25.49-7.96.14-1.14.42-2.49,1.71-2.61,1.55-.14,1.49,1.4,1.6,2.42.3,2.72,1.05,5.4.76,8.66.55-2.01.18-3.67.75-5.18.35-.93.6-2.18,1.74-2.2,1.36-.02,1.76,1.23,1.93,2.37.38,2.6-.06,5.25.56,7.83.2.82.16,1.76,1.1,2.35,1.55-.64,1.59-2.79,3.23-3.37,3.99-.84,6.32,1.38,8.21,4.43,1.13,1.44,1.09,3.23,1.47,4.9.19.82.44,1.86,1.54,1.75.88-.08.83-1.09,1.06-1.76.82-2.37.07-5.32,2.57-7.09,5.39-.04,10.98-1.63,15.89,2.04.69.5.89,1.5,2.14,1.92.7-2.65,1.08-5.34,1.67-7.98.24-1.07.38-2.41,1.87-2.4,1.31,0,1.83,1.12,2.26,2.19.5,1.27.67,2.66,1.63,4.18.37-2.13.04-3.99.35-5.79.2-1.15.55-2.28,2-2.29,1.46,0,1.87,1.13,1.97,2.29.47,5.2,1.42,10.36,1.39,15.61-.54,2.56-1.89,3.61-4.72,3.44-3.16-.19-6.36.28-9.55.08-1.86-.12-3.35.77-4.5,2.17-1.04,1.27-2.46,2.05-3.71,3.03-4.04-.05-7.87-1.75-11.95-1.54-1.79.09-3.6.4-5.28-.55-3.6-.92-7.2-1.2-10.87-.35-1.63.37-3.38.76-4.9-.49-3.22-.54-6.58.78-9.72-.76-2.22-.81-4.64.48-6.84-.62-2.49.28-4.98.62-7.44-.19Z"/>
      <path class="cls-6" d="m239.47,549.12c-1.23,2.66-3.42,1.83-5.35,1.3-2.12-.59-4.02-1.06-5.75.92-.9,1.03-2.34.55-3.55.65-5.32.45-9.73,2.4-12.27,7.42-10.53-1.71-20.7-4.85-30.86-7.96-14.37-4.4-28.89-7.66-43.94-8.59-2.56-.16-5.15-.61-7.75-.74-2.21-.68-1.94-1.9-.15-2.41,3.88-1.1,6.31-3.14,6.58-7.39.1-1.5,1.49-1.36,2.6-1.38.24.05.49.06.73.04,1.14,1.02,1.33,2.66,2.49,3.69,1.18,1.04,2.51,2.1,3.99,1.11,4.2-2.79,8.43-2.65,12.49-.1,3.84,2.41,7.8,1.32,11.54.55,2.87-.59,5.89-1.43,8.53-3.03,1.02.4.41,2.56,2.09,2.1,1.22-.34,1.27-1.65,1.62-2.7,1.91-5.7,3.32-11.54,4.29-17.5.29,0,.58,0,.87.01,1.05,5.44,2.01,10.9,3.24,16.3.3,1.31,0,3.62,1.59,3.78,2,.2,2.01-2.22,2.4-3.59.72-2.53,1-5.19,1.79-7.8,1.37,3.28,2,6.67,2.46,10.11,1.48,1.11,2.28,3.65,4.92,2.33,1.19-.25,2.53-.89,3.55-.52,2.05.74,2-1.04,2.78-1.84,1.5,1.13-.47,4.54,1.69,4.23,2.22-.32,2.32-3.57,2.56-5.62.4-3.41-.33-7,2.16-9.92,1.46,1.92.95,4.24.99,6.45.06,3.85.49,7.66,1.33,11.41.65,2.89,1.85,2.29,3.09.31,1.41-.75,3.08-.6,4.5-1.31,2.15-1.08,2.75.16,2.96,1.98.89,1.14.55,3.46,2.99,3.1.73-.51.36-1.36.61-2.02,1.15-2.92,2.12-3.12,4.72-.99,1.4,2.37.65,5.17,1.48,7.65Z"/>
      <path class="cls-25" d="m139.04,530.95c-1.49.84-1.41,2.29-1.91,3.67-.84,2.33-2.07,5.41-5.72,5.45-.86,0-3.28-.18-1.4,2.07-7.49-.8-15.02-1.08-22.52-1.87-10.45-1.11-20.74-3.1-31.08-4.78-1.68-.27-3.41-.47-4.88-1.48-.19-.18-.25-.35-.18-.52.07-.17.13-.25.2-.25,1.83.18,2.83-.13,3.12-2.46.56-4.48.29-9.14,2.7-13.35.97-1.69-.45-4.21,1.27-6.21,1.73,4.05.67,8.36,1.87,12.31.24.78-.12,1.97,1.1,2.03,1.25.07,1.07-1.07,1.23-1.9.71-3.65,1.5-7.28,1.47-11.04,0-1.01-.35-2.2.94-3.29,1.76,5.26,1.13,10.45,1.51,15.59,1.28-4.88,3.51-9.45,4.28-14.55,1.05,2.59.65,5.26.79,7.88.05,1-.61,2.59,1.05,2.72,1.49.12,1.58-1.63,1.68-2.51.32-2.95.55-5.9,1.53-9.42,2.27,2.57,1.89,5.5,2.37,8.08.3,1.57-.24,3.25.43,4.8.41.96.38,2.33,1.97,2.33,1.4,0,1.95-.81,2.22-2.05.13-.59.48-1.14.73-1.71,4.01,1.75,8.15-.07,12.2.41,2.38-.75,1.18-3.6,2.8-4.79,1.02-.88.61-2.07.69-3.15.07-.98-.12-2.08,1.36-2.19,1.36-.1,1.55.73,1.77,1.84.6,3,1.41,5.95,3.97,9.12.04-4.3-.78-7.79.08-11.86,2.43,3.65-.24,7.78,2.33,10.93.36-2.21.72-4.27,1.02-6.35.12-.82-.22-1.93,1.05-2.01,1.21-.08,1.16,1.11,1.45,1.86,2.17,5.55,4.33,11.1,6.49,16.66Z"/>
      <path class="cls-14" d="m48.3,599.94c-2.75-1.45-5.5-2.91-8.26-4.36-1.5-.79-2.99-1.59-4.49-2.38-.96-.14-1.39-1.11-2.24-1.41-2-1.31-4.01-2.63-6.01-3.94.31-2.78-2.06-3.75-3.56-5.32-.84-.88-2.08-1.67-1.41-3.15.56-1.23,1.8-1.11,2.94-1.16,6.59-.33,8.83-2.27,9.41-9.16.29-3.4,1.48-4.47,4.84-4.4,8.59.18,17.19.26,25.76-.67,3.59-.39,5.08,1.37,4.77,4.87-.08.87-.06,1.75,0,2.62.21,3.15-1.17,4.52-4.39,4.54-6.36.04-6.35.14-8.03,6.02-.51,1.79-1.26,3.51-1.1,5.46.24,2.95.32,5.42-3.73,6.34-2.5.57-3.12,3.94-4.5,6.12Z"/>
      <path class="cls-14" d="m81.32,566.99c-.67-4.02.95-7.87.77-11.87-.08-1.7,1-2.74,2.67-3.09,1.21-.26,2.42-.65,3.64-.7,4.68-.19,7.56-1.05,7.19,6.11-.23,4.38.53,4.95,4.89,5.04,4.43.1,5.4,1.06,5.55,5.56.05,1.49.03,2.99,0,4.48-.06,2.27-1.28,3.47-3.53,3.43-5.72-.1-11.39.14-17,1.41-1.89.43-2.83-.96-3.51-2.62-1.05-2.54-.51-5.16-.65-7.74Z"/>
      <path class="cls-4" d="m71.54,533.23c0,.26-.01.51-.02.77-2.3-.16-4.71.53-6.85-.89.16-5.88,2.44-11.48,2.16-17.51,1.61,5.96,2.44,11.98,4.7,17.63Z"/>
      <path class="cls-14" d="m67.76,608.23c-.25,0-.49-.01-.73-.06-.43-.61-.86-1.21-1.28-1.82-1.38-2-.41-3.06,1.57-3.26,1.55-.15,2.86-.6,4.07-1.52,1.43-1.09,3.23-.76,4.01.35.83,1.18-.06,2.81-1.14,3.9-1.78,1.79-4.31,1.68-6.5,2.42Z"/>
      <path class="cls-14" d="m55.28,597.93c2.46,1.07,4.85,2.04,7.15,3.16.65.32.97,1.18.58,1.96-.32.64-1,.68-1.62.59-2.72-.37-4.65-2.18-6.65-3.81-.28-.23-.29-.92-.22-1.37.03-.23.53-.38.76-.54Z"/>
      <path class="cls-14" d="m166,637.47c-1.33-.28-2.66-.55-3.74-1.45.91-4.22,1.73-4.2,7.2.36-1.26.4-2.36.74-3.46,1.09Z"/>
      <path class="cls-14" d="m15.24,578.99c-.48-.28-.96-.55-1.44-.83.01-.12.03-.24.05-.36.47-2.96,2.65-2.75,4.75-2.48,1.13.14,1.86,1.11,1.36,2.1-.98,1.93-2.78,2.12-4.71,1.57Z"/>
      <path class="cls-14" d="m187.31,639.69c1.32.24,3.06.1,3.28,2.06.12,1.03-.66,1.4-1.75,1.17-1.55-.34-3.45-.34-3.67-2.33-.13-1.14,1.27-.73,2.14-.89Z"/>
      <path class="cls-20" d="m116.6,521.97c-3.12.13-6.26-.58-9.36.65-1.78.71-2.41-1.2-3.43-2.14.77-7.25,2.54-14.24,5.1-21.07.97-2.58,1.19-.14,1.75.09,2.45,5.56,4.47,11.28,5.98,17.17,1.38,1.77.83,3.54-.04,5.29Z"/>
      <path class="cls-27" d="m3.94,500.97c.39-5.27-.48-10.75,3.11-15.94,3.57,5.7,4.67,11.86,5.22,18.19-.58-2-1.78-2.7-3.9-2.28-1.42.28-2.95.04-4.43.03Z"/>
      <path class="cls-14" d="m404.4,731.36c-1.46,1.09-3.14.44-4.71.56-1.25.09-2.58-.06-3.29,1.26-1.34,2.52-3.59,1.88-5.6,1.53-2.16-.38-3.07-1.92-2.84-4.12.1-1.02-.74-1.45-1.36-2.06-1.8-1.76-3.31-3.64-3.14-6.45.14-2.46-1.27-3.62-3.7-3.63-3.68-.02-7.21.16-9.54,3.75-.98,1.52-2.33,2.11-3.18-.25-.66-1.84-1.62-2.61-3.85-2.58-2.73.05-4.94-1.13-4.5-4.77.34-2.87-.77-6.34,4.09-6.21.53.01,1.47-.86,1.56-1.44.7-4.14,3.43-8.1.86-12.58-1.13-1.98-.42-4.42-.42-6.64,0-2.58-.61-4.46-3.62-4.55-2.01-.06-2.45-1.34-2.42-3.04.03-1.25-.06-2.5.01-3.74.17-2.95-.34-5.26-4.05-5.28-1.33,0-1.95-.99-1.9-2.3.06-1.35.86-2.06,2.16-2.08,3.23-.05,3.83-2.02,3.8-4.75-.07-7.96-.79-7.32,7.16-7.26,2.47.02,4.51-.3,4.87-3.32.18-1.57,1.38-1.72,2.7-2,6.55-1.41,13.17-.37,19.74-.7,2.25.53,1.77,2.44,1.82,3.92.16,4.61-.02,9.24.09,13.85.09,3.85.69,4.33,4.8,4.34,4.17.01,4.79-.46,4.88-4.25.1-4.49-.02-8.99.04-13.48.04-2.88-1.29-4.12-4.09-3.99-.5.02.13.02-.37,0-6.98-.34-7.91-1.37-7.5-8.33.25-4.27,1.65-5.72,6.07-5.86,2.53-.08,4.98-.17,7.01-1.94,2.73-.86,4.85-.92,6.32,2.41,1.03,2.33,3.73,1.69,5.61.79,1.68-.8,3.49-1.68,4.78-.35,1.21,1.25.76,3.31-.03,4.93-.67,1.38-.89,2.79-.98,4.32-.13,2.38.93,3.47,3.2,3.63,1.93.14,4.56-.68,5.42,1.46,1,2.49,1.13,5.61-.06,8.01-1.46,2.96-1.32,4.81,1.55,6.53,1.86,1.12,1.25,3.13,1.02,4.79-.25,1.82-1.86,1.66-3.24,1.73-3.92.2-4.73,1.03-4.85,4.9-.04,1.25-.07,2.5,0,3.74.15,2.36-.83,3.32-3.26,3.4-3.63.12-4.12.88-4.26,4.57-.2,5.46-.49,10.91-.74,16.37-.04.88.03,2.02-1.07,2.1-3.73.28-3.33,3.58-4.27,5.78-.93,2.17,2.56,2.58,2.22,4.74-.58,1.34-2.82-1.61-2.95,1.05-3.27,3.93-5.84,8.17-6.01,13.49Z"/>
      <path class="cls-14" d="m458.38,668.03c.37.58.94,1.03,1.5.48,3.42-3.4,7.05-1.23,9.79.44,2.44,1.5,4.97,2.58,7.52,3.74-.28,1.86-1,3.57-1.78,5.27-.77,1.69-2.38,3.4.66,4.86,1.24.6.42,2.22-.27,3.31-2.51,3.98-6.66,5.89-10.39,8.35-.92.6-1.43-.02-1.84-.61-2.18-3.16-5.11-5.81-6.4-9.72.48-1.28,2.52.71,2.82-1.19.24-1.52-.44-2.56-1.31-3.71-2.89-3.83-6.2-7.4-8.2-12.51,2.82,1.07,5.25,2.11,7.89,1.29Z"/>
      <path class="cls-14" d="m477.25,672.05c-.06-2.35.46-4.52,1.09-6.82.73-2.66-.03-5.79.37-8.72.19-1.37-.52-3.17,1.89-3.3,1.96-.1,3.47.46,4.03,2.49,1,3.65,2.55,6.97,5.17,9.76,1.48,1.57,1.08,3.57.73,5.33-.33,1.7-3.26,1.49-5.36-.3-1.02-.87-1.46-2.38-2.96-2.71-.22-.05-.47.03-.96.06-.2,1.35,1.62,3.42-1.02,4.1-.5-.83-1.01-1.65-1.73-2.85-.48,1.15-.86,2.06-1.24,2.96Z"/>
      <path class="cls-14" d="m427.77,718.42c-5.59,1.82-5.57,1.81-7.7-3.82-.57-1.49-1.4-2.89-1.92-4.4-.32-.92.17-1.78,1.18-1.96.88-.15,1.48.54,1.51,1.3.17,3.61,3.22,4.8,5.46,6.67.49.73.98,1.47,1.46,2.2Z"/>
      <path class="cls-14" d="m424.03,727.59c-2.65.76-5.18.54-7.56-.89.32-.37.72-.7.94-1.13,1.01-2.02,3.1-2.03,4.83-2.36,2.93-.56.85,3.01,2.63,3.57-.28.27-.55.54-.83.81Z"/>
      <path class="cls-14" d="m454.12,655.39c-3.18.1.04,3.19-1.82,3.9-1.5-1.22-2-3.01-2.88-4.96,1.87-.44,3.34,0,4.7,1.06Z"/>
      <path class="cls-14" d="m444.31,652.6c-1.86-3.34.47-4.41,2.94-5.4-.42,2.1-1.38,3.91-2.94,5.4Z"/>
      <path class="cls-14" d="m454.01,662.19c.35-.13.68-.36,1.04-.38,1.25-.08,2.68-.05,3.06,1.38.36,1.35-1.62,1.04-1.96,2.05-.71-1.02-1.42-2.03-2.13-3.05Z"/>
      <path class="cls-14" d="m480.91,686.23c.03-1.25.09-2.48,1.54-3.01.26.27.53.54.79.81.25.75.51,1.51.76,2.26-.52.24-1.04.48-1.56.72-.51-.26-1.02-.52-1.53-.78Z"/>
      <path class="cls-15" d="m405.98,632.96c.11,2-.73,3.07-2.83,3-1.12-.04-2.25,0-3.37,0-5.4,0-5.78.38-5.79,5.71q-.01,6.29,6.32,6.29,5.68,0,5.68,5.8c0,4.74-.11,9.49.04,14.23.09,2.83-.78,4.08-3.82,4.01-9.46-.2-7.99.92-8.28-8.17-.16-5.04,1.01-10.15-.7-15.12-.98-1.15-2.32-.72-3.51-.73-3.62-.05-7.25.03-10.87-.03-5.69-.1-7.26-1.8-7.38-7.36-.15-6.59-.95-13.21-.58-19.77.32-5.72.62-11.43.59-17.16-.02-4.35-.93-5.19-5.31-5.2-6-.01-12,.09-17.99-.04-2.77-.06-3.96.99-3.68,3.74.06.62,0,1.25,0,1.87,0,6.26-.11,6.37-6.21,6.42-4.15.04-4.84,1.41-4.66,5.51.41,9.28,1.52,18.63-1.16,27.8-.48,1.64-1.44,2.63-3.16,2.64-1.95.02-4.1.54-5.39-1.62-.25-.42-.45-.92-.5-1.4-.62-6.59-5.28-7.2-10.52-7.53-3.62-.23-7.11-1.52-10.9-.74-2.86.58-4.39,1.74-4.74,4.69-.71,5.99-2.64,7.38-8.53,8.21-7.98,1.12-15.87-.81-23.81-.1-1.77.16-2.94-.65-2.86-2.58.11-2.83-.23-5.61.86-8.47,1.39-3.65.89-7.69.31-11.46-.34-2.23-2.54-3.01-4.98-3-6.19.01-8.12-1.98-8.21-8.18-.05-3.5.03-7-.02-10.5-.03-1.99.76-3.09,2.85-3.02,5.74.18,11.39-1.09,17.15-.83,2.77.13,4.19.74,4.03,3.82-.52,9.72,1.11,8.19,8.48,8.25,3.87.03,7.75-.01,11.62,0,2.65.02,3.77-1.28,3.89-3.9.38-7.89.43-7.98,8.24-8.05,2.71-.02,3.74-.9,3.79-3.69.09-4.5-.87-8.98.52-13.56.81-2.68,1.75-3.85,4.45-3.81,6.72.1,13.46.3,20.04-1.49,1.67-.45,3.31-1.01,4.96-1.52,3.25-.59,6.11.08,8.35,2.66-.11.21-.25.42-.39.62-.69,1.03-2.9,1.52-1.84,3.11,1.11,1.66,2.97.89,4.53.7.11-2.22-3.45-1.88-2.25-4.32,3.02-.88,5.59.75,8.32,1.46,3.37,1.71,7.42,2.02,10.21,4.93,1.17,2.07-1.71.9-1.38,2.76,1.55,1.6,4.14,3.32,3.93,6.95-.09,1.5,2.03,2.04,3.54,2.12,2.6.13,5.09,1.11,7.76.84,1.68-.17,3.07.83,4.4,1.77-.12.26-.17.53-.32.69-.8.88-3.45.47-2.42,2.41.79,1.48,3.05.6,3.9-.26,2.99-3.06,4.08-1.18,4.52,1.63.33,2.09,1.26,2.79,3.19,2.71,3.36-.14,5.49,1.25,5.93,4.77.06.47.23,1.1.56,1.33,4.78,3.27,3.99,8.22,3.84,12.9-.09,2.6,1.12,4.82,1.55,7.25Z"/>
      <path class="cls-19" d="m366.99,585.1c-3.49-1.32-6.97-2.63-10.46-3.95,1.4-2.85,3.65-1.55,5.33-.74,3.22,1.56,6.42,2.41,10.04,2.32,3.23-.08,6.1,1.27,7.92,4.16,1.09,1.73,2.45,2.77,4.58,2.58.49-.04-.12.01.37-.02,3.8-.24,4.94,4.4,8.12,4.69,3.44.31,6.18.77,7.99,4.21,1.23,2.34,3.42,3.21,5.88,1.04,1.61-1.42,3.77-1.11,5.7-1.48,4.38-.83,5.51-1.39,4.33-5.09-1.6-5.05.38-9.31,1.17-13.88.2-1.59-.52-3.49,1.53-4.44,2.71-.07,5.39-.12,7.83-1.66,1.51-.95,3.07-.86,4.14.89,3.34,5.26,7.68,9.63,12.08,14.01,12.86,12.82,28.41,20.37,46,24.19,11.03,2.4,22.22,3.5,33.43,4.56,0,.24-.01.47,0,.71-6.17,2.86-12.4,5.61-18.5,8.62-7.05,3.48-14.51,5.53-22.14,7.14-5.43,1.15-10.74,2.97-16.37,3.06-2.45,1.16-4.09-.61-5.94-1.63v.02c-7.36-2.78-14.37-6.31-21.01-10.56l-.79-.59c-4.83-1.83-9.62-3.76-14.21-6.15-9.9-3.98-18.37-10.32-27.03-16.34-1.32.06-2.21-.65-2.96-1.63-.34-.67-.89-1.05-1.61-1.23-1.83-.17-3.35-.9-4.42-2.45-.53-.82-1.41-1.08-2.26-1.37-1.5.38-2.3-.49-2.96-1.63-5.26-2.45-10.52-4.9-15.78-7.35Z"/>
      <path class="cls-14" d="m446.91,633.61c1.13-.33,2.61.94,4.22.66,1.02-.18,1.79-.09,1.96,1.03.18,1.2-.53,1.92-1.66,2.07-1.18.15-2.07.53-2.76,1.61-1.19,1.89-3.16,2.86-5.13,1.93-2.16-1.02-1.76-3.44-1.43-5.36.43-2.52,2.65-1.65,4.8-1.95Z"/>
      <path class="cls-14" d="m439,623.84c7.2,3.14,14.17,6.74,21.02,10.56-2.56.89-4.14-1.74-6.08-1.9-3.48-.29-6.16-1.8-8.54-3.88-2.03-1.77-5.16-2.02-6.4-4.79Z"/>
      <path class="cls-14" d="m493.72,684.65c-1.25.25-2.51.51-3.76.76-.09-.47-.42-1.22-.25-1.35,2.65-2.14,1.48-4.28-.2-6.45,6.22.27,6.71,1.13,4.2,7.04Z"/>
      <path class="cls-14" d="m460.01,634.38c1.98.54,3.96,1.09,5.94,1.63,1.51.98,3.01,1.97,4.52,2.95-4.44,1.64-6.6.69-10.46-4.58Z"/>
      <path class="cls-14" d="m424,617.1c5.03,1.37,9.9,3.12,14.21,6.15-5.93.7-9.83-3.27-14.21-6.15Z"/>
      <path class="cls-14" d="m479.48,644.19c1.95-.15,3.18,1.11,4.49,2.25-.82,2.5-2.79,1.72-4.17,1.08-1.4-.64-1.54-2.09-.31-3.33Z"/>
      <path class="cls-14" d="m394.02,599.12c1.13.28,2.2.66,2.96,1.63-.11.82-.41,1.52-1.39,1.31-1.63-.35-1.61-1.66-1.57-2.95Z"/>
      <path class="cls-14" d="m382.76,592.45c.99.54,1.98,1.08,2.96,1.63-.08.75-.4,1.9-1.05,1.62-1.24-.53-2.25-1.6-1.92-3.25Z"/>
      <path class="cls-14" d="m387.99,595.45c1.47.82,2.95,1.63,4.42,2.45-2.41.87-3.82-.05-4.42-2.45Z"/>
      <path class="cls-14" d="m436.84,636.22c-.58-.36-1.31-.72-1.11-1.6.11-.5.59-.8,1.13-.67.79.19,1.3.69,1.08,1.57-.12.49-.46.85-1.1.7Z"/>
      <path class="cls-14" d="m437.07,643.97c-.75.07-1.23-.17-1.33-.67-.18-.87.49-1.32,1.16-1.59.56-.23.93.21,1.06.7.24.91-.4,1.28-.89,1.57Z"/>
      <path class="cls-25" d="m178.81,533.21c-1.02,1.83-1.9,2.94-4.68,2.77-2.34-.14-4.92,1.47-7.62,1.95-4.52.81-7.86-1.14-11.51-2.86-2.26-1.06-4.53-.55-6.63.64-4.7,2.67-8.18.77-8.6-4.72.52-2.52,1.1-5.09,2.57-7.21,1.45-2.09.79-4.37,1.13-6.55.7-.39,1.35-1.07,2.23-.37.47,2.53.98,5.04.85,7.65-.04.84-.07,1.91,1.25,1.8,1-.08.93-.98,1.01-1.71.28-2.57.56-5.14,1.06-7.75,1.01,3.42,1.94,6.84,1.99,10.86,2.51-2.87.68-6.07,1.65-8.81,1.5.14,1.19,1.3,1.26,2.19.28,3.46.53,6.91.76,10.37.07,1.16.26,2.54,1.3,2.87,1.41.46,2.18-1.06,2.79-2.02.84-1.31,1.28-2.88,1.88-4.34.47-.42.44-1.55.88-1.49,4.24.52,8.56-1.09,12.74.42,1.48.53,2.1,1.99,2.81,3.28.67.9.97,1.9.89,3.02Z"/>
      <path class="cls-8" d="m177.92,530.19c-2.86-3.26-6.53-3.78-10.34-2.5-2.12.71-4.21-2.14-6.09.29,1.13-4.93,2.24-9.87,3.39-14.8.52-2.22,2.46-2.95,4.25-2.92,2.21.04,4.39.85,5.21,3.4,1.74,5.39,2.78,10.93,3.57,16.53Z"/>
      <path class="cls-23" d="m229.66,541.38c-.7-1.15-1.25-2.15-2.99-1.09-1.26.77-2.87,1.53-4.47.42.17-6.18-.33-12.44,2.41-19.29,2.88,6.83,4.18,13.33,5.04,19.95Z"/>
      <path class="cls-24" d="m210.39,533.87c.35,2.33-1.06,2.48-2.88,2.73-1.31.17-2.6.36-3.92.35-1.7-1.72-.14-3.03.55-4.45.53-5.29-.46-10.68,1.42-16.61,2.68,6.1,4.46,11.84,4.83,17.99Z"/>
      <path class="cls-17" d="m237.99,541.47c-3.58-2.19-3.76,1.65-5.34,3.01.84-5.06,1.69-10.13,2.7-16.23,2.46,4.79,2.09,9.1,2.64,13.22Z"/>
      <path class="cls-13" d="m145.71,516.86c-.74.12-1.49.25-2.23.37.38-2.03.76-4.06,1.22-6.56,1.78,2.18.85,4.27,1.01,6.19Z"/>
      <path class="cls-12" d="m340.75,562.47c.25.25.5.5.74.75,1.12,6.55,5.67,9.87,14.12,9.83,4.69-.02,9.46,1.31,14.1-.48.46-.18,1.19-.26,1.45.05,2.29,2.79,6.36,2.97,8.56,5.5,2.25,2.59,4.38,2.78,6.8,1.12,2.94-2.01,5.56-1.89,8.73-.41,2.91,1.36,6.41.67,9.51,1.72,2.52,2.1,4.75,1.96,6.63-.87,1.46-.94,2.92-1.12,4.37.02.73-.26,1.46-.51,2.19-.77.45.89,1.25,2.09.7,2.79-3.44,4.37-.33,8.97-.63,13.42-.14,2.05-.68,2.95-2.92,3.43-3.17.67-6.68-.25-9.48,3.03-1.37,1.61-4.62-.39-5.62-2.61-1.4-3.12-3.25-4.4-6.65-3.57-1.8.44-2.97-.72-3.91-2.23-1.35-2.16-3.15-3.39-5.94-2.65-2.27.6-3.37-.96-4.24-2.74-1.65-3.39-4.82-4.44-8.08-4.17-3.28.27-6.06-.41-8.77-2.01-1.89-1.12-3.8-1.84-5.89-.48-2.68-1.03-5.4-1.91-8.27-2.22l.03.02c-2.33-2.13-5.55-1.84-8.24-2.99-3.55-1.81-7.33-2.79-11.3-2.98-2.66-.96-5.67-.03-8.24-1.5-.5-.27-1-.54-1.5-.81,2.97-5.44,6.43-6.43,12.13-6.18,2.95.13,7.17,1.98,9.61-2Z"/>
      <path class="cls-15" d="m276.28,566.96c3.22.57,6.59-.83,9.72.76-3.43,1.22-6.85.83-10.27-.05-.09-.02-.15-.13-.22-.2.26-.17.52-.35.77-.52Z"/>
      <path class="cls-15" d="m320.5,571.47c2.85-.05,5.63.28,8.24,1.5-3.04-.1-6.14.45-9.1-.68-.35-.13-1.27-.17-.25-.73.3-.16.73-.07,1.1-.09Z"/>
      <path class="cls-15" d="m301.78,568.56c1.77.13,3.61-.51,5.28.55-1.93,1.41-3.71,1.46-5.28-.55Z"/>
      <path class="cls-15" d="m262.01,566.15c2.48.06,4.96.13,7.44.19-2.5.9-4.99,1.18-7.44-.19Z"/>
      <path class="cls-3" d="m319.71,533.32c.18.24.37.48.55.72,1.52,1.68,2.67,3.49,1.87,5.91-.26.92.31,1.55.75,2.24,1.78.78.6,2.63,1.38,3.77-.03,3.09.82,6.03,1.46,9.01-1.7-1.59-3.39-2.09-5.95-1.69-3.09.48-6.39-.37-9.6-.64,1.05-5.51,2.15-10.99,4.22-16.26.69-1.75,1.89-2.8,3.08-4.02,1.19-.7,1.77.03,2.26.97Z"/>
      <path class="cls-16" d="m295.7,550.47c1.07-4.39,2.19-8.77,4.31-13.97,2.98,6.43,3.02,12.41,3.14,18.38-1.94-2.39-3.89-4.75-7.45-4.41Z"/>
      <path class="cls-14" d="m375.95,659.21c1.12,0,2.24-.04,3.35,0,2.76.11,3.82,1.89,3.36,4.26-.61,3.15,2.41,7.74-2.95,9.09-2.33.59-5.05.57-7.4,0-5.43-1.29-2.39-5.9-3.01-9.04-.46-2.35.52-4.18,3.3-4.33,1.11-.06,2.23,0,3.35-.01Z"/>
      <path class="cls-11" d="m415.77,579.71c-1.55.01-3.14-.14-4.54.76q-2.69-3.69-6,.75c-4.19-.8-8.69.13-12.56-2.47-1.74-1.17-3.35-.22-4.82.8-4.23,2.94-5.56,2.77-8.86-1.25-.69-.84-1.44-1.4-2.55-1.04-1.32.44-2.4-.19-2.87-1.17-1.62-3.34-3.92-2.18-6.73-1.87-6.6.73-13.34.17-19.74-1.63-5.82-1.64-6.91-4.09-5.6-9.37,2.37.3,3.6-.52,3.97-3.11.56-3.87,1.57-7.68,2.42-11.71,1.72.86.91,2.44,1.3,3.57.69.92.7,1.95.51,3.01.02,1.24.07,2.48.06,3.72,0,1.38.13,2.57,2.04,2.07.6-.16.95.19.92.77-.23,4.94,4.18,3.56,6.59,4.5,1.96.76,1.91-1.8,2.29-3.03.49-1.61-.19-3.48.93-5.02.16-.09.32-.17.48-.26.18.01.36.03.54.03,2.38.68,4.17,1.72,4.69,4.57.41,2.27,3.14,3.53,3.29,6.18,1.94-4.13,3.74-8.17,3.57-12.78-.06-1.62.43-3.21.94-4.74.37-1.09.47-2.85,2.02-2.6,1.45.23.34,1.96.87,2.89-.01.21-.02.43-.02.64-.1,2.03-.79,4.07.04,6.09.04,3.06-.51,6.22,1.53,8.94-.11.48-.32,1.39-.23,1.39,3.92-.04,4.58,6.53,9.45,4.62.89-.35,1.26,1.03,1.96,1.5,3.61.5,2.33-3.21,3.87-4.5,1.34,1.96,3.53,2.93,5.23,4.47,1.01,1.78,1.95-.07,2.93-.05,1.53-.12,2.03-1.62,3.13-2.32.96-.22,1.93-.44,2.89-.66,2.1,1.08,2.37,4.27,5.2,4.53.29,1.25.58,2.5.87,3.75Z"/>
      <path class="cls-26" d="m431.46,573.72c-1.51-.83-2.96-1.16-4.36.25-2.07,2.08-4.83.95-7.24,1.49-.05.01-.24-.63-.37-.97,1.59-2.72.49-5.84,1.35-8.74.55-1.87,1.08-3.78,1.6-5.68.28-1,.61-1.96,1.83-2.03,1.2-.06,1.64.85,2.13,1.76,2.37,4.39,3.36,9.28,5.06,13.91Z"/>
      <path class="cls-21" d="m414.9,575.96c-3.66.71-4.13-2.26-5.2-4.53.47-1.24.94-2.47,1.42-3.71.39-3.16-.45-6.54,1.79-9.47-.58,6.09,1.12,11.85,1.99,17.71Z"/>
      <path class="cls-14" d="m310,611.46c0-2.86.03-5.72-.01-8.59-.03-2.04.91-2.93,2.94-2.92,8.82.04,9.3-.93,9.08,8.39-.09,3.85-.06,7.71,0,11.57.04,2.82-1.28,3.98-4.08,4.07-7.66.25-7.93.05-7.93-7.68,0-1.62,0-3.23,0-4.85Z"/>
      <path class="cls-14" d="m387.83,623.96c-5.53,0-5.84-.33-5.84-6.02,0-5.9.85-6.71,7.07-6.73,4.25,0,5.66,1.35,5.68,5.49.04,6.42-.77,7.26-6.91,7.26Z"/>
      <path class="cls-14" d="m348.26,578.92c.4,1.04,1.21,1.48,2.28,1.58,1.72.15,1.85,1.72,1.82,2.76-.04,1.38-1.49.84-2.38.95-.48.06-.98.03-1.47,0-1.65-.08-3.82.45-3.9-2.14-.07-2.31,1.57-3.13,3.69-3.13,0,0-.03-.02-.03-.02Z"/>
      <path class="cls-7" d="m391.66,574.49c-.9.65-1.81-1.03-3.12.3-.64.66-3.27-.55-4.16-2.32-.74-1.48-1.31-2.96-3.56-2.23-.74.24-1.66-.47-1.78-1.53-.12-1.05.36-1.65,1.43-1.74,3,2.47,3.67,2.14,4.72-1.41,1.14-3.84,1.03-7.85,2.09-11.67.37-1.33.59-3.43,2.52-3.06,1.62.31,1.26,2.23,1.19,3.55-.35,6.73.59,13.41.65,20.11Z"/>
      <path class="cls-7" d="m400.76,574.47c-.81-.25-1.63-.71-2.44-.7-2.78.03-2.43-2.1-2.79-3.77.27-1.7.54-3.4.82-5.1.11-.64.43-1.26,1.09-1.35.79-.11.91.63,1.13,1.2,1.19,3.14,1.94,6.37,2.18,9.72Z"/>
      <path class="cls-21" d="m406.81,572.1c-.27,1.81-.14,4.16-3.12,2.32.62-3.76,1.82-7.43,2.02-11.34,1.79,2.83.76,6.02,1.1,9.02Z"/>
      <path class="cls-19" d="m405.23,581.22c.32-1.32.5-2.69.99-3.94.49-1.27,1.75-1.82,2.99-1.87,1.5-.06,1.12,1.29,1.3,2.2.2.97.48,1.91.72,2.87-1.85,3.6-3.38,3.79-6,.75Z"/>
      <path class="cls-19" d="m403.93,587.22c1.72.48,3.25,1.52,3.36,3.36.1,1.64-1.28,2.66-2.98,2.57-1.95-.11-3.36-1.25-3.42-3.22-.05-1.7,1.28-2.53,3.04-2.71Z"/>
      <path class="cls-22" d="m363.28,557.97c.33-2.57-1.04-5.47,1.43-7.75,1.64,4.09,1.07,6.91-1.47,7.71,0,0,.04.04.04.04Z"/>
      <path class="cls-11" d="m1174.4,571.84c4.68-.7,9.44-1.64,14.11-.81,2.27.41,3.33-1.93,5.33-1.22,10.63-1.46,21.39-2.08,31.83-4.72-.51-4.42-3.84-6.22-7.65-7.36-3.54-1.06-7.37-1.01-10.76-2.82-1.5-.8-3.28.13-4.93.37-1.57.23-3.08,0-4.57-.47-1.85.06-2.29-.91-2.41-2.56-.39-5.17-.98-10.32-1.5-15.48-.05-.47-.07-1.01-1.09-1.25-1.81,3.78-1.32,8.03-1.93,12.02-.33,2.17-.89,4.37-.94,6.6-.02.8-.4,1.55-1.23,1.7-1.14.22-1.44-.68-1.81-1.52-2.08-4.82-1.18-10.05-2.31-14.99-.28-1.22.39-3.4-2.35-2.64-1.73,2.64-1.49,5.69-1.84,8.6-.22,1.83-.16,3.69-1.44,5.8-1.46-1.92-.94-3.79-1.1-5.49-.12-1.24-.13-2.51-.5-3.68-.55-1.71.37-4.77-2.54-4.55-2.57.19-2.07,2.98-2.23,4.9.19,3.74,0,7.43-1.8,11.98-1.94-3.95-1.43-7.33-1.48-10.63-.04-2.24.42-4.51-.58-6.66-2.6-1.78-3.6-.19-3.72,1.96-.18,3.33-1.11,6.63-.35,10.02.27,1.23.67,2.64-.3,3.85-.02.02-.23-.07-.33-.14-.1-.07-.17-.19-.24-.31-2.23-2.89-2.37-6.29-2.61-9.66-.45-1.29-.37-2.74-1.29-3.88-2.95-1.37-4.05.22-4.46,2.69-.66,3.99-.86,8.04-1.31,11.85-.65-2.48-.17-5.25-.5-7.96-.14-1.14-.44-2.49-1.77-2.61-1.6-.14-1.55,1.4-1.66,2.42-.31,2.72-1.09,5.4-.78,8.66-.57-2.01-.19-3.67-.78-5.18-.36-.93-.62-2.18-1.8-2.2-1.41-.02-1.82,1.23-2,2.37-.39,2.6.07,5.25-.58,7.83-.2.82-.16,1.76-1.14,2.35-1.61-.64-1.65-2.79-3.35-3.37-4.13-.84-6.55,1.38-8.51,4.43-1.17,1.44-1.13,3.23-1.53,4.9-.2.82-.46,1.86-1.6,1.75-.91-.08-.86-1.09-1.1-1.76-.85-2.37-.07-5.32-2.66-7.09-5.59-.04-11.38-1.63-16.47,2.04-.72.5-.92,1.5-2.21,1.92-.73-2.65-1.12-5.34-1.73-7.98-.25-1.07-.39-2.41-1.94-2.4-1.36,0-1.9,1.12-2.34,2.19-.52,1.27-.7,2.66-1.69,4.18-.38-2.13-.04-3.99-.37-5.79-.21-1.15-.57-2.28-2.07-2.29-1.51,0-1.94,1.13-2.04,2.29-.49,5.2-1.47,10.36-1.44,15.61.56,2.56,1.96,3.61,4.89,3.44,3.27-.19,6.59.28,9.9.08,1.93-.12,3.47.77,4.67,2.17,1.08,1.27,2.55,2.05,3.85,3.03,4.19-.05,8.16-1.75,12.38-1.54,1.85.09,3.73.4,5.47-.55,3.73-.92,7.46-1.2,11.27-.35,1.69.37,3.5.76,5.08-.49,3.34-.54,6.82.78,10.08-.76,2.31-.81,4.81.48,7.09-.62,2.58.28,5.16.62,7.71-.19Z"/>
      <path class="cls-6" d="m1197.77,554.81c1.28,2.66,3.54,1.83,5.54,1.3,2.2-.59,4.17-1.06,5.96.92.93,1.03,2.42.55,3.68.65,5.51.45,10.08,2.4,12.72,7.42,10.91-1.71,21.46-4.85,31.98-7.96,14.9-4.4,29.95-7.66,45.54-8.59,2.66-.16,5.34-.61,8.03-.74,2.29-.68,2.01-1.9.16-2.41-4.02-1.1-6.54-3.14-6.82-7.39-.1-1.5-1.54-1.36-2.7-1.38-.25.05-.51.06-.76.04-1.18,1.02-1.37,2.66-2.58,3.69-1.23,1.04-2.6,2.1-4.14,1.11-4.35-2.79-8.73-2.65-12.94-.1-3.98,2.41-8.09,1.32-11.96.55-2.98-.59-6.11-1.43-8.84-3.03-1.06.4-.42,2.56-2.16,2.1-1.26-.34-1.31-1.65-1.68-2.7-1.98-5.7-3.44-11.54-4.45-17.5-.3,0-.6,0-.9.01-1.09,5.44-2.08,10.9-3.35,16.3-.31,1.31.01,3.62-1.64,3.78-2.07.2-2.08-2.22-2.48-3.59-.74-2.53-1.04-5.19-1.85-7.8-1.42,3.28-2.07,6.67-2.55,10.11-1.54,1.11-2.37,3.65-5.1,2.33-1.23-.25-2.62-.89-3.68-.52-2.12.74-2.07-1.04-2.88-1.84-1.56,1.13.49,4.54-1.75,4.23-2.3-.32-2.41-3.57-2.66-5.62-.42-3.41.34-7-2.23-9.92-1.52,1.92-.98,4.24-1.02,6.45-.07,3.85-.5,7.66-1.38,11.41-.68,2.89-1.92,2.29-3.2.31-1.46-.75-3.19-.6-4.66-1.31-2.23-1.08-2.85.16-3.06,1.98-.92,1.14-.57,3.46-3.1,3.1-.76-.51-.37-1.36-.64-2.02-1.19-2.92-2.19-3.12-4.9-.99-1.45,2.37-.68,5.17-1.54,7.65Z"/>
      <path class="cls-25" d="m1301.86,536.64c1.54.84,1.46,2.29,1.98,3.67.88,2.33,2.14,5.41,5.93,5.45.89,0,3.4-.18,1.45,2.07,7.76-.8,15.57-1.08,23.34-1.87,10.84-1.11,21.49-3.1,32.22-4.78,1.74-.27,3.53-.47,5.06-1.48.19-.18.26-.35.19-.52-.07-.17-.14-.25-.2-.25-1.9.18-2.93-.13-3.23-2.46-.58-4.48-.3-9.14-2.8-13.35-1.01-1.69.47-4.21-1.32-6.21-1.79,4.05-.7,8.36-1.94,12.31-.25.78.13,1.97-1.14,2.03-1.29.07-1.11-1.07-1.28-1.9-.74-3.65-1.56-7.28-1.52-11.04,0-1.01.36-2.2-.98-3.29-1.83,5.26-1.17,10.45-1.56,15.59-1.33-4.88-3.63-9.45-4.44-14.55-1.09,2.59-.68,5.26-.82,7.88-.06,1,.63,2.59-1.08,2.72-1.55.12-1.64-1.63-1.74-2.51-.33-2.95-.57-5.9-1.59-9.42-2.35,2.57-1.96,5.5-2.46,8.08-.31,1.57.25,3.25-.44,4.8-.43.96-.39,2.33-2.04,2.33-1.45,0-2.02-.81-2.31-2.05-.14-.59-.5-1.14-.75-1.71-4.16,1.75-8.45-.07-12.64.41-2.47-.75-1.22-3.6-2.91-4.79-1.06-.88-.64-2.07-.72-3.15-.07-.98.12-2.08-1.41-2.19-1.41-.1-1.6.73-1.83,1.84-.62,3-1.46,5.95-4.12,9.12-.04-4.3.81-7.79-.09-11.86-2.52,3.65.25,7.78-2.42,10.93-.37-2.21-.75-4.27-1.06-6.35-.12-.82.23-1.93-1.09-2.01-1.26-.08-1.2,1.11-1.51,1.86-2.25,5.55-4.49,11.1-6.72,16.66Z"/>
      <path class="cls-20" d="m1325.12,527.66c3.23.13,6.49-.58,9.7.65,1.85.71,2.5-1.2,3.55-2.14-.8-7.25-2.63-14.24-5.29-21.07-1-2.58-1.23-.14-1.81.09-2.54,5.56-4.63,11.28-6.2,17.17-1.44,1.77-.86,3.54.04,5.29Z"/>
      <path class="cls-19" d="m1070.91,586.1c-3.33,1.56-6.65,2.41-10.4,2.32-3.35-.08-6.32,1.27-8.21,4.16-1.13,1.73-2.54,2.77-4.75,2.58-.51-.04.12.01-.39-.02-3.94-.24-5.12,4.4-8.41,4.69-3.56.31-6.4.77-8.28,4.21-1.27,2.34-3.55,3.21-6.1,1.04-1.67-1.42-3.91-1.11-5.91-1.48-4.54-.83-5.71-1.39-4.49-5.09,1.66-5.05-.39-9.31-1.21-13.88-.21-1.59.54-3.49-1.59-4.44-2.81-.07-5.58-.12-8.12-1.66-1.56-.95-3.19-.86-4.29.89-3.42,5.2-7.86,9.53-12.36,13.85,12.25,6.41,25.49,12.23,35.89,21.29,4.13-2.61,8.16-5.39,12.22-8.11,1.37.06,2.29-.65,3.06-1.63.35-.67.93-1.05,1.66-1.23,1.9-.17,3.48-.9,4.58-2.45.55-.82,1.46-1.08,2.34-1.37,1.55.38,2.38-.49,3.07-1.63,5.45-2.45,10.9-4.9,16.35-7.35,3.61-1.32,7.23-2.63,10.84-3.95-1.45-2.85-3.78-1.55-5.52-.74Z"/>
      <path class="cls-25" d="m1260.64,538.9c1.06,1.83,1.97,2.94,4.85,2.77,2.43-.14,5.1,1.47,7.9,1.95,4.68.81,8.14-1.14,11.93-2.86,2.35-1.06,4.7-.55,6.87.64,4.87,2.67,8.47.77,8.92-4.72-.54-2.52-1.14-5.09-2.66-7.21-1.5-2.09-.82-4.37-1.18-6.55-.73-.39-1.4-1.07-2.31-.37-.48,2.53-1.02,5.04-.88,7.65.04.84.07,1.91-1.29,1.8-1.04-.08-.96-.98-1.04-1.71-.29-2.57-.58-5.14-1.1-7.75-1.04,3.42-2.01,6.84-2.06,10.86-2.6-2.87-.7-6.07-1.71-8.81-1.55.14-1.24,1.3-1.31,2.19-.29,3.46-.55,6.91-.78,10.37-.08,1.16-.27,2.54-1.34,2.87-1.46.46-2.26-1.06-2.89-2.02-.87-1.31-1.32-2.88-1.95-4.34-.48-.42-.45-1.55-.91-1.49-4.4.52-8.88-1.09-13.2.42-1.53.53-2.18,1.99-2.91,3.28-.7.9-1.01,1.9-.92,3.02Z"/>
      <path class="cls-8" d="m1261.56,535.88c2.96-3.26,6.77-3.78,10.72-2.5,2.19.71,4.37-2.14,6.31.29-1.17-4.93-2.32-9.87-3.52-14.8-.54-2.22-2.55-2.95-4.41-2.92-2.29.04-4.55.85-5.4,3.4-1.8,5.39-2.89,10.93-3.7,16.53Z"/>
      <path class="cls-24" d="m1227.91,539.56c-.37,2.33,1.09,2.48,2.99,2.73,1.36.17,2.69.36,4.06.35,1.77-1.72.15-3.03-.57-4.45-.55-5.29.48-10.68-1.47-16.61-2.78,6.1-4.62,11.84-5,17.99Z"/>
      <path class="cls-17" d="m1199.3,547.16c3.71-2.19,3.89,1.65,5.53,3.01-.87-5.06-1.75-10.13-2.8-16.23-2.55,4.79-2.16,9.1-2.73,13.22Z"/>
      <path class="cls-12" d="m1092.79,568.16c-.26.25-.51.5-.77.75-1.16,6.55-5.88,9.87-14.63,9.83-4.87-.02-9.8,1.31-14.61-.48-.48-.18-1.24-.26-1.5.05-2.37,2.79-6.6,2.97-8.87,5.5-2.33,2.59-4.54,2.78-7.05,1.12-3.05-2.01-5.76-1.89-9.05-.41-3.01,1.36-6.65.67-9.86,1.72-2.61,2.1-4.92,1.96-6.88-.87-1.52-.94-3.03-1.12-4.53.02-.76-.26-1.51-.51-2.27-.77-.46.89-1.3,2.09-.72,2.79,3.56,4.37.34,8.97.65,13.42.15,2.05.71,2.95,3.02,3.43,3.29.67,6.92-.25,9.83,3.03,1.42,1.61,4.79-.39,5.83-2.61,1.45-3.12,3.36-4.4,6.89-3.57,1.86.44,3.08-.72,4.06-2.23,1.4-2.16,3.27-3.39,6.15-2.65,2.35.6,3.49-.96,4.39-2.74,1.71-3.39,5-4.44,8.38-4.17,3.4.27,6.28-.41,9.09-2.01,1.96-1.12,3.94-1.84,6.11-.48,2.78-1.03,5.6-1.91,8.57-2.22l-.03.02c2.42-2.13,5.75-1.84,8.54-2.99,3.68-1.81,7.59-2.79,11.72-2.98,2.76-.96,5.88-.03,8.54-1.5.52-.27,1.04-.54,1.55-.81-3.08-5.44-6.67-6.43-12.58-6.18-3.06.13-7.43,1.98-9.97-2Z"/>
      <path class="cls-3" d="m1114.6,539.01c-.19.24-.38.48-.57.72-1.58,1.68-2.76,3.49-1.93,5.91.27.92-.32,1.55-.78,2.24-1.84.78-.62,2.63-1.43,3.77.03,3.09-.85,6.03-1.51,9.01,1.76-1.59,3.51-2.09,6.17-1.69,3.21.48,6.62-.37,9.95-.64-1.09-5.51-2.23-10.99-4.37-16.26-.71-1.75-1.96-2.8-3.19-4.02-1.23-.7-1.83.03-2.34.97Z"/>
      <path class="cls-16" d="m1139.48,556.16c-1.11-4.39-2.27-8.77-4.47-13.97-3.09,6.43-3.13,12.41-3.25,18.38,2.01-2.39,4.03-4.75,7.72-4.41Z"/>
      <path class="cls-11" d="m1015.03,585.4c1.61.01,3.25-.14,4.7.76q2.79-3.69,6.22.75c4.34-.8,9.01.13,13.01-2.47,1.8-1.17,3.47-.22,5,.8,4.39,2.94,5.76,2.77,9.19-1.25.72-.84,1.5-1.4,2.65-1.04,1.37.44,2.48-.19,2.98-1.17,1.68-3.34,4.06-2.18,6.98-1.87,6.85.73,13.83.17,20.46-1.63,6.03-1.64,7.16-4.09,5.8-9.37-2.46.3-3.73-.52-4.12-3.11-.58-3.87-1.62-7.68-2.51-11.71-1.78.86-.94,2.44-1.35,3.57-.72.92-.73,1.95-.53,3.01-.02,1.24-.07,2.48-.06,3.72,0,1.38-.13,2.57-2.12,2.07-.62-.16-.98.19-.96.77.24,4.94-4.33,3.56-6.83,4.5-2.03.76-1.98-1.8-2.38-3.03-.51-1.61.2-3.48-.97-5.02-.17-.09-.34-.17-.5-.26-.19.01-.37.03-.56.03-2.47.68-4.33,1.72-4.86,4.57-.42,2.27-3.25,3.53-3.41,6.18-2.01-4.13-3.87-8.17-3.7-12.78.06-1.62-.44-3.21-.98-4.74-.38-1.09-.48-2.85-2.1-2.6-1.5.23-.35,1.96-.9,2.89.01.21.02.43.02.64.1,2.03.82,4.07-.04,6.09-.04,3.06.53,6.22-1.58,8.94.12.48.33,1.39.24,1.39-4.06-.04-4.75,6.53-9.8,4.62-.92-.35-1.31,1.03-2.03,1.5-3.74.5-2.42-3.21-4.01-4.5-1.39,1.96-3.65,2.93-5.42,4.47-1.04,1.78-2.02-.07-3.03-.05-1.58-.12-2.11-1.62-3.24-2.32-1-.22-2-.44-3-.66-2.18,1.08-2.46,4.27-5.39,4.53-.3,1.25-.6,2.5-.9,3.75Z"/>
      <path class="cls-26" d="m998.76,579.41c1.56-.83,3.07-1.16,4.52.25,2.14,2.08,5.01.95,7.51,1.49.05.01.25-.63.38-.97-1.65-2.72-.51-5.84-1.4-8.74-.57-1.87-1.12-3.78-1.66-5.68-.29-1-.63-1.96-1.9-2.03-1.24-.06-1.7.85-2.21,1.76-2.46,4.39-3.48,9.28-5.24,13.91Z"/>
      <path class="cls-21" d="m1015.93,581.65c3.8.71,4.28-2.26,5.39-4.53-.49-1.24-.98-2.47-1.47-3.71-.41-3.16.47-6.54-1.85-9.47.6,6.09-1.17,11.85-2.07,17.71Z"/>
      <path class="cls-7" d="m1040.02,580.19c.93.65,1.88-1.03,3.23.3.67.66,3.39-.55,4.31-2.32.77-1.48,1.36-2.96,3.69-2.23.77.24,1.72-.47,1.84-1.53.12-1.05-.37-1.65-1.49-1.74-3.11,2.47-3.8,2.14-4.89-1.41-1.18-3.84-1.07-7.85-2.16-11.67-.38-1.33-.61-3.43-2.62-3.06-1.68.31-1.31,2.23-1.24,3.55.37,6.73-.61,13.41-.68,20.11Z"/>
      <path class="cls-7" d="m1030.59,580.16c.84-.25,1.69-.71,2.53-.7,2.88.03,2.51-2.1,2.89-3.77-.28-1.7-.56-3.4-.85-5.1-.11-.64-.44-1.26-1.13-1.35-.82-.11-.95.63-1.17,1.2-1.24,3.14-2.01,6.37-2.26,9.72Z"/>
      <path class="cls-21" d="m1024.32,577.79c.28,1.81.15,4.16,3.24,2.32-.65-3.76-1.89-7.43-2.1-11.34-1.86,2.83-.78,6.02-1.14,9.02Z"/>
      <path class="cls-19" d="m1025.95,586.91c-.33-1.32-.52-2.69-1.02-3.94-.51-1.27-1.81-1.82-3.1-1.87-1.56-.06-1.16,1.29-1.35,2.2-.2.97-.49,1.91-.74,2.87,1.91,3.6,3.5,3.79,6.22.75Z"/>
      <path class="cls-22" d="m1069.44,563.66c-.34-2.57,1.08-5.47-1.49-7.75-1.7,4.09-1.11,6.91,1.53,7.71,0,0-.04.04-.04.04Z"/>
    </g>
    <g>
      <path class="cls-15" d="m992.08,587.15c20.81,3.75,42.25,3.99,63.13.71,19.42-3.05,38.28-9.09,57.75-11.78,22.88-3.17,46.15-1.66,69.16-3.71,31.14-2.77,61.28-11.98,91.83-18.61,42.51-9.22,85.92-13.45,129.21-17.66,4.12-.4,9.48-.04,10.73,3.91.34,1.07.27,2.22.14,3.33-1.94,16.13-17.28,27.87-33.09,31.61-15.81,3.74-32.33,1.38-48.54.35-54.54-3.46-108.71,8.32-162.65,17.13-53.66,8.76-107.74,14.61-161.79,20.46,6.95.58,13.91,1.16,20.86,1.74-10.06,1.49-20.48.45-30.04-3.02-5.81-2.11-11.84-5.73-13.45-11.71s4.51-13.43,10.11-10.8"/>
      <path class="cls-15" d="m991.69,588.59c13.66,2.43,27.54,3.45,41.41,2.91s27.75-2.84,41.4-5.92,27.38-6.68,41.37-8.39,28.32-1.79,42.49-2.15c14.12-.35,28.13-1.27,42.09-3.49,13.81-2.2,27.45-5.35,41.04-8.62,13.65-3.28,27.29-6.67,41.05-9.45s27.96-5.13,42.03-7.11,28.78-3.71,43.2-5.24c7.07-.75,14.15-1.46,21.23-2.16,3.47-.34,6.94-.68,10.41-1.02,2.77-.27,5.63-.74,8.42-.36s4.93,1.63,4.79,4.73c-.12,2.56-.85,5.18-1.77,7.56-1.89,4.88-5.15,9.14-9,12.64-8.82,8.01-20.38,11.7-32.08,12.64-13.86,1.12-27.72-.91-41.54-1.6-14.16-.7-28.35-.4-42.49.58-28.41,1.97-56.54,6.63-84.57,11.44-28.48,4.89-56.97,9.5-85.61,13.3-28.77,3.81-57.62,7.07-86.47,10.22-7.04.77-14.08,1.53-21.11,2.29-1.91.21-1.95,2.84,0,3,6.95.58,13.91,1.16,20.86,1.74-.13-.98-.27-1.96-.4-2.95-11.08,1.57-23.81.39-33.77-5.05-3.84-2.1-8.31-5.8-8.07-10.65.21-4.1,4.1-8.75,8.46-6.93,1.78.74,2.56-2.16.8-2.89-4.81-2-9.55,1.62-11.37,5.98-2.27,5.43.41,10.91,4.71,14.44,5,4.09,11.62,6.15,17.85,7.42,7.33,1.49,14.79,1.64,22.19.59,1.78-.25,1.16-2.82-.4-2.95-6.95-.58-13.91-1.16-20.86-1.74v3c29.42-3.18,58.84-6.37,88.21-10.02,29.15-3.63,58.23-7.78,87.19-12.7,28.91-4.91,57.8-10.25,87-13.21,14.38-1.45,28.82-2.33,43.27-2.28s28.77,1.79,43.19,2.23c12.43.38,25.2-.69,36.45-6.42,9.09-4.63,17.15-12.12,20.68-21.86,1.49-4.11,3.29-10.45-.77-13.64-3.99-3.13-10.01-1.9-14.6-1.45-14.44,1.41-28.87,2.83-43.29,4.47-28.77,3.26-57.49,7.36-85.76,13.69-28.06,6.29-55.85,14.48-84.55,17.39-14.54,1.48-29.16,1.42-43.75,1.87-14.27.45-28.37,1.69-42.37,4.55s-27.62,6.63-41.62,9c-14.35,2.43-28.98,3.17-43.5,2.25-7.13-.45-14.23-1.32-21.26-2.57-1.89-.34-2.7,2.56-.8,2.89h0Z"/>
    </g>
    <path class="cls-15" d="m1021.16,611.44l.05.61.05.4c.05.2.14.37.27.51.2.26.46.45.78.54.29.08.58.18.85.3l-.36-.15c.54.23,1.05.53,1.52.89l-.3-.23c.07.06.14.11.21.17l1.82-2.36-.03-.02.3.23s-.06-.06-.09-.09l.23.3s-.05-.07-.06-.11l.15.36c-.02-.05-.03-.1-.04-.16l.05.4c0-.05,0-.11,0-.16l-.05.4s.02-.08.03-.12l-.15.36s.04-.08.06-.11l-.23.3.02-.03c.15-.14.25-.3.31-.48.09-.18.14-.37.13-.58,0-.37-.16-.81-.44-1.06s-.66-.46-1.06-.44c-.37.02-.82.14-1.06.44-.22.27-.39.5-.48.85-.08.29-.08.55-.04.84s.09.5.25.77c.18.31.41.5.69.7.17.11.36.17.56.18.2.04.4.04.6-.03.32-.1.58-.27.78-.54s.34-.58.32-.91c-.02-.38-.14-.81-.44-1.06-.47-.4-.97-.76-1.52-1.05s-1.13-.52-1.72-.69l1.1,1.45-.05-.61c-.03-.4-.15-.77-.44-1.06-.26-.26-.69-.46-1.06-.44s-.79.14-1.06.44-.47.67-.44,1.06h0Z"/>
    <path class="cls-15" d="m996.6,586.58c-4.15-1.37-8.48-1.22-12.79-.97s-8.48.86-12.43,2.49c-.75.31-1.27.99-1.05,1.85.19.71,1.1,1.36,1.85,1.05,3.71-1.53,7.65-2.15,11.63-2.38,4.05-.24,8.09-.43,12,.86,1.84.6,2.63-2.29.8-2.89h0Z"/>
  </g>
  <path class="cls-14" d="m514.84,669.26c7.36,6.51,13.59,14.19,19.77,21.83,14.41,17.79,28.82,35.57,43.23,53.36,5.97,7.37,11.99,14.81,16.44,23.19-4.77,3.11-10.7,3.72-16.38,4.09-11.61.75-23.26.8-34.9.86-18.2.09-36.41.18-54.57-.85-10.17-.57-20.36-1.49-30.54-.95-12.48.67-24.91,3.55-37.37,2.46-6.24-.55-12.35-2.09-18.39-3.77-2.75-.76-5.56-1.59-7.84-3.3-6.72-5.02-6.34-15.08-4.82-23.33,4.25-23.17,12.12-45.67,23.24-66.43,4.76-8.89,10.26-17.63,18.07-23.99s18.34-10.09,28.14-7.73c3.96.95,7.63,2.84,11.26,4.7,16.62,8.55,33.24,17.11,49.85,25.66"/>
  <path class="cls-19" d="m522.69,618.53c36.17,2.93,71.3,20.11,94.57,47.96,11.76,14.07,20.37,30.46,28.65,46.83,6.48,12.81,12.81,25.69,18.99,38.65,1.93,4.05,3.87,8.18,4.65,12.6.29,1.68.4,3.5-.37,5.02-1.01,1.99-3.24,3.01-5.37,3.65-7.47,2.24-15.46,1.57-23.23.88-9.45-.84-18.92-1.69-28.26-3.36-5.68-1.02-11.5-2.43-16.07-5.94-3.85-2.96-6.5-7.17-9.12-11.26-8.21-12.8-16.91-25.28-26.08-37.4-3.09-4.09-6.27-8.17-10.17-11.49-4.21-3.58-9.23-6.26-12.74-10.53-2.45-2.99-4.02-6.59-6.24-9.75-4.51-6.43-11.65-10.95-15.02-18.05-3.52-7.43-2.2-16.17-.4-24.19,1.83-8.13,4.42-16.71,10.89-21.98"/>
  <path class="cls-19" d="m529.44,620.16c-4.35-1.63-8.95-2.54-13.59-2.76-.81-.04-1.5.72-1.5,1.5,0,.84.69,1.46,1.5,1.5,4.38.21,8.68,1.12,12.79,2.65.76.28,1.64-.32,1.85-1.05.23-.84-.29-1.56-1.05-1.85h0Z"/>
  <path class="cls-14" d="m448.79,644.99c10.58.83,19.96,6.76,29.85,10.61,7.51,2.93,15.43,4.68,23.04,7.34,18.53,6.47,34.75,18.09,50.68,29.57,10.52,7.57,21.04,15.15,31.55,22.72,19.95,14.37,40.71,29.68,51.27,51.89.43.9.85,1.88.66,2.86-.35,1.83-2.51,2.59-4.34,2.97-31.67,6.53-64.81-1.7-94.08-15.44-9.35-4.39-18.68-9.53-25.33-17.44-5.27-6.26-8.58-13.94-11.25-21.67-3.12-9.02-5.52-18.5-4.93-28.03s4.51-19.2,12.09-25.02"/>
  <path class="cls-14" d="m435.7,624.91c14.63,6.86,29.13,13.98,43.51,21.36,7.06,3.63,14.26,7.13,20.93,11.45s12.65,9.54,18.77,14.54c7.22,5.9,14.44,11.81,21.65,17.71,1.48,1.21,3.62-.9,2.12-2.12-6.44-5.27-12.89-10.54-19.33-15.81s-12.35-10.41-18.94-15.05-13.61-8.11-20.64-11.74-14.53-7.43-21.85-11.04c-8.19-4.05-16.43-8.01-24.7-11.89-1.74-.82-3.26,1.77-1.51,2.59h0Z"/>
  <path class="cls-14" d="m449.94,642.65h-1.34c-.21,0-.4.04-.58.13-.19.06-.35.16-.48.31-.15.14-.25.3-.31.48-.09.18-.14.37-.13.58l.05.4c.07.25.2.47.39.66l.3.23c.23.14.49.2.76.2h1.34c.21,0,.4-.04.58-.13.19-.06.35-.16.48-.31.15-.14.25-.3.31-.48.09-.18.14-.37.13-.58l-.05-.4c-.07-.25-.2-.47-.39-.66l-.3-.23c-.23-.14-.49-.2-.76-.2h0Z"/>
  <path class="cls-14" d="m474.82,782.14c-55.65-45.59-118.35-81.66-180.75-117.46-16.58-9.51-33.24-19.06-51.1-25.88-20.41-7.8-42.01-11.91-63.47-15.97-20.29-3.84-40.96-7.71-61.47-5.29-16.64,1.96-32.59,8-49.22,10.09-11.02,1.39-22.51,1.09-32.72,5.47-10.56,4.53-18.55,13.67-24.22,23.67-6.81,12.01-10.72,25.43-13.87,38.87-4.73,20.2-7.88,40.78-9.4,61.47-.42,5.74-.67,11.75,1.73,16.97,3.78,8.24,13.08,12.37,21.91,14.42,15.52,3.59,31.66,2.91,47.59,2.97,57.91.24,115.23,10.63,172.75,17.34,34.39,4.01,68.91,6.71,103.42,9.41,14.47,1.13,29.1,2.26,43.43-.02,11.26-1.79,22.09-5.65,33.24-8.07,8.93-1.94,18.21-3,26.39-7.06,17.17-8.52,25.56-27.87,32.6-45.69"/>
</svg>