<?xml version="1.0" encoding="UTF-8"?>
<svg id="Layer_1" data-name="Layer 1" xmlns="http://www.w3.org/2000/svg" viewBox="0 0 6270.96 1036.74">
  <path d="m308.67,274.01c16.67,40.26,39.19,76.51,67.5,111.12,22.76-32.95,40.22-66.07,37.41-105.99-19.87,3.24-38.83,6.39-57.82,9.35-1.84.29-3.86-.63-7.69-1.35,16.67-15.59,30.14-32.22,39.06-52.05,8.82-19.61,13.64-40.03,12.7-62.7-8.01,1.88-15,3.69-22.07,5.14-7.11,1.46-14.28,3.16-22.68.91,30.79-37.78,34.29-80.11,24.54-124.77-.77-.32-1.53-.64-2.3-.95-4.38,5.98-8.77,11.95-13.15,17.93-.63-.14-1.26-.28-1.88-.42-.36-8.12-.72-16.25-1.12-25.21-8.07-2.65-16.15-5.31-24.23-7.96-.14-.57-.27-1.15-.41-1.72,7.95-2.9,15.89-5.79,24.66-8.99.12-8.55.25-17.07.37-25.59.51-.25,1.03-.51,1.54-.76,5.12,6.7,10.24,13.4,15.67,20.51,8.2-2.68,16.03-5.24,25.08-8.19-2.79,9.55-10.21,14.93-13.76,23.27,4.8,6.7,9.77,13.63,14.74,20.57-.38.6-.76,1.21-1.14,1.81-6.69-2.04-13.38-4.08-22.54-6.88,9.94,21.91,21.54,39.79,37.06,55.1,15.69,15.48,34.19,26.16,57.41,31.74-11.85,11.93-26.31,15.45-40.23,22.08,28.04,37.09,65.15,55.49,111.66,60.08-16.9,17.02-38.17,22.58-58.52,32.59,4.98,6.28,9.09,12.29,14.02,17.55,16.81,17.94,38.03,28.92,60.76,37.26,29.96,10.99,61.07,16.33,92.79,18.61,1.92.14,3.83.4,7.98.85-4.4,3.58-7.23,6.18-10.33,8.38-22.28,15.79-47.13,26.16-73.1,33.98-9.24,2.78-18.69,4.85-28.04,7.28-2.46.64-4.89,1.4-8.5,2.45,2.65,3.46,4.45,6.12,6.56,8.52,19.27,21.91,41.39,40.5,65.91,56.28,3.35,2.16,6.58,4.7,11.97,2.31.05-29.41.1-59.19.16-90.03,17.69-.05,34.52-.1,52.54-.16.11-20.24.21-39.76.32-60.42,4.13-.15,8.04.04,11.84-.51,4.06-.59,8.55,2.18,12.27-2.89,1.7-2.32,6.71,4.21,10.33-.06,7.91,6.34,17.18,1.37,25.66,3.03,1.89.37,3.9.11,7.29.17.14,20.15.29,39.91.44,60.69,24.77.19,48.85.38,73.58.57.83,30.06-.33,59.09,1.62,88.11,4.64-12.41,9.41-24.13,8.14-38.16-3.13-34.57.61-68.51,14.95-100.73,8.12-18.23,19.28-34.16,34.84-47.38-4.62-4.94-9.81-9.17-13.25-14.53-3.47-5.41-7.68-9.63-12.35-13.9-9.12-8.35-8.26-18.98-4.87-29.67,1.07-3.39,2.54-6.65,4.41-11.49-5.94,1.91-10.3,3.39-14.7,4.71-21.54,6.46-43.29,10.68-65.97,7.31-23.81-3.53-42.63-14.81-55.16-35.51-2.93-4.85-6.12-6.74-11.67-7.39-14.17-1.65-22.7-11.94-22.54-25.86.16-13.34,9.95-24.24,23.21-25.81,17.82-2.11,33.37,15.75,27.88,33.09-1.89,5.99-.48,9.34,3.25,13.15,10.16,10.39,22.61,14.96,36.95,14.73,23.02-.36,43.56-8.72,63.11-20,2.24-1.29,4.01-3.47,5.88-5.35,21.26-21.28,45.86-25.8,73.15-13.17,5.42,2.51,10.64,5.55,15.62,8.84,6.89,4.56,13.01,10,21.75,11.55,6.09,1.09,10.41,6.11,12.6,11.94,1.73,4.61,3.49,9.71,3.21,14.47-.43,7.33.72,13.05,7.73,16.52.29.14.58.4.73.67,4.45,8,9.86,15.19,16.26,21.84,3.74,3.88,2.35,9.5.51,14.29-1.05,2.73-2.69,5.24-4.38,8.44,2.81,2.17,5.47,4.04,7.93,6.15,8.85,7.57,17.89,14.94,26.32,22.96,4.03,3.84,7.23,8.72,10.12,13.55,6.01,10.04,4.59,19.64-2.57,29.75,8.76-2.35,17.47-4.92,26.3-6.97,7.64-1.77,14.22-4.67,19.61-10.83,3.41-3.9,8.12-6.97,12.77-9.43,11.02-5.85,20.79-4.48,28.81,5.03,5.28,6.26,8.93,13.92,13.11,21.06,1.62,2.76,2.72,5.83,4.59,9.93,3.22-4.27,5.7-7.56,8.72-11.56,2.12,2.48,3.9,4.56,6.22,7.28,9.52-3.29,19.59-5.98,25.33,8.11-.09.3-.67,2.15-1.47,4.76,2.27,1.25,4.66,2.56,7.97,4.38-2.81,3.21-5.14,5.87-8.35,9.53,2.67,2.49,5.37,5.22,8.28,7.69,28.59,24.22,59.96,44.31,92.74,62.29,57.44,31.51,117.63,56.38,180.17,75.85,91.92,28.61,185.83,47.94,281.22,59.79,162.14,20.15,324.24,21.01,485.98-4.61,75.24-11.92,148.86-30.14,219.46-59.33,39.55-16.35,77.33-36,111.79-61.62,4.14-3.08,8.04-6.48,12.34-9.96-3.95-4.5-8.13-3.61-11.91-3.48-27.95.97-50.27-10.81-69.07-30.46-3.04-3.17-7.03-6.29-5.19-13.11,4.59,2.01,8.85,3.55,12.81,5.66,8.82,4.68,17.37,9.88,26.28,14.37,3.28,1.65,7.26,1.89,12.11,3.07-1.87-15.13-12.02-22.3-21.61-29.93,3.01-5.6,6.17-10.54,2.44-16.85-4.27,1.32-8.63,2.75-13.03,4.03-30.62,8.84-61.87,9.87-93.1,5.35-27.67-4.01-55.01-10.19-82.61-14.74-13.41-2.21-27.05-3.78-40.62-4.1-27.01-.65-48.89-11.53-66.85-31.07-2.49-2.71-3.91-6.4-6.87-11.41,4.44.83,6.74.75,8.53,1.68,7.1,3.66,14,7.7,21.04,11.48,4.69,2.52,9.35,5.18,14.28,7.12,2.78,1.09,6.08.86,11.37,1.49-3.1-6.12-5.06-10.2-7.21-14.16-3.49-6.44-7.43-12.66-10.56-19.26-2.24-4.73-3.85-9.96,1.34-16.13,2.93,3.85,5.61,6.96,7.83,10.36,5.84,8.92,11.16,18.18,17.33,26.86,3.22,4.54,7.36,8.69,11.82,12.03,6.2,4.64,12.06,2.22,12.97-5.5.61-5.13.41-10.96-1.47-15.67-5.04-12.64-10.97-24.94-16.95-37.18-3.77-7.71-8.27-15.06-12.44-22.57l1.53-1.77c2.05.98,4.46,1.56,6.11,3.01,17.14,15.06,32.72,31.55,42.43,52.47,3.73,8.02,5.78,16.91,7.8,25.6,1.22,5.24,2.7,9.91,8.14,11.49,9.89,2.87,19.81,6.05,29.95,7.59,13.17,1.99,18.35-1.65,22.24-14.41,2.52-8.25,4.4-16.76,5.74-25.28,1.64-10.42-.02-20.54-4.75-30.14-1.5-3.05-4.35-6.11-1.8-11.02,2,1.12,4.36,1.7,5.53,3.2,13.31,17.19,19.6,36.08,13.69,57.9-2.07,7.64-3.66,15.41-5.8,24.53,4.23.79,7.34,1.95,10.41,1.84,23.28-.82,46.55-1.84,69.81-2.94,3.3-.16,6.58-.99,9.84-1.65,10-2.03,16.59-8.05,20.15-17.5,7.07-18.76,10.56-37.83,5.19-57.74-.64-2.39-.58-4.96-.89-7.81,5.67-.55,6.87,3.46,8.38,6.4,8.05,15.69,10.06,32.26,6.67,49.53-.68,3.45-1.29,6.9-2.09,11.22,13.62-6.62,21.56-20.6,20.51-34.64-.63-8.48-3.49-16.22-8.04-23.39-21.83-34.32-53.51-53.26-93.33-58.43-26.89-3.48-53.1-9.52-78.81-17.82-6.43-2.08-11.99-1.78-18.33.45-21.61,7.61-41.36,3.57-58.74-11.3-4.54-3.88-8.67-8.3-12.62-12.79-2.29-2.6-3.86-5.84-5.76-8.79l1.61-1.89c3.9,2,7.83,3.94,11.68,6.02,9.95,5.36,19.66,11.24,29.89,15.99,4.97,2.31,10.88,3.23,16.41,3.41,2.66.08,6.45-2.41,7.91-4.84,2.15-3.57-1.69-5.68-4.08-7.98-9.33-8.98-18.96-17.72-27.61-27.32-4.45-4.94-8.32-11.13-6.55-19.22,5.9-.4,8.5,3.91,11.79,6.87,8.41,7.56,16.58,15.4,25.21,22.7,3.08,2.61,7.21,3.98,12.69,6.88-.33-4.61,0-7.2-.75-9.43-5.03-15.25-11.12-29.98-21.61-42.5-2.63-3.14-4.49-6.91-6.98-10.81,6.19-3.1,10.44-.84,14.17,1.77,16.61,11.62,28.74,26.64,33.88,46.61,1.49,5.8,2.37,11.75,3.76,17.58,1.24,5.17,4.11,9.15,9.57,10.51,17.11,4.28,34.15,8.89,51.39,12.56,7.86,1.67,10.63-1.2,9.67-9.33-1.91-16.23-4.75-32.27-13.04-46.82-2.2-3.86-3.41-8.3-5.1-12.56,6.38-2.3,9.77.89,12.91,3.66,16.66,14.72,25.27,33.15,24.92,55.54-.03,2-.3,3.99-.41,5.98-.52,9.54.36,10.83,9.6,13.13,25.98,6.46,47.84,19.7,65.71,39.76q5.52-.44,20.7,6.8c7.08-10.09,10.97-20.85,7.79-33.44-1.68-6.66-4.95-13.06-3.41-21.1,6.4.55,9.43,5.08,11.79,9.53,7.95,14.95,21.37,24.33,34.16,34.34,2.36,1.84,5.65,2.5,10.08,4.37-.46-4.44-.26-7.09-1.05-9.4-5.22-15.16-10.89-30.09-21.76-42.4-2.55-2.89-4.33-6.46-6.5-9.77,3.78-4.2,7.51-2.71,10.52-1.12,4.08,2.16,8.1,4.78,11.39,7.99,13.59,13.26,24.51,28.14,27.1,47.73.35,2.63,1.26,5.18,1.74,7.8,1.42,7.7,5.9,12.37,13.5,14.29,14.53,3.66,29.02,7.48,43.55,11.12,2.56.64,5.27.86,7.92.96,4.05.16,6.28-2.12,6.4-6.03.1-3.31-.1-6.67-.57-9.95-2.13-14.93-5.57-29.43-13.58-42.54-1.81-2.96-2.59-6.55-3.88-9.96,4.39-2.93,7.09-1.06,9.77.96,19.19,14.53,28.25,33.98,28.09,57.89,0,1.33-.27,2.65-.36,3.98-.71,11.33-.1,11.94,11.01,15.04,27.41,7.65,50.72,21.41,67.64,45.01,9.25,12.9,15.09,12.25,21.56-2.09,4.64-10.3,6.14-20.93,2.57-32.09-1.86-5.83-4.24-11.85-2.59-18.43,4.96-.86,7.29,2.12,9.31,5.06,10.73,15.58,18.81,36.6,2.58,60.48-3.56,5.23-7.24,10.38-10.9,15.54-2.79,3.92-3.39,8.15-.74,12.15,4.23,6.37,8.72,12.59,13.42,18.62,2.69,3.45,6.28,4.87,10.53,2.13,16.28-10.46,33.26-6.71,50.22-2.3,3.21.83,6.5,1.85,9.34,3.51,18.37,10.71,38.7,11.33,59.08,11.84,5.32.13,10.68-.22,15.97.21,10.31.84,12.64,4.77,8.1,14.28-2.05,4.29-.29,6.65,2.13,9.71,5.58,7.06,4.64,10.66-3.78,14.24-3.95,1.69-8.19,2.92-12.41,3.72-9.52,1.8-17.75,6.13-24.27,13.05-13.28,14.11-28.35,25.23-48.86,30.12,2.82,4.21,4.69,7.6,7.11,10.53,11.23,13.63,23,26.83,33.84,40.77,14.24,18.32,33.83,29.89,52.28,42.91,2.3,1.62,5.55,2.16,8.45,2.63,89.37,14.6,178.95,16.68,268.73,4.2,5.79-.81,11.57-2.81,16.95-5.18,16.66-7.33,33.56-12.86,52.17-10.75,3.19.36,6.61-.47,9.82-1.22,88.82-20.61,171.63-55.48,248.3-104.87,1.4-.9,2.74-1.89,4.03-2.94.49-.4.76-1.07,1.4-2.02-2.85-9.2-5.8-18.69-9.03-29.12-3.95-.51-8.15-1.59-12.32-1.49-28.03.69-50.13-11.38-68.5-31.49-2.3-2.52-3.76-5.81-6.04-9.42,4.76-2.14,7.64-.33,10.39,1.18,7.59,4.16,15.04,8.59,22.65,12.71,5.82,3.15,11.61,6.69,19.74,5.45-1.49-13.54-11.85-20.58-20.74-28.46,1.59-5.71,6.15-10.65,2.42-15.56-17.39,3.2-34.24,7.31-51.33,9.24-33.48,3.78-66.47-1.42-99.24-7.88-12.75-2.51-25.44-5.34-38.12-8.15-14.37-3.19-28.83-4.76-43.6-4.64-27.67.23-48.91-13.2-66.69-33.13-1.61-1.8-2.25-4.47-3.62-7.33,4.77-1.94,7.98-.08,11.01,1.59,7.59,4.16,14.98,8.7,22.61,12.78,5.53,2.95,11.09,6.26,19.4,4.8-1.61-3.79-2.81-7.34-4.56-10.6-3.92-7.33-8.53-14.32-12.03-21.84-2.13-4.58-4.09-9.99,1.66-15.56,2.64,3.43,5.15,6.32,7.24,9.49,6.03,9.18,11.7,18.61,17.92,27.67,2.61,3.8,6.06,7.08,9.46,10.23,3,2.78,6.72,4.85,10.9,2.76,4.14-2.07,4.94-6.36,4.58-10.35-.47-5.26-.97-10.81-3-15.58-4.94-11.62-10.6-22.94-16.29-34.22-3.71-7.35-8-14.41-12.02-21.61.53-.58,1.06-1.16,1.59-1.74,2.14.94,4.65,1.45,6.37,2.89,20.7,17.44,37.59,37.79,46.97,63.56,1.8,4.94,2.39,10.35,3.19,15.6.78,5.14,3.17,8.79,8.31,10.08,10.64,2.66,21.22,5.81,32.03,7.53,10.35,1.65,14.65-1.4,18.5-11.09,4.33-10.9,7.19-22.2,7.52-33.99.24-8.8-1.63-17.17-5.44-25.15-1.47-3.07-4.13-6.16-1.09-11.38,2.53,2.25,4.98,3.77,6.55,5.94,12.36,16.97,18.03,35.35,12.21,56.41-2.09,7.57-2.99,15.47-4.63,24.31,3.01.56,5.83,1.63,8.61,1.52,23.93-.95,47.86-2.11,71.79-3.22,16.89-.79,26.66-9.77,31.26-25.85,4.76-16.65,7.01-33.2,2.65-50.24-.68-2.67-.72-5.51-1.15-9.03,6.09,1.01,7.54,4.99,9.16,8.37,7.61,15.86,9.37,32.46,5.64,49.65-.66,3.04-1.15,6.11-1.94,10.33,17.98-10.05,25.24-28.19,18.18-46-3.62-9.14-8.97-17.97-15.14-25.65-17.93-22.29-41.13-36.71-69.33-42.37-19.92-3.99-40.03-7.1-59.91-11.29-11.04-2.33-21.87-5.81-32.64-9.27-6.28-2.02-11.89-2.36-18.35.03-21.91,8.09-41.94,4.12-59.51-11.31-4.49-3.95-8.71-8.26-12.66-12.75-2.23-2.54-3.65-5.78-5.44-8.7.54-.55,1.09-1.1,1.63-1.64,3.72,1.93,7.48,3.79,11.15,5.8,8.76,4.79,17.32,9.97,26.28,14.36,4.71,2.31,10,3.66,15.17,4.76,2.78.59,6.09.34,8.78-.6,5.89-2.06,6.47-6.21,1.74-10.48-7.41-6.69-15.43-12.8-22.2-20.07-4.89-5.24-8.47-11.81-12.04-18.12-1.48-2.61-1.41-6.09-2.24-10.07,6.76,0,9.4,4.09,12.63,7.07,8.07,7.43,15.89,15.15,24.22,22.28,3.32,2.85,7.71,4.45,11.47,6.54,3.71-4.14,1.98-7.33.95-10.34-5.02-14.56-11.24-28.49-21.09-40.58-2.63-3.22-4.55-7.01-6.8-10.54.38-.67.76-1.35,1.14-2.02,2.99.41,6.31.14,8.91,1.38,4.15,1.98,8.3,4.45,11.61,7.6,14,13.35,25.27,28.36,27.61,48.45.38,3.29,1.4,6.51,2.15,9.75,1.41,6.08,5.09,10.01,11.18,11.5,15.85,3.88,31.63,8.1,47.6,11.39,10.82,2.23,13.34-.39,11.88-11.5-2.05-15.55-4.82-30.94-13.35-44.66-2.15-3.47-3.05-7.71-4.49-11.5,5.13-3.54,8.16-.61,10.73,1.55,18.44,15.53,27.97,35.21,27.03,59.58-.03.66-.2,1.32-.26,1.98-1.01,11.11-.33,12.06,10.7,15.35,5.1,1.52,10.29,2.84,15.24,4.76,19.31,7.47,35.69,19.19,49.35,34.86,8.25-3.29,12.98,4.96,20.61,6.06,7.44-10.3,11.05-21.4,7.17-34.39-1.85-6.21-4.67-12.42-2.83-20.31,6.98,2,10,7.03,13.05,11.99,8.73,14.22,21.4,24.36,34.88,33.63,1.34.92,3,1.49,4.6,1.85.83.19,1.85-.44,3.98-1.04-4.34-22.7-16.59-41.4-30.22-59.46.49-.68.97-1.36,1.46-2.04,2.69.23,5.85-.35,7.98.86,5.43,3.1,11.09,6.33,15.42,10.72,12.85,13.04,22.57,27.98,24.87,46.78.4,3.28,1.49,6.49,2.35,9.7,1.43,5.3,4.91,8.6,10.16,9.99,14.49,3.83,28.89,8.08,43.52,11.29,16.74,3.68,18.59,1.54,16.09-15.86-2-13.94-5.3-27.41-12.81-39.64-2.14-3.49-2.96-7.78-5.04-13.5,3.98.74,6.54.46,7.91,1.6,5.58,4.66,11.62,9.13,16,14.81,10.98,14.25,15.56,30.71,14.2,48.75-.85,11.2-.69,10.97,10.17,14.57,8.83,2.92,17.76,5.85,26.07,9.94,16.91,8.33,31.64,19.38,42.5,35.36,8.75,12.88,14.19,12.28,20.92-1.55,4.94-10.17,6.76-20.76,3.17-31.98-1.97-6.17-4.59-12.46-2.24-21.17,3.58,2.9,6.82,4.56,8.69,7.19,13.18,18.56,17.06,39.43,2.29,61.36-3.35,4.97-6.87,9.83-10.4,14.68-2.84,3.89-3.58,8.14-.93,12.12,4.43,6.63,9.22,13.03,14.17,19.28,2.51,3.18,5.91,4.14,9.7,1.58,11.31-7.63,24.03-8.03,36.59-5.45,10.01,2.05,20.04,5.2,29.27,9.54,14.69,6.89,30.16,7.82,45.8,8.62,7.98.41,16.02.06,23.95.88,10.19,1.05,11.97,4.39,7.43,13.67-2.06,4.21-.57,6.66,1.94,9.73,5.82,7.12,5.02,10.49-3.3,14.21-3.62,1.62-7.49,3.04-11.39,3.62-11.11,1.66-19.75,7.49-27.65,14.98-19.85,18.82-21.41,19.75-46.31,28.99,1.95,3.13,3.49,6.27,5.64,8.92,10.74,13.18,21.42,26.4,32.58,39.22,4.33,4.97,9.58,9.27,14.89,13.23,14.16,10.54,28.47,20.88,42.97,30.95,3.14,2.18,7.17,3.58,10.98,4.21,88.38,14.51,176.98,16.02,265.74,3.76,3.85-.53,7.73-1.92,11.23-3.67,18.26-9.14,37.21-14.38,57.87-11.73,2.89.37,6,.04,8.86-.62,88.47-20.38,171.31-54.34,248.03-103.02,1.4-.89,3.05-1.39,4.98-2.24-2.09-6.66-3.93-12.26-5.6-17.91-1.6-5.4-3.04-10.86-4.78-17.13-4.24-.32-8.47-1.02-12.67-.9-28.17.83-49.85-12.22-68.35-31.92-2.3-2.45-3.59-5.83-6.51-10.75,4.54.84,6.81.78,8.6,1.69,6.82,3.47,13.45,7.3,20.21,10.9,4.99,2.66,9.92,5.49,15.12,7.66,2.79,1.16,6.09,1.11,10.16,1.76-2.64-14.23-11.79-21.86-20.91-29.09,1.11-5.96,2.09-11.24,3.31-17.78-4.1,1.13-6.59,1.71-9.02,2.49-33.37,10.69-67.52,11.9-101.83,7.01-24.7-3.52-49.2-8.57-73.69-13.43-15.4-3.05-30.71-5.51-46.53-5.23-27.49.49-49.35-11.92-67.49-31.65-2.26-2.46-3.47-5.9-6.23-10.77,4.45.83,6.76.74,8.53,1.67,8.82,4.67,17.43,9.75,26.27,14.39,5.48,2.88,10.93,6.47,19.24,4.38-1.92-4.15-3.43-7.94-5.38-11.49-3.67-6.71-7.97-13.1-11.28-19.98-2.27-4.7-3.9-10.02,1.3-16.16,2.64,3.23,5.25,5.92,7.27,9,6.03,9.19,11.47,18.78,17.84,27.72,3.42,4.79,7.84,9.15,12.59,12.64,5.3,3.89,10.8,1.51,11.97-4.99.74-4.12.35-8.65-.48-12.81-2.85-14.22-9.12-27.08-16.42-39.5-4.69-7.98-9.19-16.06-12.45-25.64,1.84.7,4.02.98,5.45,2.17,21.07,17.51,38.37,37.95,48.06,63.97,1.83,4.91,2.41,10.34,3.17,15.59.73,5.09,2.9,9.19,7.88,10.53,10.58,2.85,21.2,6.02,32.01,7.44,11.04,1.45,15.6-1.47,18.96-11.91,3.44-10.69,5.88-21.84,7.46-32.97,1.23-8.64-1.22-17.16-5.1-25.15-1.49-3.07-3.98-6.2-1.43-11.61,2.67,2.39,5.12,3.9,6.66,6.06,12.35,17.35,18.28,36.05,11.95,57.4-2.14,7.23-3.5,14.7-5.47,23.12,4.21.78,7.04,1.83,9.83,1.74,21.96-.7,43.91-1.56,65.86-2.53,3.97-.18,7.92-1.04,11.87-1.68,11.55-1.9,19.13-8.4,23.28-19.41,6.87-18.23,9.11-36.76,4.81-55.92-.56-2.47-.73-5.03-1.16-8.04,5.5-.6,6.89,3.28,8.31,6.24,7.57,15.76,10.35,32.23,6.45,49.53-.76,3.36-1.28,6.77-2.1,11.21,13.93-6.45,21.84-20.63,20.74-34.72-.92-11.78-6.27-21.73-13.15-30.85-20.59-27.25-47.72-43.98-81.44-49.95-18.02-3.19-36.09-6.23-53.99-9.98-11.06-2.32-21.94-5.58-32.74-8.97-5.37-1.69-10.13-1.88-15.47.16-22.67,8.69-43.15,4.62-61.2-11.51-4.46-3.99-8.72-8.24-12.72-12.69-2.06-2.29-3.33-5.29-4.95-7.97.57-.65,1.14-1.29,1.7-1.94,3.93,2.02,7.87,4.03,11.79,6.07,10.92,5.68,21.61,11.85,32.84,16.82,4.59,2.03,10.33,1.99,15.53,1.87,2.07-.05,5.23-2.53,5.79-4.5.51-1.81-1.28-4.98-2.97-6.58-7-6.64-14.81-12.48-21.41-19.48-4.94-5.23-8.77-11.61-12.5-17.84-1.55-2.59-1.54-6.12-2.31-9.56,6.38-1.7,8.83,2.51,11.8,5.23,7.6,6.97,14.81,14.38,22.6,21.11,3.92,3.39,8.78,5.68,12.84,8.24,4.84-3.25,3.03-6.57,2.06-9.59-4.61-14.37-10.74-27.96-20.19-39.92-2.97-3.76-6.87-7.23-6.76-13.21,5.65-1.92,10.14.27,14.07,3.22,16.16,12.11,28.3,27.14,33,47.29,1.28,5.51,2.33,11.08,3.75,16.56,1.44,5.58,4.92,9.27,10.69,10.74,15.49,3.93,30.96,7.97,46.45,11.9,1.92.49,3.96.74,5.94.73,5.49-.01,7.12-1.51,7.42-7,.14-2.64-.02-5.34-.4-7.96-2.19-14.9-5.34-29.46-13.36-42.6-2.1-3.45-2.78-7.76-4.27-12.12,7.09-1.17,10.91,2.22,14.49,5.6,16.22,15.28,23.77,34.18,23.03,56.42-.04,1.33-.3,2.65-.38,3.98-.5,8.78.72,10.13,8.95,12.89,9.76,3.27,19.64,6.41,28.93,10.74,14.66,6.83,26.93,17.11,36.1,27.83,5.12,1.27,8.59,1.76,11.75,3.03,3.3,1.33,6.3,3.43,10.01,5.51,7.25-11.33,11.72-22.21,7.79-35.32-1.84-6.15-4.85-12.38-2.72-19.91,7.21,1.69,9.78,7.25,12.92,12.13,9.18,14.28,22.06,24.65,35.98,33.87,1.45.96,3.65.77,7.18,1.43-.78-4.22-.96-7.41-1.97-10.31-5.07-14.54-11.23-28.49-21.27-40.48-2.61-3.11-4.33-6.97-6.91-11.24,7.24-2.51,12.03.03,16.11,3.19,15.91,12.36,27.98,27.49,32.51,47.68,1.24,5.52,2.3,11.09,3.62,16.59,1.09,4.54,3.87,7.81,8.46,9.01,17.06,4.47,34.07,9.23,51.28,13.05,8.93,1.98,11.65-.8,10.73-10.25-1.52-15.65-4.69-30.96-12.7-44.83-2.48-4.29-4.99-8.6-3.81-15.53,3.98,2.03,7.76,3.18,10.55,5.52,17.72,14.86,26.05,34.09,25.61,57.16-.04,1.99-.54,3.97-.62,5.96-.28,6.73,1.11,8.76,7.7,10.91,5.69,1.86,11.57,3.19,17.15,5.33,21.95,8.38,40.58,21.16,54.25,40.76,8.96,12.86,15.14,12.21,21.53-2.24,4.52-10.22,6.49-20.86,2.57-32.05-2.02-5.77-4.51-11.79-1.92-20.07,3.74,3.21,7.11,5.22,9.31,8.11,13.33,17.5,14.26,39.32,2.62,58-3.34,5.37-7.03,10.53-10.7,15.68-3.75,5.25-3.97,10.5-.28,15.75,3.83,5.45,7.69,10.89,11.84,16.09,3.06,3.85,6.94,5.07,11.35,1.82,8.63-6.37,18.63-6.9,28.67-6.08,12.36,1.01,24.25,4.03,35.3,10.05,12.02,6.55,25.37,7.86,38.69,8.76,8.29.56,16.64.27,24.97.49,3.31.09,6.71.16,9.91.92,7.42,1.77,9.61,5.94,5.59,12.31-3,4.75-1.93,7.52,1.28,11.32,5.51,6.54,4.61,10.16-3.18,13.65-4.22,1.89-8.77,3.3-13.31,4.15-9.2,1.73-17.08,5.95-23.46,12.5-13.7,14.04-28.66,25.93-49.74,30.51,3.14,4.52,5.52,7.93,7.9,11.35,20.97,30.16,49.83,51.42,79.7,71.79,12.65,8.63,25.51,14.17,40.9,16.41,80.97,11.77,161.94,12.31,243.03,2.04,4.47-.57,8.98-2.27,13.06-4.29,18.89-9.33,38.3-15.25,59.74-11.39,3.81.69,8.04.48,11.83-.38,86.54-19.67,167.63-52.71,243.12-99.42,1.94-1.2,3.71-2.7,5.92-4.33-3.74-12.2-7.41-24.2-11.34-37-4.93-.37-9.84-1.01-14.77-1.08-27.14-.37-48.56-12.5-66.26-32.16-2.07-2.29-3.19-5.44-5.06-8.75,5.04-2.32,8.18-.24,11.19,1.44,7.27,4.06,14.34,8.46,21.62,12.49,5.79,3.2,11.54,6.8,19.91,5.63-2-13.35-11.5-20.93-20.58-28.16,1.09-5.87,2.07-11.12,3.29-17.7-4.12,1.14-6.58,1.75-8.99,2.49-29.42,9.02-59.46,10.93-89.97,8.22-31.29-2.78-61.85-9.6-92.55-15.84-12.32-2.51-25.06-4.13-37.61-4.1-27.94.07-50.26-11.18-68.8-31.15-2.51-2.7-4.05-6.3-6.05-9.49.53-.68,1.06-1.36,1.6-2.04,3.51,1.31,7.2,2.26,10.48,3.99,8.54,4.5,16.75,9.64,25.38,13.93,4.25,2.11,9.16,2.89,13.77,4.28.56-.64,1.13-1.27,1.69-1.91-1.36-3.14-2.49-6.41-4.14-9.4-3.7-6.71-7.97-13.11-11.4-19.95-2.63-5.25-5-10.96-.71-17.28,4.74.83,6.17,4.75,8.23,7.93,6.16,9.5,12.12,19.14,18.55,28.45,2.62,3.79,6.09,7.05,9.5,10.2,3.03,2.8,6.75,4.75,10.91,2.54,4.1-2.18,4.7-6.38,4.35-10.44-.38-4.29-.66-8.86-2.33-12.72-5.68-13.11-11.79-26.04-18.06-38.87-3.31-6.78-7.3-13.22-9.6-21.24,1.91.74,4.19,1.03,5.68,2.28,19.46,16.19,35.8,34.92,45.56,58.59,2.5,6.07,3.99,12.7,4.95,19.21.99,6.74,3.68,11.12,10.59,12.68,8.77,1.98,17.38,4.75,26.21,6.31,13.92,2.47,19.06-.47,23.71-13.52,7.13-20.04,9.87-40.15-.99-59.99-.88-1.61-1.07-3.6-1.49-5.09,3.68-3.3,5.6-.71,7.15,1.22,12.97,16.13,18.99,34.21,14.66,54.95-1.82,8.73-4.02,17.39-6.33,27.32,4.47.83,7.92,2.12,11.31,2,23.6-.85,47.2-1.87,70.79-3.08,15.85-.81,25.55-9.09,30.28-24.41,5.14-16.62,6.95-33.15,3.09-50.22-.74-3.28-.82-6.7-1.35-11.26,6.97,2.74,8.73,7.63,10.59,12.04,6.27,14.85,7.38,30.28,4.29,46.05-.6,3.07-1.15,6.16-1.88,10.11,13.45-6.06,21.55-19.85,20.75-33.34-.53-8.92-3.93-16.86-8.55-24.27-16.74-26.89-40.43-44.89-70.83-53.56-10.52-3-21.52-4.41-32.34-6.28-23.66-4.07-47.24-8.4-69.89-16.66-5.5-2.01-10.71-1.92-16.45.26-21.11,8.05-40.63,4.54-57.96-9.87-5.36-4.45-10.2-9.57-14.93-14.7-2.07-2.25-3.27-5.29-4.86-7.98.56-.58,1.11-1.16,1.67-1.74,3.71,1.89,7.46,3.69,11.11,5.69,9.05,4.95,17.91,10.25,27.13,14.86,4.4,2.2,9.37,3.42,14.2,4.56,2.5.59,5.49.67,7.85-.17,2.28-.81,5.16-2.82,5.68-4.84.46-1.82-1.45-4.86-3.15-6.49-4.31-4.14-9.41-7.48-13.62-11.72-5.84-5.89-11.54-12.01-16.55-18.6-3.53-4.65-5.98-10.21-5.19-17.22,6.04-.14,8.8,3.82,12.02,6.81,7.31,6.79,14.33,13.93,21.9,20.41,3.93,3.36,8.78,5.63,13.11,8.32,4.47-3.83,2.75-7.49,1.59-10.75-5.04-14.18-11.14-27.82-20.75-39.66-2.79-3.44-4.86-7.46-7.26-11.22.5-.7,1-1.41,1.5-2.11,3,.56,6.36.46,8.93,1.82,4.36,2.31,8.71,5.05,12.22,8.47,13.86,13.48,25.15,28.49,26.83,48.78.24,2.96,1.34,5.83,1.95,8.77,1.24,5.87,5.08,9.41,10.58,10.83,16.12,4.16,32.24,8.4,48.51,11.91,10.11,2.18,12.67-.46,11.61-11.03-1.53-15.36-5.05-30.21-12.76-43.83-2.41-4.26-5.29-8.49-3.96-14.05,5.26-1.89,8.44,1.57,11.53,4.29,17.91,15.76,26.27,35.67,24.91,59.49-.67,11.7-.89,11.75,10.53,15.07,17.46,5.08,33.69,12.64,47.84,24.17,5.9,4.81,11.31,10.22,17.25,15.64,7.29-3.12,12.06,4.7,19.89,6.49,7-9.05,10.6-19.17,8.44-30.98-.78-4.25-2.35-8.34-3.25-12.57-.67-3.13-.83-6.36-1.39-10.93,8.06,1.62,10.68,6.88,13.72,11.8,9.32,15.06,22.82,25.68,37.58,34.9.99.62,2.49.41,5.25.8-.29-3.43-.02-6.32-.83-8.85-4.61-14.35-10.55-28.04-20.26-39.85-3.06-3.72-5.55-7.9-9.68-13.87,5,0,7.81-.81,9.74.15,4.72,2.35,9.62,4.89,13.4,8.46,14.08,13.26,25.32,28.33,27.73,48.38.24,1.98.84,3.91,1.13,5.89,1.4,9.42,6.81,14.41,16.16,16.44,13.99,3.04,27.7,7.33,41.71,10.29,12.88,2.72,15.73-.18,13.74-13.29-2.3-15.18-5.43-30.15-13.55-43.62-1.94-3.22-2.64-7.19-3.93-10.88,5.72-2.98,8.58.67,11.42,2.94,15.66,12.54,24.08,29.05,25.74,48.96.38,4.61-.1,9.3-.28,13.96-.29,7.74.68,8.95,8.01,11.47,9.42,3.25,19.11,6.04,28.05,10.34,17,8.18,31.62,19.47,42.63,35.26,9.45,13.55,15.33,12.9,22.15-2.03,4.54-9.95,5.97-20.3,2.63-31.14-1.9-6.17-4.93-12.38-2.68-19.63,5.07.12,7.41,3.35,9.72,6.48,14,18.88,14.57,41.01,1.52,60.59-3.33,4.99-6.83,9.86-10.38,14.7-2.85,3.89-3.65,8.12-1.01,12.12,4.39,6.66,9.16,13.08,14.03,19.4,2.21,2.88,5.28,4,8.81,1.85,20.61-12.57,41.59-8.23,61.21,1.11,16.55,7.88,33.43,10.71,51.2,11.13,6.66.16,13.33-.04,19.98.34,14.84.86,16.89,4.52,9.8,18.67,1.73,2.19,3.9,4.62,5.71,7.3,2.84,4.21,2.52,7.67-1.9,10.12-4.59,2.54-9.69,4.69-14.82,5.6-10.68,1.91-19.43,7.03-26.72,14.63-12.93,13.49-27.61,24.04-47.59,28.93,2.41,3.77,3.97,6.92,6.18,9.53,16.55,19.61,32.45,39.83,50.02,58.49,35.9,38.13,49.02,83.67,47.02,134.79-.36,9.23-.17,18.47-.24,28.97,27.25-5.3,54.17-4.19,79.6-13.09,5.32-1.86,10.81-3.52,16.36-4.37,10.69-1.64,16.41,2.35,18.89,12.96,1.21,5.16,1.43,10.54,2.25,15.8,1.63,10.52,2.83,21.16,5.26,31.49,1.5,6.37,4.12,12.83,7.71,18.29,6.7,10.19,7.11,20.52,3.18,31.46-1.69,4.7-4.18,9.12-5.69,13.86-2.31,7.25-4.8,14.56-5.94,22.04-2.6,17.11-12.73,28.36-27.3,35.85-10.22,5.26-16.94,1.04-17.7-10.47-.34-5.25.3-10.64,1.13-15.87,1.53-9.62,7.09-15.51,17.02-16.9,2.3-.32,4.57-.94,6.8-1.6,5.09-1.5,7.81-4.98,7.81-10.29,0-3.32-.13-6.68-.7-9.94-1.13-6.47-.57-12.66,2.51-18.46,1.92-3.62,1.56-6.93-.11-10.48-8.09-17.17-16.59-34.18-20.73-52.9-.25-1.14-1.45-2.06-2.4-3.35-26.31,20.98-57.98,28.02-88.85,37.05-5.97,1.75-11.85,3.79-17.77,5.7l-.24,2.23c2.8,1.2,5.51,2.78,8.43,3.55,12.88,3.38,25.7,7.16,38.77,9.59,13.94,2.59,21.96,10.23,24.51,23.95.61,3.27,1.26,6.55,1.54,9.86,2.5,29.67,8.66,58.63,16.94,87.15,2.62,9.01,1.64,17.39-3.34,24.89-7.18,10.8-14.94,21.24-22.87,31.51-3.85,4.99-9.87,7.13-15.97,7.17-7.02.04-12.99,2.29-18.77,5.84-5.89,3.62-12.23,5.28-19.12,3.64-7.21-1.72-10.35-5.82-9.13-13.05,1.85-10.99,7.59-19.77,16.66-26.31,4.62-3.33,9.64-2.88,14.23-.47,15.42,8.06,21.84-.66,30.21-10.6,1.56-1.86,1.56-5.66,1.17-8.41-.86-6.13-.85-11.8,2.77-17.25,2.83-4.25,2.45-8.76-.32-13.16-10.48-16.67-15.42-35.29-19.01-54.38-.31-1.64-.6-3.27-.88-4.91-.7-4.08-2.76-6.43-7.21-6.82-25.73-2.28-50.2-10.28-75-16.75-4.87-1.27-9.16-.81-13.4,1.71-5.44,3.24-10.85,6.54-16.4,9.58-31.14,17.08-64.79,25.94-99.77,30.46-2.97.38-5.95.82-8.94.97-4.07.2-6.35,2.27-8.56,5.7-6.11,9.52-12.82,18.65-19.24,27.96-4.34,6.29-10.73,9.33-17.91,9.39-7.1.07-12.93,2.46-18.6,6.18-5.84,3.83-12.25,5.09-19.11,3.67-7.02-1.45-9.9-4.99-9.1-11.92,1.29-11.18,6.89-19.95,15.66-26.87,5.58-4.4,11.29-2.64,17.06-.67,13.2,4.49,17.69,2.85,25.52-9.78-1.53-.12-2.79-.43-4-.28-33.02,4.37-65.02-1.39-96.78-9.6-8.38-2.17-16.86-3.97-25.21-6.27-6.29-1.73-10.61-.37-14.18,5.52-3.25,5.36-7.53,10.18-11.76,14.86-12,13.27-27.14,21.31-44.3,25.76-5.8,1.51-11.6,3.09-17.48,4.21-29.05,5.51-51.13,37.68-52.32,62.56-.33,6.97-1.32,13.93-2.42,20.83-2.33,14.66-9.91,26.14-22.48,33.86-5.02,3.08-7.75,6.84-8.86,12.42-.85,4.24-1.97,8.48-3.55,12.49-4.84,12.37-13.79,20.34-26.86,22.97-11.47,2.31-16.16-1.7-14.71-13.12.96-7.52,3.59-14.84,5.61-22.22,1.46-5.34,5.31-6.94,10.6-7.07,14.82-.36,16.22-1.77,16.65-16.58.39-13.18,5.73-23.56,15.97-31.9,3.14-2.56,5.81-6.46,7.19-10.3,4.33-12.08,4.76-24.76,4.27-37.49-.22-5.65-.48-11.32-.21-16.96.33-7.18,2.39-13.8,8.63-18.64-18.36-3.37-38.93,8.13-46.65,26.58-2.78,6.64-3.81,14.05-5.25,21.18-.85,4.22-.99,8.6-1.38,12.91-1.53,16.77-9.11,29.79-23.96,38.07-3.97,2.21-5.08,5.6-6.42,9.5-2.67,7.82-5.26,15.85-9.29,22.99-5.37,9.5-14.3,14.83-25.31,15.74-8.52.71-12.06-2.42-11.56-10.91.41-6.92,1.76-13.89,3.56-20.61,2.2-8.24,5.05-10.07,13.51-10.72,12.45-.94,13.84-2.22,15.46-14.53.43-3.3.49-6.66,1-9.94,1.48-9.62,5.45-18.07,13.98-23.19,7.53-4.52,11.64-11.13,12.94-19.23,1.62-10.15,2.18-20.47,3.11-30.72.18-1.97-.06-3.99-.16-5.98-.79-15.82,4.64-26.87,21.31-31.42,5.67-1.55,11.03-6.21,15.28-10.64,12.83-13.38,20.41-39.2,18.08-57.84-19.21-2.42-38.38-4.18-57.31-7.43-15.73-2.7-31.23-6.84-46.68-10.95-8.16-2.17-13.32-.73-18.22,6.88-13.82,21.48-33.83,34.48-58.89,39.66-3.59.74-7.1,1.83-10.7,2.5-34.1,6.29-52.83,37.69-54.79,64.55-.53,7.29-1.39,14.61-2.78,21.78-2.6,13.45-9.88,24.09-21.66,30.99-5.4,3.16-8.43,7-9.52,13.02-.77,4.24-2.02,8.46-3.61,12.47-5.18,13.09-14.6,21.38-28.71,23.35-9.68,1.35-13.65-1.9-12.6-11.47.97-8.82,3.75-17.47,6.19-26.07,1.36-4.78,5.89-4.76,9.93-4.95,14.78-.73,16.49-2.14,16.89-16.62.37-13.59,5.7-24.21,16.35-32.7,3.12-2.49,6.01-6.74,6.66-10.57,1.99-11.75,3.08-23.67,4.04-35.56.48-5.94-.48-12-.04-17.95.7-9.48,1.79-11.32,9.05-19.68-3.21,0-5.61-.26-7.94.02-24.06,2.85-40.89,19.39-44.07,43.42-.88,6.6-1.17,13.28-1.92,19.9-1.8,15.93-9.28,28.34-23.39,36.3-3.53,1.99-5.11,4.71-6.28,8.42-2.3,7.28-4.55,14.69-8,21.45-5.29,10.4-14.25,16.64-25.88,18.39-9.44,1.41-13.46-1.95-12.82-11.36.47-6.91,2-13.82,3.69-20.57,1.74-6.99,6.65-10.19,13.97-10.43,11.67-.38,13.25-2.05,14.83-13.9.44-3.3.51-6.65,1.03-9.94,1.56-9.95,5.58-18.63,14.45-24.03,7.13-4.34,11.07-10.82,12.4-18.51,1.75-10.13,2.42-20.44,3.42-30.69.22-2.3-.04-4.66-.22-6.98-1.22-15.32,4.78-25.45,20.04-30.18,13.34-4.14,20.99-14.83,26.87-26.75,6.73-13.65,10.39-36.19,8.92-53.44-2.89-.74-6.02-1.68-9.22-2.35-86.75-18.26-166.91-52.32-241.15-100.58-8.81-5.73-17.71-8.36-28.96-8.24,11.37,19.92,19.51,40.71,21.56,63.04,2.03,22.08,2.09,44.34,3.05,67.25,2.62-.24,5.17-.42,7.7-.71,11.25-1.3,22.57-2.18,33.71-4.08,13.09-2.23,26.04-5.28,39.02-8.12,4.87-1.07,9.59-3,14.5-3.71,10.59-1.55,16.64,2.62,19.07,12.95,1.07,4.52,1.31,9.22,1.98,13.84,1.39,9.55,2.12,19.27,4.44,28.59,1.98,7.97,4.81,16.09,9.04,23.07,6.48,10.71,7.48,21.34,2.72,32.42-5.8,13.49-10.49,27.06-13.36,41.65-2.83,14.35-13.34,24.42-27.14,29.83-9.2,3.61-15.02-.16-16.11-10.02-.54-4.89,0-9.97.59-14.89,1.32-10.84,6.89-17.8,18.38-18.98,2.29-.24,4.55-.97,6.78-1.65,4.7-1.43,7.31-4.68,7.22-9.58-.08-4.31-1.03-8.62-.93-12.92.11-4.56-.09-9.65,1.83-13.52,2.93-5.88,1.97-10.48-.62-15.97-5.54-11.74-10.66-23.7-15.5-35.75-2.19-5.45-3.33-11.32-4.85-16.69-1.59-.14-2.5-.51-2.84-.21-14.94,13.04-33.21,19.47-51.55,25.53-13.59,4.49-27.5,8-41.2,12.15-4.28,1.3-8.37,3.24-14.56,5.67,12.21,6.12,23.15,8.4,33.9,11.17,5.48,1.41,11.08,2.4,16.67,3.24,11.99,1.8,19.09,8.81,21.9,20.32,1.1,4.51,1.9,9.15,2.31,13.77,2.6,28.98,8.65,57.31,16.7,85.19,2.93,10.13,1.94,19.25-3.74,27.65-6.9,10.2-14.12,20.23-22.01,29.66-2.74,3.27-7.7,5.85-11.96,6.44-9.41,1.29-17.79,4.32-26.2,8.68-4.56,2.37-11,2.24-16.39,1.6-6.51-.77-9.07-4.9-8.35-11.41,1.24-11.18,6.81-20.06,15.55-26.94,3.92-3.09,8.34-4.06,13.1-1.78.6.29,1.25.47,1.88.68,15.13,5.05,18.01,4.07,28.59-7.84,3.29-3.7,4.13-7.32,3.07-11.86-1.35-5.75-.71-11.18,2.67-16.26,3.13-4.69,2.43-9.37-.51-14.04-10.13-16.07-15.04-34-18.38-52.47-.41-2.29-.96-4.56-1.39-6.85-.72-3.83-2.95-5.52-6.87-5.87-24.74-2.19-48.32-9.55-71.97-16.51-6.11-1.8-11.52-2.1-17.12,1.52-36.34,23.5-76.82,34.9-119.32,39.83-7.72.9-12.43,3.62-16.32,10.43-4.92,8.64-11.33,16.43-17.17,24.54-3.96,5.5-9.65,8.55-16.15,8.82-8.31.35-15.49,3.04-22.32,7.51-5.03,3.29-10.77,3.34-16.44,2.27-7.49-1.41-10.33-5.22-9.24-12.7,1.56-10.76,7.19-19.22,15.66-25.82,4.26-3.32,8.94-4.26,14.02-1.68,1.47.75,3.1,1.21,4.69,1.72,11.55,3.66,16,1.86,23.31-9.99-2.52-.2-4.69-.72-6.77-.5-28.91,3.1-57.09-1.42-85.06-8.04-11.34-2.68-22.61-5.69-33.92-8.54-5.82-1.47-10.14-.04-13.49,5.45-2.93,4.8-6.8,9.05-10.48,13.35-11.85,13.86-26.71,22.9-44.39,27.32-6.14,1.53-12.34,2.82-18.47,4.38-29.15,7.41-49.81,31.91-52.6,62.03-.7,7.62-1.64,15.24-2.97,22.78-2.45,13.88-9.8,24.84-21.85,31.99-5.76,3.41-8.63,7.75-9.83,14.02-.81,4.23-2.16,8.4-3.64,12.46-4.58,12.56-18.02,22.5-30.3,22.65-7.97.1-11.66-2.76-10.75-10.65,1.06-9.17,3.59-18.2,5.96-27.17,1.24-4.69,5.48-5.03,9.73-5.14,15.59-.41,16.81-1.49,17.45-17.03.54-13.09,5.1-23.74,16-31.68,2.96-2.16,5.73-6.05,6.42-9.58,2.16-11.04,3.57-22.25,4.67-33.46.52-5.25-.51-10.64-.53-15.96-.03-8.84,1.12-17.36,9.29-24.67-3.35-.21-5.49-.67-7.55-.42-25.95,3.18-42.11,19.92-44.59,45.97-.67,6.96-1.2,13.96-2.31,20.86-2.26,13.92-9.37,24.97-21.56,32.07-4.88,2.84-6.72,6.53-8.24,11.59-2.19,7.28-4.87,14.6-8.61,21.17-5.82,10.21-15.17,15.69-27.11,16.08-7.05.23-10.63-2.25-10.05-9.19.74-8.83,2.96-17.62,5.4-26.18,1.57-5.52,6.58-6.76,12.08-6.75,10.95.02,13.02-1.93,14.77-12.96.52-3.29.87-6.61,1.2-9.93,1.12-11.3,5.97-20.37,15.9-26.3,6.21-3.71,9.6-9.56,10.61-16.23,1.79-11.8,2.7-23.74,3.79-35.64.39-4.3.02-8.66.38-12.96.78-9.18,5.26-15.79,14.39-18.35,18.62-5.22,28.54-18.82,34.38-35.98,3.96-11.63,5.9-23.72,5.61-36.62-32.81.23-63.76-5.88-94.04-15.15-14.24-4.36-24.26-3.65-33.32,10.76-11.18,17.78-29.33,27.68-49.83,32.65-5.5,1.33-10.99,2.74-16.53,3.92-30.5,6.5-50.34,35.82-52.97,60.99-.79,7.62-1.78,15.22-2.79,22.82-1.93,14.5-9.38,25.67-21.75,33.04-6.01,3.58-9.23,8.17-10.57,14.72-.8,3.91-1.86,7.8-3.16,11.57-4.58,13.24-17.61,23.02-30.81,23.34-7.55.18-11.14-2.3-10.34-9.87,1-9.48,3.69-18.82,6.13-28.09,1.09-4.13,4.89-4.79,8.86-4.91,16.54-.5,17.41-1.34,17.66-17.48.19-12.55,5.38-22.72,15.16-30.13,4.91-3.72,8.06-8.01,8.9-13.79,1.48-10.17,2.75-20.39,3.56-30.63.44-5.61-.42-11.31-.39-16.97.06-8.84,1.55-17.24,9.34-23.35-22.46-3.66-44.94,12.18-50.81,35.54-1.13,4.49-1.5,9.19-2.06,13.81-.64,5.29-1.02,10.61-1.67,15.89-1.79,14.56-9.29,25.55-21.72,32.98-4.06,2.43-6.25,5.34-7.58,9.8-2.08,7-4.19,14.16-7.59,20.57-6,11.33-15.82,17.84-28.83,18.73-6.61.45-9.31-1.71-9.9-8.39-.84-9.46,1.11-18.59,4.94-27.25,1.74-3.94,4.97-6.2,9.32-6.6,1.99-.18,4-.05,5.99-.2,7.74-.58,9.71-2.16,11.3-10.03.92-4.56,1.22-9.24,1.79-13.87,1.24-10.12,5.49-18.67,14.31-24.04,7.52-4.58,11.33-11.47,12.64-19.47,1.77-10.79,2.45-21.78,3.38-32.7.34-3.97-.12-7.99.09-11.98.51-9.55,4.83-16.68,14.19-19.7,22.22-7.16,32.8-24.09,37.64-45.33,2.57-11.28,3.5-22.94,5.3-35.35-4.62-1.19-8.03-2.22-11.5-2.95-88.36-18.63-170.31-52.72-245.81-102.21-6.63-4.34-13.5-6.88-21.95-7.74.18,1.5,0,2.8.49,3.73,18.09,33.58,24.06,69.57,21.6,107.3-.38,5.91.04,11.87.1,18.61,2.98-.16,5.17-.18,7.33-.42,8.6-.95,17.18-2.16,25.8-2.91,16.99-1.46,33.67-4.26,49.84-9.93,4.67-1.64,9.63-2.78,14.56-3.34,8.79-.99,14,2.54,16.42,11.07,1.36,4.77,1.9,9.79,2.63,14.73,1.25,8.57,2.13,17.19,3.58,25.72,1.74,10.24,4.62,20.16,10.47,28.93,6.31,9.45,6.62,19.54,2.44,29.6-5.89,14.17-10.85,28.42-13.95,43.61-2.8,13.68-12.99,23.12-25.86,28.61-9.5,4.05-15.89.15-16.88-10.05-.51-5.23.03-10.66.82-15.89,1.5-9.97,7.08-16.27,17.5-17.63,2.3-.3,4.58-.88,6.82-1.49,5.18-1.42,7.81-4.9,7.68-10.26-.07-2.99-.26-6-.78-8.94-1.19-6.72-1.41-13.22,2.4-19.34,2.89-4.63.85-8.9-1.18-13.23-4.23-9.05-8.53-18.08-12.33-27.32-2.27-5.51-3.62-11.4-5.41-17.12-.96-3.07-1.95-6.13-3.86-12.12-2.72,3.07-3.93,5.24-5.78,6.38-7.9,4.87-15.51,10.73-24.09,13.86-21.25,7.74-42.99,14.15-64.52,21.15-4.31,1.4-8.55,3.02-12.82,5.62,7.93,4.92,16.62,6.85,25.04,9.23,7.68,2.17,15.59,3.61,23.47,4.94,12.28,2.08,19.61,9.23,22.51,21.1.95,3.87,1.72,7.83,2.05,11.8,2.42,29.01,8.5,57.33,16.72,85.17,3.31,11.2,1.9,21.14-4.48,30.4-6.61,9.59-13.67,18.88-20.77,28.12-3.89,5.06-9.67,7.48-15.76,7.55-7.72.09-14.23,2.7-20.56,6.65-5.61,3.49-11.77,4.56-18.25,2.98-6.91-1.68-9.77-5.32-8.88-12.2,1.45-11.17,7.27-19.87,16.14-26.58,4.43-3.35,9.26-2.89,14.26-1.18,14.67,5,18.53,3.8,28.57-7.77,2.84-3.27,4.35-6.54,3.23-10.89-1.57-6.12-.44-11.87,2.7-17.29,2.81-4.85,2.23-9.49-.71-14.1-9.88-15.47-14.1-32.97-18.01-50.57-.65-2.92-1.19-5.87-1.81-8.8-.79-3.75-3.02-5.65-6.95-5.84-25.27-1.25-48.84-10.13-72.96-16.49-5.96-1.57-10.89-1.37-16.09,1.94-36.74,23.39-77.45,35.11-120.3,40.14-6.48.76-10.61,2.88-14.06,8.82-5.34,9.17-12.07,17.54-18.36,26.14-4.26,5.82-10.62,8.31-17.39,8.52-7.02.21-12.97,2.42-18.62,6.22-6.15,4.15-12.85,5.27-20.04,3.38-6.03-1.59-8.82-4.64-8.29-10.62,1.14-12.75,7.6-22.54,18.18-29.54,4.39-2.91,9-1.25,13.45.35,14.25,5.11,17.17,4.22,27.51-9.02-2.6-.11-4.71-.6-6.66-.22-14.97,2.88-29.9,1.29-44.79-.44-17.88-2.08-35.53-5.26-52.9-10.32-10.13-2.95-20.8-4.06-31.69-6.09-2.68,3.64-5.43,7.38-8.19,11.11-13.82,18.65-31.61,31.26-54.59,36.07-5.54,1.16-11.06,2.47-16.49,4.04-29,8.4-44.87,28.4-50.12,57.48-1.3,7.2-1.82,14.55-2.76,21.82-2.13,16.51-9.74,29.66-24.3,38.16-4.42,2.58-6.8,5.96-7.89,10.83-1.09,4.87-2.47,9.71-4.23,14.37-4.45,11.78-13.05,19.24-25.21,22.09-12.14,2.85-17.36-1.73-15.74-13.99.91-6.89,3.13-13.61,4.87-20.37,1.45-5.64,5.18-8.69,10.98-7.8,14.86,2.3,16.7-4.52,16.89-17.58.16-11.28,4.09-21.49,12.96-28.11,9.03-6.75,12.1-15.68,13.25-25.69,1.02-8.89.84-17.93,1.07-26.91.14-5.32-.17-10.66.1-15.97.36-7.24,3.22-13.43,9.64-18.21-27.01-2.59-49.6,16.14-52.59,42.77-.82,7.29-1.52,14.59-2.41,21.86-1.78,14.44-8.7,25.85-21.13,33.41-4.98,3.03-7.32,6.71-8.74,12.34-1.77,7.02-4.62,13.97-8.21,20.27-5.57,9.74-14.29,15.8-25.72,16.87-8.67.82-12.43-2.03-12-10.42.41-7.88,2.19-15.79,4.23-23.45,1.8-6.76,7.39-8.65,14.03-8.82,10.62-.27,12.54-2.15,14.02-12.54.61-4.29.8-8.64,1.53-12.9,1.58-9.26,5.71-17.29,13.85-22.21,7.22-4.36,11.1-10.73,12.34-18.46,1.74-10.81,2.52-21.77,3.59-32.68.22-2.3-.11-4.65-.19-6.98-.46-13.96,4.75-23.79,19.19-27.55,8.01-2.08,14.06-7.4,19.17-13.77,13.22-16.49,16.04-35.96,17.04-56.92-8.67-.6-16.53-1.1-24.38-1.69-19-1.43-37.64-4.74-55.98-10.03-9.27-2.67-18.83-4.31-28.21-6.6-5.51-1.35-9.52-.25-12.52,5.04-2.28,4.02-5.44,7.57-8.37,11.19-11.92,14.74-27.08,24.49-45.47,29.14-6.46,1.63-12.9,3.36-19.43,4.67-31.47,6.31-51.4,38.42-52.82,62.06-.46,7.62-1.81,15.21-3.01,22.77-2.3,14.4-10.04,25.33-22.47,32.62-4.77,2.79-7.35,6.28-8.51,11.49-1.08,4.87-2.3,9.79-4.19,14.38-5.19,12.59-14.35,20.81-28.12,22.67-9.99,1.34-13.96-2.42-12.85-12.44.8-7.23,2.63-14.41,4.65-21.43,2.13-7.41,3.66-8.2,11.45-8.55,14.71-.66,16.4-2.03,16.68-16.75.25-13.32,5.56-23.9,15.96-31.77,4.01-3.04,6.82-6.61,7.57-11.28,1.62-10.14,2.92-20.36,3.86-30.59.45-4.94-.22-9.98-.39-14.97-.36-10.11.24-19.93,9.44-27.38-25.3-2.36-46.15,13.57-51.25,38.6-1.39,6.83-1.85,13.87-2.39,20.83-1.35,17.51-8.83,31.25-24.36,40-3.63,2.04-4.67,5.1-5.82,8.72-2.3,7.27-4.55,14.71-8.11,21.38-5.28,9.9-14.03,15.98-25.26,17.76-10,1.58-14.07-1.84-13.34-11.78.48-6.6,2.01-13.17,3.6-19.62,1.71-6.95,6.32-10.33,13.76-10.61,11.96-.46,13.42-2.03,15.15-13.67.54-3.62.74-7.3,1.2-10.93,1.25-9.76,5.46-18.01,13.93-23.17,7.15-4.36,11.33-10.61,12.59-18.34,1.81-11.13,2.57-22.43,3.6-33.67.33-3.63,0-7.32.12-10.98.36-10.79,5.14-18.42,15.79-21.75,17.46-5.47,27.47-18.37,33.32-34.7,4.98-13.88,7.02-28.41,6.47-43.68-1.89-.72-3.61-1.67-5.45-2.03-93.03-18.31-178.81-54.28-258.12-105.99-4.12-2.68-8.07-5.78-14.76-4.33,10.76,19.75,18.9,40.26,20.92,62.25,1.97,21.44,1.76,43.09,2.53,65.34,2.28-.14,4.48-.18,6.66-.43,11.91-1.34,23.9-2.24,35.7-4.24,13.08-2.22,26-5.42,38.97-8.29,5.19-1.15,10.26-3.16,15.5-3.72,9.26-.99,14.57,2.9,16.89,11.89,1.16,4.49,1.55,9.19,2.25,13.79,1.56,10.2,2.45,20.56,4.86,30.55,1.85,7.66,4.67,15.44,8.77,22.12,6.55,10.68,7.09,21.24,2.85,32.48-1.64,4.36-4.1,8.43-5.51,12.84-2.53,7.88-5.19,15.81-6.64,23.92-3.04,17.05-13.39,28-28.33,34.91-8.7,4.02-14.24.63-15.87-8.79-1.52-8.72-.34-17.25,3.15-25.43,2.33-5.46,6.91-7.75,12.32-9.12,18.47-4.67,18.55-4.72,16.14-23.69-.69-5.44-.64-10.58,2.15-15.5,2.07-3.64,2.66-7.38.67-11.42-8.55-17.33-17.01-34.71-21.03-53.83-.18-.87-1.14-1.58-1.83-2.48-.97.11-2.3-.14-2.81.39-9.07,9.4-20.58,14.8-32.59,18.85-20.19,6.81-40.64,12.82-60.96,19.23-3.7,1.17-7.29,2.68-12.91,4.77,3.4,1.77,4.84,2.87,6.45,3.31,13.8,3.76,27.52,7.94,41.5,10.92,16.19,3.45,23.04,9.44,25.9,25.93,1.42,8.19,1.41,16.64,3.02,24.78,4.51,22.86,8.9,45.77,14.61,68.34,2.77,10.96,1.84,20.47-4.3,29.45-6.58,9.61-13.58,18.95-20.66,28.2-4.1,5.35-10.22,7.77-16.67,7.88-7.36.13-13.58,2.68-19.6,6.43-5.65,3.52-11.8,4.5-18.25,2.99-6.93-1.62-9.89-5.25-8.99-12.15,1.5-11.49,7.21-20.8,17.02-26.96,2.72-1.71,6.96-1.7,10.39-1.35,3.56.36,6.97,2.14,10.48,3.21,4.81,1.46,9.25.63,13.14-2.57,7.35-6.05,13.89-12.15,11.03-23.47-.93-3.66.99-8.45,2.67-12.26,2.21-5.03,2.51-9.4-.51-14.14-9.86-15.46-14.22-32.91-18.01-50.55-.56-2.6-.9-5.25-1.43-7.86-.89-4.35-2.96-6.68-8.01-7.1-24.4-2.03-47.69-9.28-71.03-16.07-6.59-1.92-12.2-1.85-18.02,1.89-37,23.75-78.19,35.02-121.36,40.01-5.57.64-8.8,2.73-11.74,7.46-5.8,9.31-12.41,18.12-18.81,27.06-4.42,6.18-10.94,8.9-18.16,8.95-6.68.05-12.38,2.1-17.69,5.73-5.86,4.01-12.32,4.91-19.11,3.81-7.51-1.22-10.61-5.07-9.47-12.48,1.7-11.06,7.32-20.06,16.53-26.3,2.7-1.83,6.81-1.84,10.32-2.09,1.87-.13,3.83,1,5.75,1.56,13.75,4.07,16.13,3.28,26.24-9.58-3.1-.12-5.48-.52-7.79-.25-28.91,3.4-57.1-1.04-85.07-7.8-11.33-2.74-22.65-5.56-33.94-8.5-6.24-1.63-10.45-.12-14.21,5.64-4.33,6.64-9.71,12.72-15.3,18.38-10.25,10.4-22.62,17.5-36.81,21.21-6.77,1.77-13.61,3.25-20.38,5.01-29.21,7.62-49.16,30.92-52.48,61.11-.76,6.96-1.62,13.9-2.57,20.84-2.06,15.11-9.6,26.99-22.35,35.08-5.57,3.53-8.25,7.95-9.98,14.06-1.98,6.96-4.35,14.11-8.14,20.2-5.53,8.9-14.3,13.84-24.99,14.46-8.42.49-12.4-2.88-11.41-11.06,1.04-8.53,3.51-16.9,5.66-25.26,1.26-4.86,4.87-6.46,9.85-6.57,15.87-.36,16.34-.84,17.4-16.9.85-12.98,5.38-23.77,16.31-31.64,2.74-1.97,4.86-5.43,6.19-8.64,4.42-10.65,5.02-22.01,4.95-33.38-.04-5.99-.33-11.98-.53-17.97-.29-8.67,1.64-16.55,9.18-23.63-3.11-.29-5.18-.81-7.18-.61-23.59,2.47-39.21,16.53-43.76,39.84-1.53,7.83-2.1,15.85-3.01,23.79-1.79,15.59-9.12,27.73-22.73,35.65-4.15,2.42-5.86,5.59-7.15,10.05-2.11,7.3-4.55,14.71-8.22,21.3-5.44,9.75-14.04,15.94-25.51,17.23-9.5,1.07-13.35-2-12.7-11.65.48-7.22,2.42-14.41,4.29-21.46,1.64-6.18,6.17-9.65,12.65-9.13,12.27.98,14.42-3.55,15.78-15.35.5-4.3.94-8.63,1.79-12.86,1.66-8.2,5.86-15.14,13.06-19.32,7.65-4.44,11.69-10.99,12.88-19.18,1.63-11.16,2.48-22.45,3.5-33.69.33-3.63.04-7.32.2-10.97.47-10.88,5.69-18.11,16.28-21.38,15.15-4.68,24.5-15.47,30.52-29.59,5.69-13.33,7.32-27.39,8.33-41.83-10.32-.77-19.53-1.42-28.73-2.14-22.05-1.71-43.36-7.06-64.5-13.2-1.6-.46-3.24-.81-4.82-1.34-11.84-4-20.59-2.93-28.25,9.53-11.42,18.57-29.7,29.2-50.83,34.61-7.42,1.9-14.86,3.72-22.3,5.55-27.17,6.7-46.16,37.57-47.65,57.61-.54,7.31-1.51,14.59-2.46,21.85-2.12,16.17-9.8,28.91-24.01,37.22-4.41,2.58-6.8,5.98-7.91,10.84-1.1,4.86-2.54,9.68-4.23,14.37-4.74,13.13-16.98,22.35-30.02,22.9-7.95.34-11.74-2.57-10.9-10.41.92-8.52,3.32-16.91,5.42-25.27,1.32-5.27,5.14-7.45,10.55-6.95,11.28,1.04,15.88,1.3,16.83-15.76.79-14.27,5.7-25.73,17.59-34.11,2.24-1.58,3.75-4.61,4.88-7.28,4.55-10.65,4.92-22.02,5-33.37.04-5.32-.27-10.65-.55-15.98-.49-9.57.92-18.51,8.51-25.67-18.75-3.12-39.32,8.63-46.83,27.06-2.47,6.05-3.47,12.77-4.61,19.27-1.09,6.22-1.33,12.59-2.21,18.86-1.97,14.05-8.92,25.06-21.17,32.25-4.7,2.76-7.05,6.14-8.4,11.45-1.79,7.03-4.34,14.09-7.9,20.38-6.1,10.79-15.7,17.1-28.39,17.72-6.71.33-9.37-1.78-9.86-8.44-.69-9.43,1.07-18.55,5.08-27.19,2.47-5.32,6.91-6.57,12.31-6.7,11.13-.27,13.27-2.24,14.85-12.98.49-3.29.71-6.63,1.02-9.95.97-10.59,5.57-19.29,14.53-25,6.71-4.27,10.68-10.21,12.09-17.57,1.82-9.44,2.82-19.05,3.82-28.62.41-3.94-.11-7.98-.18-11.98-.23-13.83,5.09-23.32,19.14-27.9,17.02-5.55,25.41-19.6,31.24-35.41,6.1-16.55,7.51-33.89,6.48-51.23-.78-13.22-3.5-26.33-5.38-39.67-3.28-.61-5.8-1.39-8.34-1.51-43.92-2.02-87.87-3.45-131.75-6.07-31.24-1.87-62.46-4.66-93.57-8.17-89.46-10.11-178.24-24.73-266.31-43.34-65.21-13.78-130.05-29.25-193.58-49.54-51.7-16.51-103.39-33.21-154.39-51.73-56.51-20.52-110.26-47.16-159.69-81.68-17.44-12.18-33.58-26.2-50.29-39.42-2.34-1.85-4.52-3.89-6.99-6.03-5.86,1.21-11.65,2.41-17.98,3.72,1.27,8.24,2.06,15.82,3.7,23.21,1.51,6.82-1.01,11.57-5.96,15.7-7.9,6.59-16.59,7.65-26.24,4.44-3.25-1.08-7.09-1.76-10.38-1.15-17.65,3.27-35.21,6.99-52.79,10.57-2.23.45-4.45.97-7.46,1.63,44.53,23.6,77.44,59.5,111.65,93.99,15.84,15.97,14.05,35.72,4.94,49.16-.74,1.09-1.4,2.24-2.27,3.65,15.89,35.77,15.03,73.77,14.29,111.76-.05,2.33.25,4.72-.16,6.99-.93,5.1,1.73,7.71,5.53,10.54,18.17,13.5,36.77,26.54,53.98,41.19,40.38,34.37,74.74,74.04,101.68,119.93,4.35,7.42,8.3,14.46,2.86,23.13-5.51,8.78-13.28,12.37-23.47,12.34-46.29-.12-92.58-.03-138.87.02-3.26,0-6.53.26-11.06.46,20.16,49.02,39.9,96.99,59.89,145.6,12.83.09,25.42.26,38.01.27,97.91.09,195.83.42,293.74.13,54.05-.16,104.06-15.01,148.73-45.66,57.82-39.67,88.85-95.39,94.6-164.88,4.38-52.96-9.83-101.31-42.1-143.44-53.31-69.6-151.94-86.97-226.25-40.82-65.79,40.86-84.41,129.35-40.19,192.46,33.71,48.12,101.21,60.4,150.53,24.12,31.7-23.32,41.89-66.4,24.88-102.22-1.29-2.71-2.96-5.25-4.05-8.02-1.63-4.15-.99-7.95,3.08-10.44,3.6-2.2,7.58-1.23,10.49,2.65,1.59,2.11,2.78,4.55,3.98,6.92,23.82,47.07,6.04,105.86-39.88,131.96-61.77,35.1-139.18,11.97-172.16-51.44-38.48-74-10.3-164.95,63.51-204.97,91.42-49.56,205-15.93,255.72,75.19,60.3,108.33,25.42,254.58-93.68,319.01-45.85,24.8-94.64,36.53-146.82,35.79-53.61-.76-107.23-.25-160.85-.3-97.24-.09-194.49-.2-291.73-.25-103.91-.05-207.81,0-311.72-.07-108.24-.07-216.48-.24-324.72-.32-66.6-.05-133.24,1.21-199.8-.4-73.15-1.78-139.32-24.6-191.33-77.9-56.15-57.55-76.44-127.31-62.82-206.72,4.33-25.23,13.38-48.76,25.86-71.02,1.3-2.32,2.56-4.74,4.31-6.7,2.64-2.97,6.09-4.23,9.84-2.06,3.6,2.09,4.9,5.44,3.61,9.41-.71,2.18-1.94,4.23-3.09,6.24-63.55,110.24-18.11,253.03,101.85,307.29,40.83,18.47,83.54,26.57,128.24,25.49,20.64-.5,41.3-.25,61.94-.01,4.39.05,6.74-1.4,8.34-5.32,18.84-45.91,37.75-91.79,56.61-137.69.22-.54-.05-1.28-.17-3.07-3.68-.15-7.54-.44-11.39-.44-26.64,0-53.28.19-79.92-.06-5.21-.05-10.87-.73-15.5-2.89-9.41-4.39-12.89-12.92-12.87-23.03.06-22.98.12-45.96.13-68.95.06-104.2.09-208.4.15-312.6.03-54.96.06-109.92.17-164.87.03-14.74,7.63-23.12,23.94-25.67Zm3531.6,138.13c-.97.14-2.05.05-2.9.44-30.01,13.81-61.67,18.1-94.37,16.47-1.82-.09-3.65.14-5.48.22,44.89,34.01,93.47,60.21,147.28,81.45-2.31-9.01-4.26-15.64-5.66-22.38-1.41-6.82-2.84-13.73-3.2-20.65-.35-6.63.67-13.34,1.12-20.58-21.72,12.86-44.16,2.56-54.26-14.99,1.99-2.64,3.91-5.76,6.39-8.34,3.66-3.8,7.73-7.2,11.62-10.77,8.52-2.52,17.06-4.99,25.56-7.58,10.33-3.15,12.34-9.99,5.37-18.02-10.49,8.24-20.98,16.49-31.47,24.73Zm2080.95,1c-2.48.74-5.08,1.21-7.41,2.27-15.59,7.13-31.93,11.42-48.89,13.65-21.28,2.81-42.53,1.53-63.8-.17-2.03-.16-4.09.19-7.87.39,11.03,12.61,20.69,24.03,30.75,35.09,29.24,32.12,42.1,70.36,42.91,113.22.05,2.83.34,5.66.61,9.92,35.99-19.96,67.21-44,97.2-69.1-3.31-12.08-6.7-23.23-9.37-34.54-2.66-11.28-1.98-22.74.67-34.54-23.29,8.81-34.9,6.99-50.38-7.34-5.82-5.38-6.2-7.27-.81-13.23,5.07-5.6,10.8-10.6,16.24-15.86,8.31-1.98,16.77-3.47,24.87-6.06,8.91-2.85,10.09-9.64,3.01-18.26-2.07,2.02-4.01,4.1-6.14,5.96-7.16,6.24-14.39,12.4-21.59,18.6ZM778.35,1018.96c-.08-49.7.54-97.78.07-146.44-119.46-.11-237.55-.22-355.13-.33-7.08,17.04-13.71,33.01-20.35,48.97-6.78,16.3-13.75,32.52-20.3,48.9-6.34,15.86-14.11,31.2-19.31,48.62,138.87.09,276.3.18,415.02.28Zm16.23.13c139.01.06,276.38.11,415.39.17-20.48-49.56-40.38-97.74-60.48-146.4-117.95-.09-235.97-.17-354.93-.26,0,49.3.01,97.12.02,146.49Zm1778.44-598.75c-2.32,2.55-3.3,4.01-4.62,5.01-28.81,21.83-60.03,39.61-92.8,54.72-60.2,27.77-123.29,46.62-188.03,60.11-147.16,30.65-295.85,35.32-445.32,25.26-62.19-4.19-123.95-12.14-185.47-22.1-2.14-.35-4.33-.4-6.49-.58,181.61,44.4,365.62,71.25,552.87,77.12-7.42-6.35-13.67-12.89-13.47-23.2,5.85.35,11.19,1.36,16.37.84,13.85-1.38,24.33-8.94,31.78-20.26,7.16-10.88,17.08-17.53,29.02-21.7,15.56-5.44,31.63-7.78,48.09-7.68,22.52.13,44.23,5.59,66.05,10.17,34.28,7.19,68.68,13.28,103.86,13.37,26.9.07,53.14-3.56,78-14.43,24.07-10.52,36.64-29.85,34.84-56.16-.74-10.77-4.07-21.51-7.27-31.94-4.29-13.99-9.59-27.68-14.48-41.48-.53-1.5-1.22-2.93-2.95-7.05Zm3329.91-94.86c.79-.35,1.59-.7,2.38-1.04,2.03,2.71,4.52,5.18,6,8.16,7.8,15.72,10.33,32.19,6.4,49.48-.75,3.3-2.89,6.72-.16,10.19,12.56-7.71,20.16-20.17,18.78-33.04-.72-6.78-2.63-13.92-5.88-19.86-13.92-25.42-34.27-44.28-61.64-54.21-12.41-4.5-25.66-7.03-38.73-9.32-24.95-4.38-49.94-8.38-73.84-17.26-5.04-1.87-10.28-2.85-15.59-.53-15.34,6.69-30.49,5.59-45.49-1.19-1.77-.8-3.62-1.43-5.27-2.07-9.25,9.6-9.63,12.86-2.7,22.55,2.9,4.06,5.78,8.17,8.98,12,4.72,5.66,7.02,6.09,13.6,2.38,6.88-3.88,14.26-6.02,22.01-5.39,8.57.7,17.21,1.86,25.53,3.96,6.36,1.6,12.39,4.75,18.37,7.6,13.64,6.5,28.3,7.05,42.95,7.83,9.3.49,18.67.42,27.87,1.65,6.86.91,8.82,4.83,5.3,10.62-3.33,5.48-2.09,8.81,1.78,13.1,4.41,4.89,3.52,9.02-2.33,12.02-4.1,2.1-8.64,3.73-13.17,4.51-10.67,1.84-19.12,7.33-26.86,14.47-4.59,4.23-9.44,8.18-14.44,12.48-.57,3.09-1.12,6.67-1.92,10.2-1.62,7.15-3.44,14.25-5.08,21.39-1.06,4.62.92,7.09,5.64,7.1,5.66.01,11.33.02,16.97-.26,20.26-1.02,40.55-1.82,60.77-3.4,13.56-1.06,22.34-8.51,26.93-21.75,6.18-17.8,8.14-35.6,3.74-54.01-.64-2.7-.62-5.55-.9-8.33Zm-3331.58-72.86c-7.91,9.82-8.08,12.55-.81,22.57,3.12,4.31,6.44,8.48,9.87,12.55,3.19,3.78,6.75,4.79,11.33,1.69,8.06-5.45,17.37-6.71,26.79-6.13,12.73.78,24.79,4.23,36.47,9.56,7.18,3.27,14.86,6.33,22.6,7.31,14.15,1.81,28.5,1.95,42.76,2.91,3.62.24,7.39.42,10.79,1.53,5.28,1.72,7.2,5.56,4.13,10.07-3.87,5.68-2.72,9.26,1.62,13.81,4.23,4.44,3.44,8.37-2,11.33-4.03,2.19-8.57,3.92-13.08,4.65-12.13,1.95-21.56,8.21-29.97,16.7-3.46,3.49-7.53,6.37-11.72,9.86-2.73,11.83-5.6,24.32-8.74,37.94,5.33.62,9.17,1.34,13.02,1.44,5.65.15,11.31,0,16.96-.29,17.27-.85,34.54-1.76,51.81-2.78,16.26-.96,26.3-9.48,30.86-25.14,4.92-16.88,7.65-33.75,2.95-51.15-.71-2.62-.74-5.43-1.15-8.68,6.4.5,7.62,4.72,9.16,8.14,7.2,15.93,9.43,32.46,5.56,49.68-.67,2.99-2.71,6.2.2,9.24,17.41-11.65,23.1-29.44,15.31-47.85-1.68-3.96-3.81-7.79-6.17-11.4-20.66-31.66-49.88-50.54-87.14-55.83-28.77-4.09-57.1-9.58-84.64-18.88-6.01-2.03-11.38-1.29-17.43.49-7.18,2.11-15.06,3.48-22.44,2.88-8.78-.72-17.35-3.89-26.91-6.21Zm2079.15,1.23c-8.71,9.67-9.08,12.64-2.59,21.91,3.24,4.63,6.52,9.29,10.27,13.5,4.4,4.94,6.02,4.43,12.17,1.96,6.36-2.56,13.1-5.04,19.84-5.65,14.22-1.3,28.04,2.11,40.58,8.55,10.35,5.31,21.05,8.42,32.35,9.43,11.58,1.03,23.26,1.01,34.89,1.53,3.31.15,6.72.15,9.89.96,6.4,1.62,8.64,5.65,5.23,11-3.4,5.34-2.47,8.75,1.46,13.12,4.43,4.93,3.53,8.97-2.38,11.96-4.11,2.09-8.64,3.66-13.16,4.52-11.27,2.15-20.32,7.91-28.44,15.67-4.05,3.86-8.5,7.3-12.96,11.09-.56,12.46-7.89,24.19-6.67,38.81,8.84-.05,17.06.19,25.26-.2,19.26-.93,38.53-1.94,57.76-3.36,13.67-1.01,22.55-8.28,27.03-21.52,6-17.72,8.99-35.45,3.64-53.89-.84-2.9-2.55-6.24,1.93-9.85,2.42,3.53,5.03,6.44,6.63,9.82,7.23,15.23,9.12,31.16,5.63,47.71-.71,3.39-1.13,6.84-1.69,10.27,13.6-8.03,21.26-18.77,20.11-34.35-.66-8.89-3.98-16.8-8.79-24.14-21.59-32.94-52.32-51.57-91-56.93-27.79-3.85-55.16-9.22-81.65-18.55-5.3-1.87-10.27-1.97-15.49.35-12.18,5.41-24.63,4.92-37.08.93-4.38-1.4-8.65-3.13-12.78-4.65Zm-1024.93,39.72c11.85-9.25,24.98-11.32,38.43-8.76,10.03,1.91,20.07,4.96,29.37,9.14,10.19,4.59,20.5,7.93,31.52,8.76,9.61.72,19.28.58,28.91,1.03,5.29.25,10.69.39,15.81,1.58,5.42,1.26,7.68,5.35,4.95,9.73-3.67,5.9-3.2,9.88,1.62,14.81,4.12,4.21,3.39,7.73-1.82,10.53-4.62,2.48-9.78,4.4-14.93,5.35-11.01,2.03-19.63,7.72-27.37,15.41-3.95,3.92-8.41,7.33-12.67,11-1.2,4.84-2.48,9.98-3.74,15.12-1.35,5.5-2.93,10.95-3.94,16.51-1.05,5.79.17,7.31,6.03,7.55,5.64.23,11.31.08,16.96-.19,20.25-1,40.52-1.82,60.74-3.3,13.24-.97,21.88-8.22,26.26-21.06,6.27-18.35,9.32-36.73,3.77-55.82-.75-2.57-2.49-5.74,2.51-8.52,2.39,3.77,5.36,7.29,7.07,11.34,6.51,15.43,8.35,31.41,4.3,47.85-.74,3.01-2.6,6.1.42,8.98,21.64-14.97,21.59-35.24,14.4-49.79-7.19-14.55-17.3-26.75-29.57-37.3-18.48-15.89-40.03-24.59-63.93-28.31-28.94-4.51-57.93-8.9-85.48-19.57-4.89-1.89-9.58-1.13-14.48.97-13.22,5.68-26.59,4.97-39.84-.25-3.31-1.3-6.63-2.58-9.75-3.79-4.64,5.14-9.23,9.85-5.65,16.39,4.92,8.99,10.38,17.75,20.1,24.64Zm-235.85,258.42c.16.65.32,1.3.48,1.95,23.21,4.32,46.3,9.57,69.68,12.69,22.7,3.03,45.66,4.8,68.55,5.41,26.53.7,52.33-4.26,76.54-15.81,22.26-10.63,32.27-28.85,32.06-53-.16-18.79-8.37-35.22-15.46-53.11-72.48,46.64-149.69,79.9-231.85,101.88Zm1272.45-96.8c-25.19,13.7-49.29,27.93-74.39,40.12-24.82,12.06-50.29,22.97-76.1,32.72-25.85,9.77-52.49,17.49-78.78,26.1,11.12,3.64,22.21,5.61,33.26,7.78,31.4,6.16,62.94,11.14,95.05,11.31,29.29.15,57.7-4,84.44-16.79,17.87-8.55,27.01-23.37,29.75-42.19,3.11-21.35-4.91-40.41-13.24-59.06Zm1039.83,3.04c-35.62,21.86-71.69,40.94-109.36,56.93-37.6,15.96-76.27,28.8-117.67,39.98,3.11,1.5,4.11,2.23,5.22,2.48,41.63,9.32,83.55,16.71,126.39,16.57,25.84-.09,51.03-4.17,74.82-14.86,22.05-9.91,32.59-27.49,33.38-51.21.58-17.44-6.06-33.04-12.79-49.88Zm-2424.3,116.61c-41.4,5.29-82.03,8.93-122.89,8.57-41.02-.36-81.85-3.85-124.66-9.63,43.82,36.15,208.07,98.94,244.61,93.89-2.37-14.94-4.73-29.86-7.07-44.56-27.06-.18-38.43-7.85-38.61-25.19,23.91,2.45,39.46-4.54,48.61-23.07Zm1038.55,1.39c-40.17,4.99-79.79,8.62-119.67,8.02-39.93-.6-79.65-4.13-119.47-8.16,72.45,46.28,151.04,76.09,236.69,93.23-2.47-16.51-4.67-31.13-6.84-45.6-27.35.26-38.12-6.83-38.7-24.73,25.64,1.3,40.36-5.38,47.97-22.75Zm990.64,23.59c23.91,2.58,44.73-7.23,46.85-22.33-77.33,11.41-154.48,9.59-231.84-.4,70.67,44.68,147.01,74.48,230.54,91.57-2.3-15.65-4.35-29.56-6.38-43.31-29.63-2.19-37.29-7.14-39.17-25.53Zm-2557.45,19.86c18.92-2.26,36.07-4.05,53.13-6.47,8.19-1.16,16.35-3.04,24.28-5.42,11.08-3.32,21.79-8.44,33.18-3.16,6.66-11.18,8.8-23.58,5.07-38.42-3.06-12.2-7.51-24.08-11.89-35.9-3.08-8.3-6.95-9.29-14.34-4.4-24.51,16.2-50.64,29.23-77.92,40.04-3.66,1.45-7.25,3.04-11.22,4.7-.1,16.34-.19,32.17-.29,49.02Zm2008.35-192.42c-.63.78-1.26,1.55-1.89,2.33,2.63,3.34,5.13,6.81,7.92,10.01,6.13,7.01,12.22,14.07,18.65,20.8,31.27,32.78,44.47,72.56,45.67,117.05.05,1.76.32,3.5.52,5.57,20.85-9.49,80.7-54.26,88.24-66.04-56.5-23.77-109.87-53.05-159.12-89.72Zm-872.04,94.19c-1.44.41-1.84.41-2.07.61-29.36,23.98-58.89,47.73-91.61,67.13-1.5.89-3.18,2.96-3.25,4.54-.41,8.8-.35,17.63-.46,26.98,12.3-1.46,23.09-2.95,33.93-3.98,17.59-1.66,34.94-4.24,51.6-10.51,8.2-3.09,16.62-4.64,25.69.03,1.65-4.19,3.99-7.73,4.33-11.47.77-8.21,2.18-16.89.35-24.69-3.48-14.81-8.92-29.17-13.88-43.6-.73-2.13-3.29-3.64-4.63-5.04Zm-1196.7-94.01c4.08,3.06,6.32,4.99,8.8,6.57,15.96,10.2,31.72,20.76,48.03,30.39,28.66,16.93,58.46,31.65,89.36,44.07,2.43.98,5.5.37,8.26.49.05-2.78.78-5.76.02-8.29-5.24-17.57-9.36-35.2-4.45-54.14-1.87.28-2.96.13-3.64.6-14.64,10.02-34.04,4.21-47.21-8.53-5.29-5.12-5.41-6.82-.83-12.65,6.73-8.56,14.87-15.2,25.71-17.92,5.16-1.29,10.42-2.28,15.44-3.96,9.37-3.13,10.79-10.46,3.73-17.91-.64.15-1.39.14-1.88.49-1.06.77-2.1,1.62-2.94,2.62-10.51,12.65-24.15,20.68-39.16,26.7-18.09,7.26-36.95,11.1-56.37,11.71-13.54.43-27.12-.11-42.88-.24Zm2138.52,194.2c17.33-2.08,32.87-3.54,48.26-5.93,10.79-1.67,21.57-3.99,32.02-7.14,9.96-3,19.57-6.51,29.96-1.98,6.05-6.48,6.49-14.22,6.77-21.77.83-21.98-9.3-40.88-16.6-60.57-1.18.36-1.57.37-1.81.57-30.12,24.7-60.97,48.36-94.69,68.07-1.72,1-3.53,3.44-3.64,5.31-.44,7.54-.23,15.11-.27,23.43Zm-1105.63-186.82c1.96,2.48,3.83,5.05,5.91,7.43,5.27,6.02,10.51,12.06,15.97,17.9,26.05,27.79,40.06,60.92,44.05,98.56.66,6.24,1.26,12.48,2.01,19.98,30.04-18.21,57.11-38.57,83.73-62.28-54.27-22.76-104-49.94-151.67-81.59Zm2145.63,187.57c15.68-1.85,30.54-3.16,45.24-5.48,11.44-1.81,22.79-4.47,33.97-7.51,10.22-2.78,20.17-6.56,31.74-.92,1.81-6.74,4.07-12.33,4.72-18.11,2.51-22.38-7-41.77-15.31-62.33-3.9,3.04-6.8,5.23-9.63,7.5-24.64,19.82-50.25,38.29-77.21,54.84-15.51,9.52-15.58,9.44-14.29,27.35.09,1.3.41,2.58.76,4.66Zm-951.1-173.55c-1.29-.07-2.07-.36-2.5-.09-18.63,11.35-35.94,2.9-48.79-9.22-3.59-3.38-3.96-6.5-.78-10.33,7.34-8.86,15.5-16.5,27.09-19.38,5.16-1.28,10.47-2.1,15.47-3.84,9.23-3.21,10.53-11.14,2.75-18.44-34.1,38.49-80.15,42.67-127.71,43.77,43.74,31.34,89.99,57.29,141.67,78.17-6.49-21.26-11.6-40.5-7.21-60.65Zm-2223.87-7.22c-.4.57-.81,1.14-1.21,1.72,4.54,5.25,8.9,10.67,13.65,15.72,24.34,25.87,37.77,56.72,42.27,91.73.37,2.84,1.18,5.63,2.01,9.51,29.13-11.42,56.25-24.58,82.9-43.2-50.3-21.04-96.31-45.77-139.63-75.47Zm-112.12-200.72c6.54,2.15,12.31,4.52,18.31,5.81,2.97.64,6.65-.09,9.51-1.33,3.44-1.5,4.98-5.1,2.01-8.1-6.85-6.92-14.18-13.35-21.64-20.29-2.76,8.06-5.17,15.09-8.2,23.91Zm2078.12,1.86c5.44,1.92,10.6,3.99,15.91,5.52,2.47.71,5.43,1.04,7.81.33,2.64-.78,6.14-2.5,6.88-4.64.65-1.88-1.44-5.42-3.27-7.33-4.81-5.02-10.09-9.59-15.27-14.24-1.28-1.15-2.92-1.9-4.34-2.8-2.61,7.83-4.99,14.97-7.72,23.16Zm-1038.66-1.75c5.49,3.73,11.71,5.66,18.19,6.83,1.91.35,4.25.54,5.86-.27,2.47-1.24,5.39-3.03,6.34-5.32.61-1.48-1.55-4.69-3.22-6.39-3.92-4.01-8.31-7.55-12.45-11.33-2.29-2.09-4.47-4.29-7-6.74-2.8,8.44-5.16,15.55-7.72,23.22Zm2078.04,1.97c7.11,4.4,14.26,6.8,22.06,6.91,3.93.05,7.82-1.56,8.4-5.51.32-2.17-2.13-5.17-4.03-7.13-4.15-4.28-8.7-8.17-13.16-12.15-1.77-1.58-3.71-2.96-5.65-4.5-2.69,7.9-5.03,14.78-7.62,22.38Zm-2886.51,177.4c-.04.35-.08.7-.12,1.05,5.12,2.74,10.24,5.49,15.88,8.52-5.01,7.4-11.69,10.77-18.53,14.5,2.24,1.18,4.32,1.93,6.39,1.9,9.23-.15,25.07-11.39,28.14-20.01.47-1.31.25-3.54-.6-4.45-.85-.91-3.41-1.48-4.33-.87-5.49,3.64-10.77,1.48-16.27.24-3.42-.77-7.04-.62-10.57-.88Zm2075.37,26.28c.82.55,1.53,1.4,2.34,1.52,10.81,1.57,29.56-10.2,32.47-20.51.37-1.3-.2-3.53-1.17-4.36-.93-.8-3.39-1.03-4.4-.35-5.08,3.42-10,1.84-15.22.55-3.49-.87-7.24-.65-10.88-.92,0,.36,0,.72.01,1.08,5.01,2.67,10.02,5.34,16.9,9-7.7,5.38-13.55,9.46-20.06,14Zm1057.85-13.86c-1.81,2.19-2.6,3.73-3.86,4.59-5.1,3.5-10.34,6.79-16.09,10.53,1.92.55,3.39,1.25,4.92,1.38,10.33.86,27.77-10.73,30.85-20.54.35-1.1.16-3.25-.48-3.6-1.55-.83-4.11-1.8-5.21-1.08-4.87,3.17-9.54,1.52-14.44.55-3.5-.69-7.14-2.41-12.19-.53,6.17,3.26,11,5.81,16.51,8.72Zm-2099.5,12.49c14.67,3.75,34.26-7.1,37.34-18.94.87-3.35-2.07-6.28-5.26-4.38-5.74,3.42-10.9,1.19-16.38.21-2.98-.53-6.04-.58-9.06-.85-.08.48-.16.97-.23,1.45,4.7,2.61,9.41,5.22,14.72,8.17-5.45,7.34-11.99,10.95-21.13,14.34Zm-3429.16-17.98c6.45,7.24,12.42,13.54,20.99,18.12,2.41-9.81,4-18.84,3.13-29.1-8.47,3.86-15.9,7.24-24.12,10.99Zm2474.45-33.05c3.29,8.69,10.29,9.59,17.21,9.93,6.18.3,12.33-.4,15.82-6.88-11.79-9.33-20.47-10.14-33.03-3.05Zm2881.09-70.85c-9.82-9.48-22.9-10.22-32.19-1.83,8.04,11.67,23.96,12.57,32.19,1.83Zm-2078.11-1.96c-9.84-9.16-21.27-10.09-32.15-2.6,6.29,12.46,24.23,13.91,32.15,2.6Zm-1071.25-3.58c2.26,7.87,9,8.83,15.48,9.42,6.5.59,13.16.43,16.92-6.58-10.34-9.65-21.02-10.57-32.4-2.84Zm3385.53,79.51c7.6,12.67,25.48,13.63,32.42,2.19-10.58-8.39-20.34-9.19-32.42-2.19Zm-1307.76-77.82c3.53,8.94,10.87,9.98,18.18,10.17,5.85.16,11.68-.9,14.67-7.15-11.34-9.37-20.61-10.24-32.85-3.02Zm-770.31,76.04c8.08,12.16,25.16,12.95,32.17,2.02-10.42-8.6-20.39-9.35-32.17-2.02Zm1039.15.82c3.3,8.11,9.95,9.22,16.53,9.5,6.12.27,12.52-.09,16.01-6.72-10.64-9.33-20.07-10.19-32.53-2.78Zm-1363.88-37.67c-3.8-12.35-8.4-14.99-21.92-12.81,4.88,2.75,9.54,5.37,15.94,8.97-7.48,4.64-13.18,8.19-18.94,11.76,5.99,5.89,13.82,3.35,24.91-7.92Zm1020.17,19.04c4.31,4.15,7.45,7.96,11.32,10.73,6.19,4.43,11.93,2,12.92-5.4.52-3.91-.32-8-.55-12.07-8.14,2.31-14.98,4.26-23.7,6.74Zm13.06-21.99c-7.81,4.76-13.54,8.26-19.45,11.86,7.05,5.67,15.23,2.79,25-8.05-3.13-11.65-11.44-16.29-21.86-12.21,4.65,2.4,9.29,4.79,16.3,8.4Zm-2095.44-11.21c5.76,3.11,10.58,5.71,17.3,9.33-7.45,4.58-13.16,8.09-18.99,11.66,7.12,5.77,14.38,3.32,24.83-7.89-3.68-12.22-8.24-14.98-23.14-13.11Zm3140.43,16.23c-4.59-12.53-10.33-15.71-21.8-12.57,4.67,2.7,9.34,5.4,15.66,9.05-7.66,4.37-13.48,7.69-19.46,11.1,6.95,6.03,14.27,3.73,25.6-7.58Zm-2097.26,16.22c1.82,1.81,3.26,3.16,4.61,4.6,6.41,6.89,12.33,9.73,16.08,6.87,6.1-4.65,4.61-11.1,2.97-17.32-.12-.44-.99-.69-1.07-.74-7.22,2.11-14.1,4.12-22.58,6.59Zm2102.18-5.06c-8.45,2.48-15.38,4.52-23.6,6.94,3.87,3.78,6.98,7.73,10.92,10.47,6.66,4.63,12.7,1.57,13.27-6.43.25-3.53-.36-7.12-.6-10.98Zm-3139.29,3.39c3.31,6.03,7.18,10.27,10.99,12.1,5.52,2.65,10.06.78,11.16-5.3.74-4.06.22-8.35.26-13.05-8.16,2.28-15.27,4.26-22.41,6.25Zm.09-54.35c-5.11,3.53-9.1,6.4-13.2,9.1-4.13,2.72-8.37,5.27-12.48,7.85.95,1.54,1.23,2.08,1.28,2.06,9.13-3.8,18.25-7.64,27.91-11.71-.97-2.02-2.04-4.26-3.5-7.31Zm3091.9,21.25c.62.45,1.64,1.63,2.08,1.44,8.73-3.74,17.39-7.63,26.05-11.52.21-.1.24-.59.68-1.78-1.3-1.77-2.9-3.95-4.26-5.81-8.55,6.15-16.3,11.73-24.55,17.66Zm-2053.08-19.91c-9.17,5.91-17.33,11.18-26.76,17.26,2.72.94,4.76,2.17,5.24,1.73,6.85-6.32,15.66-8.13,24.04-10.97.46-.16.67-1.04,1.18-1.88-1.08-1.79-2.24-3.71-3.69-6.13Zm1014.85,19.14c.09.04,1.45,1.23,2.08.93,8.46-4.12,16.82-8.45,25.82-13.04-.95-1.5-2.4-3.8-3.95-6.27-8.26,6.34-15.85,12.16-23.94,18.38Zm-1942.01,41.62c-.53-.45-1.05-.9-1.58-1.34-3.82,2.27-7.65,4.55-12.42,7.38,2.7,3,4.9,5.44,8.17,9.08,2.42-6.28,4.12-10.7,5.82-15.12Zm1024.93,7.23c2.92,3.05,5.11,5.34,8.39,8.76,2.39-6.28,4.05-10.66,5.71-15.04-.52-.39-1.04-.78-1.56-1.17-3.8,2.26-7.6,4.51-12.54,7.45Zm1038.73,1.06c3.24,3.21,5.39,5.34,8.54,8.45,2.46-5.93,4.29-10.32,6.11-14.72-.5-.43-.99-.86-1.49-1.29-3.9,2.24-7.81,4.48-13.16,7.56Zm1053.44-4.94c-.48-.52-.97-1.04-1.45-1.56-3.99,2.31-7.97,4.62-12.8,7.41,2.93,3.15,4.97,5.32,7.58,8.13,1.76-3.04,3.01-4.88,3.93-6.87,1.06-2.3,1.84-4.73,2.74-7.11Zm-2183.15-70.54c4.18,2.26,6.71,3.63,9.25,5,.97-1.82,2.7-3.65,2.68-5.46-.02-1.83-1.77-3.64-3.1-6.08-2.75,2.04-4.73,3.5-8.83,6.55Zm-1037.91-1.92c2.6,2.76,4.5,4.78,6.13,6.51,5.06-1.05,5.61-3.91,4.62-7.57-.42-1.56-.82-3.13-1.12-4.27-2.88.94-3.88,1.08-4.66,1.57-1.36.85-2.58,1.93-4.97,3.76Zm3123.57,10.02c5.59-5.29,5.66-10.1-.02-11.91-1.7,1.39-3.79,3.1-6.19,5.06,2.29,2.53,3.99,4.4,6.21,6.85Zm-1039.32-1.31c6.01-2.18,6.32-6.31,3.37-9.61-3.75-4.19-5.97.36-9.24,2.9,2.27,2.6,4.12,4.7,5.87,6.71Zm430.57,231.12c-3.41-2.48-6.82-4.97-10.23-7.45,1.44,5.23,3.94,8.94,10.23,7.45Z"/>
</svg>