<?xml version="1.0" encoding="iso-8859-1"?>
<!-- Uploaded to: SVG Repo, www.svgrepo.com, Generator: SVG Repo Mixer Tools -->
<svg height="800px" width="800px" version="1.1" id="Layer_1" xmlns="http://www.w3.org/2000/svg" xmlns:xlink="http://www.w3.org/1999/xlink" 
	 viewBox="0 0 512 512" xml:space="preserve">
<polygon style="fill:#D5F6F5;" points="449.362,114.383 394.894,81.702 416.681,441.191 449.362,441.191 "/>
<polygon style="fill:#FFFFFF;" points="8.17,114.383 8.17,441.191 416.681,441.191 416.681,81.702 "/>
<polygon style="fill:#FE5F1A;" points="449.362,16.34 416.681,16.34 384,81.702 416.681,114.383 449.362,114.383 "/>
<path style="fill:#FE834D;" d="M8.17,16.34v98.043h408.511V16.34H8.17z M89.872,81.702c-9.024,0-16.34-7.316-16.34-16.34
	s7.316-16.34,16.34-16.34s16.34,7.316,16.34,16.34S98.897,81.702,89.872,81.702z M367.66,81.702c-9.024,0-16.34-7.316-16.34-16.34
	s7.316-16.34,16.34-16.34c9.024,0,16.34,7.316,16.34,16.34S376.684,81.702,367.66,81.702z"/>
<path style="fill:#FE5F1A;" d="M394.894,277.787V495.66c60.165,0,108.936-48.771,108.936-108.936S455.058,277.787,394.894,277.787z"
	/>
<path style="fill:#FE834D;" d="M394.894,277.787c42.115,0,76.255,48.771,76.255,108.936S437.008,495.66,394.894,495.66
	c-60.165,0-108.936-48.771-108.936-108.936S334.728,277.787,394.894,277.787z"/>
<path style="fill:#FFFFFF;" d="M444.962,413.684l-26.96-26.961l26.961-26.961c6.381-6.381,6.381-16.727,0-23.109
	c-6.382-6.381-16.727-6.381-23.109,0l-26.961,26.961l-26.961-26.961c-6.382-6.381-16.727-6.381-23.109,0
	c-6.382,6.381-6.382,16.727,0,23.109l26.96,26.961l-26.961,26.961c-6.382,6.382-6.382,16.727,0,23.109
	c6.381,6.382,16.727,6.382,23.109,0l26.961-26.961l26.961,26.961c6.381,6.382,16.727,6.382,23.109,0
	C451.343,430.411,451.343,420.064,444.962,413.684z"/>
<path d="M89.872,89.872c13.515,0,24.511-10.996,24.511-24.511s-10.996-24.511-24.511-24.511S65.362,51.846,65.362,65.362
	S76.357,89.872,89.872,89.872z M89.872,57.191c4.506,0,8.17,3.665,8.17,8.17s-3.665,8.17-8.17,8.17s-8.17-3.666-8.17-8.17
	C81.702,60.857,85.367,57.191,89.872,57.191z"/>
<path d="M367.66,89.872c13.516,0,24.511-10.995,24.511-24.511s-10.995-24.511-24.511-24.511c-13.516,0-24.511,10.995-24.511,24.511
	S354.144,89.872,367.66,89.872z M367.66,57.191c4.506,0,8.17,3.665,8.17,8.17s-3.665,8.17-8.17,8.17s-8.17-3.666-8.17-8.17
	C359.489,60.857,363.154,57.191,367.66,57.191z"/>
<path d="M283.234,311.335v-25.378h21.272c4.512,0,8.17-3.658,8.17-8.17c0-4.512-3.658-8.17-8.17-8.17h-21.272v-65.362h76.255v43.49
	c0,4.512,3.658,8.17,8.17,8.17c4.512,0,8.17-3.658,8.17-8.17v-51.66c0-4.512-3.658-8.17-8.17-8.17H89.872
	c-4.512,0-8.17,3.658-8.17,8.17v163.404c0,4.512,3.658,8.17,8.17,8.17h166.042c4.512,0,8.17-3.658,8.17-8.17s-3.658-8.17-8.17-8.17
	h-65.276v-65.362h76.255v25.378c0,4.512,3.658,8.17,8.17,8.17C279.576,319.505,283.234,315.847,283.234,311.335z M174.298,204.255
	v65.362H98.043v-65.362H174.298z M174.298,351.319H98.043v-65.362h76.255V351.319z M190.638,269.617v-65.362h76.255v65.362H190.638z
	"/>
<path d="M264.176,433.021H16.34c0-38.035,0-200.036,0-310.468h424.851v133.453c0,4.512,3.658,8.17,8.17,8.17
	c4.512,0,8.17-3.658,8.17-8.17V16.34c0-4.512-3.658-8.17-8.17-8.17H8.17c-2.167,0-4.245,0.861-5.777,2.393
	C0,12.956,0,14.201,0,21.112v13.484v79.774c0,0.025,0,326.822,0,326.822c0,4.512,3.658,8.17,8.17,8.17h256.005
	c4.512,0,8.17-3.658,8.17-8.17C272.346,436.679,268.688,433.021,264.176,433.021z M441.191,24.511v81.702H16.34
	c0-37.941,0-67.957,0-81.702H441.191z"/>
<path d="M394.894,269.617c-64.573,0-117.106,52.533-117.106,117.106S330.321,503.83,394.894,503.83S512,451.296,512,386.723
	S459.466,269.617,394.894,269.617z M394.894,487.489c-55.563,0-100.766-45.203-100.766-100.766s45.203-100.766,100.766-100.766
	S495.66,331.16,495.66,386.723S450.455,487.489,394.894,487.489z"/>
<path d="M450.74,330.877c-4.63-4.63-10.785-7.179-17.332-7.179c-6.547,0-12.702,2.549-17.332,7.179l-21.183,21.183l-21.183-21.183
	c-4.63-4.63-10.785-7.179-17.332-7.179s-12.703,2.549-17.332,7.179c-9.557,9.557-9.557,25.107,0,34.663l21.183,21.183
	l-21.183,21.183c-9.557,9.557-9.557,25.107,0,34.663c4.63,4.63,10.785,7.179,17.332,7.179s12.702-2.549,17.332-7.179l21.183-21.183
	l21.183,21.183c4.63,4.63,10.785,7.179,17.332,7.179c6.547,0,12.703-2.549,17.332-7.179c9.557-9.557,9.557-25.107,0-34.663
	l-21.184-21.183l21.183-21.183C460.297,355.983,460.297,340.434,450.74,330.877z M439.185,353.986l-26.961,26.961
	c-3.191,3.191-3.191,8.364,0,11.554l26.961,26.961c3.185,3.185,3.185,8.37,0,11.555c-1.544,1.544-3.595,2.393-5.778,2.393
	c-2.182,0-4.234-0.85-5.777-2.393l-26.961-26.961c-1.595-1.595-3.686-2.393-5.777-2.393c-2.091,0-4.182,0.797-5.777,2.393
	l-26.961,26.961c-1.544,1.544-3.595,2.393-5.777,2.393c-2.182,0-4.234-0.85-5.778-2.393c-3.185-3.185-3.185-8.37,0-11.555
	l26.961-26.961c3.191-3.191,3.191-8.364,0-11.554L350.6,353.986c-3.185-3.185-3.185-8.37,0-11.555
	c1.544-1.544,3.595-2.393,5.778-2.393c2.182,0,4.234,0.85,5.777,2.393l26.961,26.961c3.191,3.191,8.364,3.191,11.554,0
	l26.961-26.961c1.544-1.544,3.595-2.393,5.777-2.393c2.182,0,4.234,0.85,5.778,2.393
	C442.371,345.616,442.371,350.801,439.185,353.986z"/>
</svg>