<?xml version="1.0" encoding="UTF-8"?>
<svg id="Layer_1" data-name="Layer 1" xmlns="http://www.w3.org/2000/svg" viewBox="0 0 1127.64 625.24">
  <defs>
    <style>
      .cls-1 {
        fill: #fff;
      }
    </style>
  </defs>
  <path class="cls-1" d="m189.95,418.98c-.51-7.12-.98-14.25-1.54-21.36-5.05-64.23-10.14-128.46-15.17-192.69-4.6-58.74-8.92-117.51-13.88-176.22-.81-9.63-3.98-27.26-6.51-27.35C103.24-.28,53.56.11,3.9.32,2.54.33-.14,3.12,0,4.36c5.76,51.09,11.89,102.13,17.73,153.21,7.47,65.27,14.58,130.57,22.13,195.83,9.93,85.88,20.04,171.74,30.5,257.55.57,4.65,5.02,12.62,7.74,12.65,62.98.72,125.98.62,188.97.31,2.35-.01,6.43-3.44,6.77-5.72,7.16-47.59,14.07-95.22,20.68-142.89,8.04-58.01,15.76-116.07,24.08-177.61.74,4.88,1.01,6.38,1.19,7.9,4.01,33.52,7.18,67.16,12.18,100.53,9.38,62.64,20.24,125.06,29.55,187.71,2.99,20.1,5.88,32.9,32.98,31.26,52.63-3.19,105.6-.86,158.42-.98,17.34-.04,34.68-.61,52.02-.94,1.16.66,2.32,1.9,3.48,1.89,48.76-.23,97.52-.54,146.27-1.07,1.68-.02,4.59-2.19,4.81-3.68,4.62-30.94,8.99-61.92,13.28-92.91,10.29-74.21,20.51-148.44,30.81-223.01.46.86,1.04,1.49,1.14,2.2,14.05,95.73,27.88,191.49,42.32,287.16,1.57,10.4,6.34,29,10.04,29.11,64.79,1.79,129.64,1.32,194.47,1.15,1.43,0,3.95-1.99,4.11-3.29,2.94-23.28,5.59-46.6,8.32-69.91,7.6-64.7,15.27-129.39,22.8-194.09,6.16-52.99,12.08-106.01,18.26-158.99,7.5-64.38,15.2-128.73,22.57-193.12.15-1.32-2.6-4.28-4-4.28-50.17-.23-100.34-.22-150.51-.05-1.44,0-3.97,1.97-4.15,3.27-5.22,39.16-10.98,78.28-15.08,117.57-8.5,81.42-16.21,162.93-24.01,244.42-2.02,21.09-3.17,42.26-5.1,68.53-5.59-71.5-10.7-137.82-16-204.12-5.56-69.61-11.2-139.21-17.17-208.78-.61-7.12-3.56-20.09-5.64-20.14-53.81-1.12-107.65-.92-161.49-.7-1.57,0-4.3,2.62-4.52,4.29-4.93,37.23-9.99,74.44-14.2,111.75-7.93,70.33-15.57,140.7-22.87,211.1-3.03,29.2-4.86,58.51-7.37,89.47-3.67-44.8-7.36-87.81-10.69-130.85-6.79-87.9-13.33-175.83-20.13-263.73-.57-7.43-2.12-21.17-3.56-21.22C601.69-.09,562.21.08,522.74,0c-11.82.05-23.64.04-35.46.23-1.11.02-3.09,1.08-3.18,1.85-7.43,59.2-15.87,118.3-21.72,177.66-8.27,84.01-14.61,168.21-21.77,252.33h-1.69c-6.56-85.15-12.99-170.32-19.74-255.45-4.03-50.81-8.26-101.61-13.2-152.34-.8-8.25-5.61-23.01-8.89-23.1C345.16-.29,293.17.08,241.18.35c-2.14,0-5.91,2.85-6.15,4.74-7.96,60.46-16.72,120.85-22.98,181.49-7.98,77.29-13.91,154.8-20.72,232.21-.46.06-.92.13-1.39.19h0Z"/>
  <path class="cls-1" d="m522.76,0c39.47.07,78.96-.1,118.39,1.13,1.43.04,2.98,13.79,3.56,21.22,6.8,87.9,13.35,175.83,20.13,263.73,3.32,43.04,7.02,86.05,10.69,130.85,2.51-30.95,4.35-60.27,7.37-89.47,7.3-70.4,14.93-140.76,22.87-211.1,4.21-37.31,9.27-74.53,14.2-111.75.22-1.66,2.95-4.28,4.52-4.29,53.83-.22,107.68-.42,161.49.7,2.08.04,5.03,13.02,5.64,20.14,5.97,69.57,11.61,139.17,17.17,208.78,5.3,66.3,10.4,132.63,16,204.12,1.93-26.27,3.08-47.44,5.1-68.53,7.8-81.49,15.51-163,24.01-244.42,4.1-39.29,9.86-78.4,15.08-117.57.17-1.3,2.71-3.26,4.15-3.27,50.17-.17,100.34-.18,150.51.05,1.41,0,4.15,2.96,4,4.28-7.37,64.39-15.06,128.74-22.57,193.12-6.18,52.99-12.09,106-18.26,158.99-7.53,64.71-15.2,129.39-22.8,194.09-2.74,23.31-5.38,46.63-8.32,69.91-.16,1.3-2.69,3.29-4.11,3.29-64.84.16-129.69.64-194.47-1.15-3.69-.1-8.47-18.71-10.04-29.11-14.44-95.67-28.27-191.43-42.32-287.16-.1-.71-.68-1.34-1.14-2.2-10.3,74.57-20.52,148.79-30.81,223.01-4.3,30.99-8.67,61.97-13.28,92.91-.22,1.49-3.13,3.66-4.81,3.68-48.76.53-97.51.83-146.27,1.07-1.16,0-2.32-1.23-3.48-1.89-6.05-45.99-12.15-91.97-18.14-137.97-8.56-65.74-16.99-131.5-25.55-197.24-8.12-62.4-16.24-124.81-24.53-187.19-4.47-33.62-9.3-67.19-13.97-100.79V0h-.01Z"/>
  <path d="m522.76,0c4.67,33.59,9.5,67.17,13.97,100.79,8.29,62.38,16.41,124.79,24.53,187.19,8.55,65.74,16.99,131.5,25.55,197.24,5.99,46,12.09,91.98,18.14,137.97-17.34.33-34.68.9-52.02.94-52.83.12-105.79-2.21-158.42.98-27.09,1.64-29.99-11.16-32.98-31.26-9.31-62.65-20.17-125.07-29.55-187.71-5-33.37-8.17-67.01-12.18-100.53-.18-1.51-.45-3.02-1.19-7.9-8.33,61.53-16.04,119.59-24.08,177.61-6.61,47.67-13.52,95.3-20.68,142.89-.34,2.28-4.42,5.7-6.77,5.72-62.99.31-125.99.41-188.97-.31-2.72-.03-7.17-8-7.74-12.65-10.46-85.82-20.57-171.68-30.5-257.55-7.55-65.26-14.66-130.56-22.13-195.83C11.89,106.49,5.77,55.45,0,4.36-.14,3.12,2.54.33,3.9.32,53.56.11,103.24-.28,152.85,1.36c2.53.08,5.7,17.71,6.51,27.35,4.95,58.71,9.28,117.48,13.88,176.22,5.03,64.23,10.12,128.46,15.17,192.69.56,7.12,1.03,14.24,1.54,21.36v3.7c.37.02.74.04,1.11.06.09-1.32.19-2.63.28-3.95,6.81-77.41,12.74-154.92,20.72-232.21,6.26-60.64,15.01-121.03,22.98-181.49.25-1.89,4.02-4.73,6.15-4.74,51.98-.27,103.98-.64,155.92.83,3.28.09,8.09,14.85,8.89,23.1,4.95,50.73,9.17,101.53,13.2,152.34,6.75,85.14,13.18,170.3,19.74,255.44.14,1.7.27,3.41.41,5.12.43-.03.86-.06,1.28-.09v-5.03c7.16-84.12,13.5-168.32,21.77-252.33,5.84-59.36,14.29-118.46,21.72-177.66.1-.76,2.07-1.83,3.18-1.85,11.82-.18,23.64-.18,35.46-.23h0Z"/>
</svg>